<svg id="pin_distance" data-name="pin distance" xmlns="http://www.w3.org/2000/svg" width="16.534" height="16.534" viewBox="0 0 16.534 16.534">
  <path id="Trazado_46966" data-name="Trazado 46966" d="M9.5,7.5a2.411,2.411,0,1,0-3.41,0L7.791,9.2ZM7.791,11.15,5.111,8.47a3.79,3.79,0,1,1,5.36,0Zm0-4.326A1.033,1.033,0,1,1,8.824,5.791,1.032,1.032,0,0,1,7.791,6.824Zm6.2,8.577L15.7,13.7a2.411,2.411,0,1,0-3.41,0Zm2.68-.73-2.68,2.68-2.68-2.68a3.79,3.79,0,1,1,5.36,0Zm-2.68-1.646a1.033,1.033,0,1,1,1.033-1.033A1.032,1.032,0,0,1,13.991,13.024Z" transform="translate(-2.624 -1.313)"/>
  <path id="Trazado_46967" data-name="Trazado 46967" d="M0,0H16.534V16.534H0Z" fill="none"/>
</svg>
