<svg id="restaurant" xmlns="http://www.w3.org/2000/svg" width="14.8" height="14.8" viewBox="0 0 14.8 14.8">
  <path id="Trazado_46981" data-name="Trazado 46981" d="M17.1,4V16.333H15.867V12.017H13.4V7.7A3.7,3.7,0,0,1,17.1,4ZM15.867,5.56A2.478,2.478,0,0,0,14.633,7.7v3.083h1.233ZM9.7,11.338v5H8.467v-5A3.083,3.083,0,0,1,6,8.317v-3.7H7.233V8.933H8.467V4.617H9.7V8.933h1.233V4.617h1.233v3.7A3.083,3.083,0,0,1,9.7,11.338Z" transform="translate(-4.15 -2.767)"/>
  <path id="Trazado_46982" data-name="Trazado 46982" d="M0,0H14.8V14.8H0Z" fill="none"/>
</svg>
