<svg id="brush_2" data-name="brush 2" xmlns="http://www.w3.org/2000/svg" width="25.125" height="25.125" viewBox="0 0 25.125 25.125">
  <path id="Trazado_47105" data-name="Trazado 47105" d="M18.637,19.154l2.219-2.219L17.528,13.6l3.7-3.7L19.009,7.681l-3.7,3.7L11.974,8.052,9.755,10.272Zm-1.481,1.481L8.273,11.753,5.316,14.71,14.2,23.593ZM15.308,8.419l2.957-2.957a1.049,1.049,0,0,1,1.481,0l3.7,3.7a1.049,1.049,0,0,1,0,1.481L20.49,13.6l2.591,2.591a1.067,1.067,0,0,1,.3.743,1.046,1.046,0,0,1-.3.738l-8.145,8.145a1.049,1.049,0,0,1-1.481,0L3.091,15.454a1.049,1.049,0,0,1,0-1.481l8.145-8.145a1.046,1.046,0,0,1,.738-.3,1.067,1.067,0,0,1,.743.3Z" transform="translate(-1.327 -2.457)"/>
  <path id="Trazado_47106" data-name="Trazado 47106" d="M0,0H25.125V25.125H0Z" fill="none"/>
</svg>
