<svg xmlns="http://www.w3.org/2000/svg" width="22.383" height="22.834" viewBox="0 0 22.383 22.834">
  <path id="Trazado_46917" data-name="Trazado 46917" d="M6.951,6a.951.951,0,0,0,0,1.9h.469a.944.944,0,0,1,.913.691l3.019,10.561a2.847,2.847,0,0,0,2.74,2.068h8.7a2.859,2.859,0,0,0,2.651-1.8l2.8-7.015a1.9,1.9,0,0,0-1.77-2.607H10.662l-.5-1.738A2.847,2.847,0,0,0,7.421,6ZM13.18,18.628,11.2,11.708H26.474l-2.8,7.015a.95.95,0,0,1-.882.6h-8.7A.944.944,0,0,1,13.18,18.628Zm1.383,10.206a2.854,2.854,0,1,0-2.854-2.854A2.85,2.85,0,0,0,14.563,28.834Zm0-1.9a.951.951,0,1,1,.951-.951A.95.95,0,0,1,14.563,26.931Zm7.611,1.9A2.854,2.854,0,1,0,19.32,25.98,2.85,2.85,0,0,0,22.174,28.834Zm0-1.9a.951.951,0,1,1,.951-.951A.95.95,0,0,1,22.174,26.931Z" transform="translate(-6 -6)" fill="#212121"/>
</svg>
