<svg xmlns="http://www.w3.org/2000/svg" xmlns:xlink="http://www.w3.org/1999/xlink" width="42" height="42" viewBox="0 0 42 42">
  <defs>
    <clipPath id="clip-path">
      <rect id="Rect치ngulo_19510" data-name="Rect치ngulo 19510" width="26" height="25" rx="3" transform="translate(-0.498 -0.442)" fill="#fff"/>
    </clipPath>
  </defs>
  <g id="Grupo_11349" data-name="Grupo 11349" transform="translate(0)">
    <rect id="Rect치ngulo_19509" data-name="Rect치ngulo 19509" width="42" height="42" rx="10" transform="translate(0 0)" fill="#faea93"/>
    <g id="Enmascarar_grupo_9" data-name="Enmascarar grupo 9" transform="translate(8.498 9.442)" clip-path="url(#clip-path)">
      <g id="spikes_2550973" transform="translate(0.752 0.219)">
        <path id="Trazado_47035" data-name="Trazado 47035" d="M21.378,18.736a3.549,3.549,0,0,0-.871-3.891L17.98,12.318l2.06-2.059-.223-.2a3.849,3.849,0,0,0,1.3-.875L23.9,6.4l-.553-.5a5.483,5.483,0,0,0-.848-.6,3.522,3.522,0,0,0,.688-.612,4.782,4.782,0,0,0,.856-3.8l-.1-.451L23.5.34a4.782,4.782,0,0,0-3.8.855,3.521,3.521,0,0,0-.612.688,5.486,5.486,0,0,0-.6-.848l-.5-.553L15.2,3.267a3.851,3.851,0,0,0-.876,1.3l-.2-.222L12.066,6.4l-2.06-2.06-.2.222a3.851,3.851,0,0,0-.876-1.3L6.144.482l-.5.553a5.489,5.489,0,0,0-.6.848A3.521,3.521,0,0,0,4.43,1.2,4.782,4.782,0,0,0,.634.34l-.451.1-.1.451a4.782,4.782,0,0,0,.856,3.8,3.52,3.52,0,0,0,.688.612,5.486,5.486,0,0,0-.848.6l-.553.5L3.016,9.181a3.849,3.849,0,0,0,1.3.875l-.223.2,2.06,2.059L3.624,14.845a3.549,3.549,0,0,0-.871,3.891,5.642,5.642,0,0,0,.632,1.254L.207,23.169l1,1L4.39,21a5.64,5.64,0,0,0,1.256.633A4.114,4.114,0,0,0,7,21.871a3.524,3.524,0,0,0,2.54-1.111l2.528-2.528,2.528,2.528a3.524,3.524,0,0,0,2.54,1.111,4.114,4.114,0,0,0,1.352-.241A5.641,5.641,0,0,0,19.742,21l3.18,3.176,1-1-3.178-3.178a5.639,5.639,0,0,0,.632-1.254ZM19.748,4.6a3.438,3.438,0,0,0,.025-.389,2.827,2.827,0,0,1,.851-1.935,2.888,2.888,0,0,1,1.892-.6c.068,0,.132,0,.192,0a3.023,3.023,0,0,1-.594,2.079,2.822,2.822,0,0,1-1.941.857,3.432,3.432,0,0,0-.389.025l-.038,0C19.747,4.625,19.747,4.612,19.748,4.6ZM18.662,6.726a2.214,2.214,0,0,1,2.387-.544,3.977,3.977,0,0,1,.727.334L20.113,8.177a2.15,2.15,0,0,1-2.387.544A3.976,3.976,0,0,1,17,8.388Zm-.748,3.651-.954.954c-.095-.117-1.286-1.319-1.286-1.319a2.251,2.251,0,0,1,1.513.031,3.976,3.976,0,0,1,.727.334ZM16.207,4.27l1.663-1.662a2.436,2.436,0,0,1-.212,3.114L16,7.384a4.006,4.006,0,0,1-.321-.692,2.156,2.156,0,0,1,.533-2.422Zm-.559,7.723a2.14,2.14,0,0,1,.566,2.322,4.175,4.175,0,0,1-.354.791L14.2,13.445a2.15,2.15,0,0,1-.545-2.387,3.846,3.846,0,0,1,.25-.576l.118-.118ZM14.008,6.47a4.006,4.006,0,0,1,.321.692,2.268,2.268,0,0,1,.043,1.549l-1.3-1.3ZM9.791,7.2a3.977,3.977,0,0,1,.333-.727l1.663,1.662a2.15,2.15,0,0,1,.545,2.387,3.977,3.977,0,0,1-.334.727L10.336,9.583A2.15,2.15,0,0,1,9.791,7.2Zm-.459,3.391,1.663,1.662a4,4,0,0,1-.692.322,2.157,2.157,0,0,1-2.422-.533L6.218,10.376a4,4,0,0,1,.692-.322A2.157,2.157,0,0,1,9.332,10.587Zm-3.4-7.252a3.977,3.977,0,0,1,.333-.727L7.925,4.27A2.15,2.15,0,0,1,8.47,6.657a3.977,3.977,0,0,1-.334.727L6.474,5.722A2.215,2.215,0,0,1,5.929,3.335Zm-3.906.425a3.01,3.01,0,0,1-.6-2.084A3.025,3.025,0,0,1,3.5,2.27a2.822,2.822,0,0,1,.857,1.94,3.441,3.441,0,0,0,.025.389c0,.013,0,.025,0,.038l-.039,0a3.44,3.44,0,0,0-.388-.025,2.828,2.828,0,0,1-1.936-.851Zm2,4.417L2.357,6.515a4,4,0,0,1,.692-.322,2.219,2.219,0,0,1,2.422.533L7.133,8.388a4,4,0,0,1-.692.322A2.156,2.156,0,0,1,4.019,8.177Zm.076,10.093a2.157,2.157,0,0,1,.533-2.422l1.663-1.662a4.194,4.194,0,0,1,.355.793A2.139,2.139,0,0,1,6.079,17.3L4.416,18.963a4.005,4.005,0,0,1-.322-.692Zm4.439,1.485a2.15,2.15,0,0,1-2.387.544,3.976,3.976,0,0,1-.727-.334L7.083,18.3a2.142,2.142,0,0,1,2.337-.561,3.932,3.932,0,0,1,.777.35Zm1.517-3.3a3.787,3.787,0,0,1-1.368-.76,3.852,3.852,0,0,1-.765-1.385,3,3,0,0,1-.079-.309l2.54,2.54a3,3,0,0,1-.328-.085Zm1.691-.56-1.663-1.662a4,4,0,0,1,.692-.322,2.157,2.157,0,0,1,2.422.533l1.663,1.662a4.05,4.05,0,0,1-.784.352A2.141,2.141,0,0,1,11.742,15.9Zm6.278,4.388a2.157,2.157,0,0,1-2.422-.533l-1.663-1.662a3.938,3.938,0,0,1,.784-.352,2.141,2.141,0,0,1,2.33.563l1.663,1.662a4.005,4.005,0,0,1-.692.322Zm2.029-2.053a3.977,3.977,0,0,1-.334.727L18.053,17.3a2.14,2.14,0,0,1-.566-2.322,4.175,4.175,0,0,1,.354-.791L19.5,15.849a2.15,2.15,0,0,1,.545,2.387Z" transform="translate(0 -0.253)"/>
      </g>
    </g>
  </g>
</svg>
