<svg id="close" xmlns="http://www.w3.org/2000/svg" width="19.39" height="19.39" viewBox="0 0 19.39 19.39">
  <path id="Trazado_47101" data-name="Trazado 47101" d="M9.7,0a9.7,9.7,0,1,0,9.7,9.7A9.7,9.7,0,0,0,9.7,0Zm0,18.2a8.493,8.493,0,1,1,8.483-8.5A8.51,8.51,0,0,1,9.7,18.2ZM13.121,6.269a.6.6,0,0,0-.856,0L9.7,8.839,7.126,6.269a.607.607,0,1,0-.86.856L8.839,9.7,6.265,12.264a.607.607,0,1,0,.86.856L9.7,10.551l2.569,2.569a.606.606,0,0,0,.856-.856L10.551,9.7l2.569-2.569A.6.6,0,0,0,13.121,6.269Z"/>
  <path id="Trazado_47102" data-name="Trazado 47102" d="M0,0H19.39V19.39H0Z" fill="none"/>
</svg>
