<svg xmlns="http://www.w3.org/2000/svg" width="37" height="37" viewBox="0 0 37 37">
  <g id="Grupo_11423" data-name="Grupo 11423" transform="translate(-16 -80)">
    <rect id="Rectángulo_18824" data-name="Rectángulo 18824" width="37" height="37" rx="10" transform="translate(16 80)" fill="#fad149"/>
    <path id="Icon_ionic-ios-arrow-forward" data-name="Icon ionic-ios-arrow-forward" d="M15.958,12.559l-4.81-4.806a1.161,1.161,0,0,1,0-1.375,1.242,1.242,0,0,1,1.684.092l5.45,5.446a.907.907,0,0,1,.026,1.253l-5.472,5.484a1.4,1.4,0,0,1-.8.335,1.652,1.652,0,0,1-.887-.335.9.9,0,0,1,0-1.283Z" transform="translate(49.55 110.987) rotate(180)" fill="#27333c"/>
  </g>
</svg>
