<svg xmlns="http://www.w3.org/2000/svg" width="27.839" height="19.582" viewBox="0 0 27.839 19.582">
  <g id="food-menu-svgrepo-com" transform="translate(0 0)">
    <path id="Trazado_46922" data-name="Trazado 46922" d="M9.218,5.553h6.854V7.511H9.218Zm0,3.916h6.854v1.958H9.218Z" transform="translate(7.851 -1.636)" fill="#1d1d1b"/>
    <path id="Trazado_46923" data-name="Trazado 46923" d="M18.729,2H6V21.582H18.729a1.96,1.96,0,0,0,1.958-1.958V3.958A1.96,1.96,0,0,0,18.729,2Zm0,17.624H7.958V3.958h10.77Z" transform="translate(7.152 -2)" fill="#1d1d1b"/>
    <path id="Trazado_46924" data-name="Trazado 46924" d="M7.958,2H20.687V21.582H7.958A1.96,1.96,0,0,1,6,19.624V3.958A1.96,1.96,0,0,1,7.958,2Zm0,17.624h10.77V3.958H7.958Z" transform="translate(-6 -2)" fill="#1d1d1b"/>
  </g>
</svg>
