<svg xmlns="http://www.w3.org/2000/svg" xmlns:xlink="http://www.w3.org/1999/xlink" width="42" height="43" viewBox="0 0 42 43">
  <defs>
    <clipPath id="clip-path">
      <rect id="Rect치ngulo_19530" data-name="Rect치ngulo 19530" width="26" height="23" rx="3" transform="translate(-0.498 0.357)" fill="#fff"/>
    </clipPath>
  </defs>
  <g id="Grupo_11359" data-name="Grupo 11359" transform="translate(0 0.201)">
    <rect id="Rect치ngulo_19529" data-name="Rect치ngulo 19529" width="42" height="43" rx="10" transform="translate(0 -0.201)" fill="#f6ae42"/>
    <g id="Enmascarar_grupo_19" data-name="Enmascarar grupo 19" transform="translate(8.498 9.442)" clip-path="url(#clip-path)">
      <g id="sesame_2919843" transform="translate(1.397 -0.014)">
        <path id="Trazado_47062" data-name="Trazado 47062" d="M5.883,35.8l-.45.095-.095.45c-.027.13-.65,3.2.967,4.813a4.649,4.649,0,0,0,3.3,1.107,7.989,7.989,0,0,0,1.513-.14l.45-.095.095-.45c.027-.13.65-3.2-.967-4.813s-4.683-.994-4.813-.967Zm4.472,5.018A4.014,4.014,0,0,1,7.3,40.161a4.035,4.035,0,0,1-.656-3.053,4.035,4.035,0,0,1,3.053.656,4.037,4.037,0,0,1,.656,3.055Z" transform="translate(-3.637 -20.61)"/>
        <path id="Trazado_47063" data-name="Trazado 47063" d="M7.418,21.552l.45-.095.095-.45c.027-.13.65-3.2-.967-4.813s-4.683-.994-4.813-.967l-.45.095-.095.45c-.027.13-.65,3.2.967,4.813a4.648,4.648,0,0,0,3.3,1.107,7.989,7.989,0,0,0,1.513-.14ZM2.946,16.535A4.035,4.035,0,0,1,6,17.191a4.035,4.035,0,0,1,.656,3.053A4.034,4.034,0,0,1,3.6,19.588,4.035,4.035,0,0,1,2.946,16.535Z" transform="translate(-1.497 -8.72)"/>
        <path id="Trazado_47064" data-name="Trazado 47064" d="M23.511,27.132l.385-.251c.111-.072,2.72-1.8,2.72-4.087s-2.609-4.015-2.72-4.087l-.385-.251-.385.251c-.111.072-2.72,1.8-2.72,4.087s2.609,4.015,2.72,4.087Zm-1.7-4.338a4.035,4.035,0,0,1,1.695-2.623,4.035,4.035,0,0,1,1.7,2.623,4.035,4.035,0,0,1-1.695,2.623,4.034,4.034,0,0,1-1.7-2.623Z" transform="translate(-12.426 -10.666)"/>
        <path id="Trazado_47065" data-name="Trazado 47065" d="M43.369,9.348c-.072-.111-1.8-2.72-4.087-2.72S35.268,9.237,35.2,9.348l-.251.385.251.385c.072.111,1.8,2.72,4.087,2.72s4.015-2.609,4.087-2.72l.251-.385Zm-4.087,2.08A4.035,4.035,0,0,1,36.66,9.733a4.035,4.035,0,0,1,2.623-1.7A4.035,4.035,0,0,1,41.9,9.733,4.034,4.034,0,0,1,39.282,11.428Z" transform="translate(-20.828 -3.831)"/>
        <path id="Trazado_47066" data-name="Trazado 47066" d="M17.751,6.37l.45.095a7.986,7.986,0,0,0,1.513.14,4.649,4.649,0,0,0,3.3-1.107c1.617-1.617.994-4.683.967-4.813l-.095-.45L23.437.14c-.13-.027-3.2-.65-4.813.967s-.994,4.683-.967,4.813ZM19.62,2.1a4.035,4.035,0,0,1,3.053-.656A4.034,4.034,0,0,1,22.018,4.5a4.034,4.034,0,0,1-3.053.656A4.035,4.035,0,0,1,19.62,2.1Z" transform="translate(-10.756 0)"/>
        <path id="Trazado_47067" data-name="Trazado 47067" d="M29.454,42.287c-2.287,0-4.015,2.609-4.087,2.72l-.251.385.251.385c.072.111,1.8,2.72,4.087,2.72s4.015-2.609,4.087-2.72l.251-.385-.251-.385c-.072-.111-1.8-2.72-4.087-2.72Zm0,4.8a4.036,4.036,0,0,1-2.624-1.7A4.014,4.014,0,0,1,29.454,43.7a4.036,4.036,0,0,1,2.624,1.7,4.013,4.013,0,0,1-2.624,1.694Z" transform="translate(-15.148 -24.44)"/>
        <path id="Trazado_47068" data-name="Trazado 47068" d="M45.468,24.12l-.45-.095c-.13-.027-3.2-.65-4.813.967s-.994,4.683-.967,4.813l.095.45.45.095a7.984,7.984,0,0,0,1.513.14,4.65,4.65,0,0,0,3.3-1.107c1.617-1.617.994-4.683.967-4.813ZM43.6,28.386a4.037,4.037,0,0,1-3.055.656,4.014,4.014,0,0,1,.657-3.053,4.035,4.035,0,0,1,3.053-.656,4.034,4.034,0,0,1-.656,3.053Z" transform="translate(-23.229 -13.804)"/>
      </g>
    </g>
  </g>
</svg>
