<svg xmlns="http://www.w3.org/2000/svg" xmlns:xlink="http://www.w3.org/1999/xlink" width="42" height="42" viewBox="0 0 42 42">
  <defs>
    <clipPath id="clip-path">
      <rect id="Rect치ngulo_19526" data-name="Rect치ngulo 19526" width="26" height="24" rx="3" transform="translate(-0.498 -0.003)" fill="#fff"/>
    </clipPath>
  </defs>
  <g id="Grupo_11357" data-name="Grupo 11357" transform="translate(0 -0.439)">
    <rect id="Rect치ngulo_19525" data-name="Rect치ngulo 19525" width="42" height="42" rx="10" transform="translate(0 0.439)" fill="#d6f893"/>
    <g id="Enmascarar_grupo_17" data-name="Enmascarar grupo 17" transform="translate(8.498 9.442)" clip-path="url(#clip-path)">
      <path id="celery_4278692" d="M22.647,15.084v-.121a2.117,2.117,0,0,0-2.114-2.114c-.883,0-1.245.462-2.161.967a2.114,2.114,0,0,0-4.182.455.7.7,0,0,1-.7.692h0A13.268,13.268,0,0,0,12,15.046l4.96-4.96a.708.708,0,0,1,1,0,2.115,2.115,0,0,0,3.27-2.644c1-.29,1.586-.219,2.212-.844a2.117,2.117,0,0,0,0-2.99l-.085-.085A2.115,2.115,0,0,0,20.533.7L20.448.618a2.117,2.117,0,0,0-2.99,0c-.625.625-.553,1.206-.844,2.212A2.115,2.115,0,0,0,13.97,6.1a.708.708,0,0,1,0,1l-4.96,4.96a13.269,13.269,0,0,0,.084-1.485.7.7,0,0,1,.688-.7H9.8a2.114,2.114,0,0,0,.442-4.182c.5-.913.967-1.277.967-2.161A2.117,2.117,0,0,0,9.093,1.409H8.972a2.115,2.115,0,0,0-3.987,0H4.865A2.117,2.117,0,0,0,2.75,3.524c0,.883.461,1.244.967,2.161A2.114,2.114,0,0,0,4.16,9.867h.013a.7.7,0,0,1,.692.7,8.835,8.835,0,0,1-2.771,6.407L0,19.073l4.983,4.983,2.094-2.094a8.835,8.835,0,0,1,6.407-2.771.7.7,0,0,1,.7.692,2.114,2.114,0,0,0,4.182.455c.914.5,1.277.967,2.161.967a2.117,2.117,0,0,0,2.114-2.114v-.121a2.115,2.115,0,0,0,0-3.987Zm-7.68-6.99a2.117,2.117,0,0,0,0-2.99.7.7,0,0,1,1-1l1.45,1.45.866-3.634a.7.7,0,0,1,1.173-.307l1,1,.5-.5a.7.7,0,0,1,1,1l-.5.5,1,1a.7.7,0,0,1-.307,1.173L18.5,6.644l1.45,1.45a.7.7,0,0,1-1,1,2.117,2.117,0,0,0-2.99,0L9.451,15.6a12.377,12.377,0,0,0-1.693.7,12.377,12.377,0,0,0,.7-1.694ZM3.091,17.975a10.2,10.2,0,0,0,3.184-7.4,2.108,2.108,0,0,0-.626-1.506A2.074,2.074,0,0,0,4.16,8.457a.7.7,0,1,1,0-1.41H6.21c-2.057-3.4-2.05-3.194-2.05-3.524a.706.706,0,0,1,.7-.7h1.41v-.7a.7.7,0,1,1,1.41,0v.7h1.41a.708.708,0,0,1,.7.7c0,.34-.031.184-2.05,3.524H9.8a.7.7,0,0,1,0,1.41H9.781a2.074,2.074,0,0,0-1.471.609,2.108,2.108,0,0,0-.626,1.506,11.561,11.561,0,0,1-3.6,8.4h0l-1.1,1.1-1-1Zm18.851-.193h-.7v1.41a.7.7,0,0,1-1.046.612l-3.182-1.957V19.9a.7.7,0,1,1-1.41,0,2.074,2.074,0,0,0-.609-1.484,2.108,2.108,0,0,0-1.506-.626,10.2,10.2,0,0,0-7.4,3.184l-1.1,1.1-1-1,1.1-1.1a11.56,11.56,0,0,1,8.4-3.6,2.108,2.108,0,0,0,1.506-.626,2.074,2.074,0,0,0,.609-1.484.7.7,0,1,1,1.41,0v2.05l3.182-1.957a.7.7,0,0,1,1.047.612v1.41h.7a.7.7,0,1,1,0,1.409Z" transform="translate(0.791 -0.014)"/>
    </g>
  </g>
</svg>
