<svg xmlns="http://www.w3.org/2000/svg" xmlns:xlink="http://www.w3.org/1999/xlink" width="42" height="42" viewBox="0 0 42 42">
  <defs>
    <clipPath id="clip-path">
      <rect id="Rect치ngulo_19522" data-name="Rect치ngulo 19522" width="26" height="24" rx="3" transform="translate(-0.498 -0.363)" fill="#fff"/>
    </clipPath>
  </defs>
  <g id="Grupo_11355" data-name="Grupo 11355" transform="translate(0 -0.079)">
    <rect id="Rect치ngulo_19521" data-name="Rect치ngulo 19521" width="42" height="42" rx="10" transform="translate(0 0.079)" fill="#fff6c2"/>
    <g id="Enmascarar_grupo_15" data-name="Enmascarar grupo 15" transform="translate(8.498 9.442)" clip-path="url(#clip-path)">
      <g id="milk_1498166" transform="translate(0.765 -0.48)">
        <path id="Trazado_47051" data-name="Trazado 47051" d="M13.655,26.2c-1.243,1.178-3.524,3.483-3.524,5.2a3.524,3.524,0,1,0,7.048,0C17.179,29.683,14.9,27.377,13.655,26.2Zm0,7.314A2.117,2.117,0,0,1,11.54,31.4c0-.739,1.116-2.189,2.115-3.233,1,1.043,2.114,2.492,2.114,3.233A2.117,2.117,0,0,1,13.655,33.513Z" transform="translate(-5.855 -15.142)"/>
        <path id="Trazado_47052" data-name="Trazado 47052" d="M15.552,12.733V7.686l-1.41-4.276V0H1.41V3.411L0,7.686v16.37H22.493l1.563-6.3V12.733Zm7.095,4.847-.161.651a3.7,3.7,0,0,1-3.646-1.092,5.6,5.6,0,0,0-3.59-1.571,4.574,4.574,0,0,0-1.106.109V14.142h8.5ZM13.873,7.095H1.679l.945-2.866h10.3ZM2.819,1.41h9.914v1.41H2.819ZM1.41,22.647V8.5H14.142v4.229h-1.41v5.019l1.213,4.894Zm13.989,0L14.142,17.58v-.44a3.74,3.74,0,0,1,3.76,1.053,5.412,5.412,0,0,0,4.208,1.55l-.72,2.9Z"/>
      </g>
    </g>
  </g>
</svg>
