<svg xmlns="http://www.w3.org/2000/svg" xmlns:xlink="http://www.w3.org/1999/xlink" width="42" height="43" viewBox="0 0 42 43">
  <defs>
    <clipPath id="clip-path">
      <rect id="Rect치ngulo_19519" data-name="Rect치ngulo 19519" width="26" height="24" rx="3" transform="translate(-0.498 0.277)" fill="#fff"/>
    </clipPath>
  </defs>
  <g id="Grupo_11353" data-name="Grupo 11353" transform="translate(0 0.28)">
    <rect id="Rect치ngulo_19517" data-name="Rect치ngulo 19517" width="42" height="43" rx="10" transform="translate(0 -0.28)" fill="#e9c092"/>
    <g id="Enmascarar_grupo_13" data-name="Enmascarar grupo 13" transform="translate(8.498 9.442)" clip-path="url(#clip-path)">
      <path id="peanut_2257485" d="M24.025,5.365a16.867,16.867,0,0,0-.8-4.107L23.116.941,22.8.829a16.861,16.861,0,0,0-4.106-.8c-3.076-.2-5.587.571-7.259,2.242a9.2,9.2,0,0,0-2.163,3.4A5.357,5.357,0,0,1,6.045,8.9a9.2,9.2,0,0,0-3.4,2.163A8.838,8.838,0,0,0,.019,16.674,6.869,6.869,0,0,0,1.959,22.1a6.792,6.792,0,0,0,4.879,1.959q.27,0,.545-.019A8.838,8.838,0,0,0,13,21.41a9.2,9.2,0,0,0,2.163-3.4h0a5.357,5.357,0,0,1,3.225-3.225,9.2,9.2,0,0,0,3.4-2.163c1.672-1.672,2.447-4.182,2.243-7.259ZM6.61,17.447A21.164,21.164,0,0,0,8.229,18.91a8.406,8.406,0,0,1-5.092,2.01,8.41,8.41,0,0,1,2.01-5.092A21.149,21.149,0,0,0,6.61,17.447Zm1-1A19.459,19.459,0,0,1,6.128,14.8a9.4,9.4,0,0,1,2.831-1.79A7.834,7.834,0,0,0,11.1,11.721l1.24,1.24A7.834,7.834,0,0,0,11.051,15.1a9.4,9.4,0,0,1-1.79,2.831A19.464,19.464,0,0,1,7.606,16.451Zm4.487-5.726a7.834,7.834,0,0,0,1.291-2.144A9.394,9.394,0,0,1,15.17,5.754,19.726,19.726,0,0,1,18.3,8.887a9.394,9.394,0,0,1-2.826,1.785,7.835,7.835,0,0,0-2.144,1.291Zm5.727-4.488A21.155,21.155,0,0,0,16.2,4.771a10.823,10.823,0,0,1,5.663-2.576,10.819,10.819,0,0,1-2.576,5.663A21.158,21.158,0,0,0,17.821,6.236Zm1.162-4.761A13.777,13.777,0,0,0,15.046,3.9,16.4,16.4,0,0,0,13.076,2.72a7.824,7.824,0,0,1,4.653-1.306c.431,0,.852.023,1.254.061Zm-7,2.286a14.047,14.047,0,0,1,2.047,1.157A10.792,10.792,0,0,0,12.074,8.06a6.42,6.42,0,0,1-.98,1.665L9.486,8.117A6.678,6.678,0,0,0,10.6,6.144,7.7,7.7,0,0,1,11.98,3.761ZM6.517,10.226A6.678,6.678,0,0,0,8.489,9.114L10.1,10.721a6.417,6.417,0,0,1-1.658.975,10.79,10.79,0,0,0-3.147,1.957,14.051,14.051,0,0,1-1.157-2.047,7.706,7.706,0,0,1,2.382-1.381ZM1.425,16.77a7.306,7.306,0,0,1,1.657-4.09,16.373,16.373,0,0,0,1.2,1.994,10.324,10.324,0,0,0-2.406,4.833,5.832,5.832,0,0,1-.447-2.737Zm5.421,5.875a5.764,5.764,0,0,1-2.294-.461,10.326,10.326,0,0,0,4.83-2.405,16.407,16.407,0,0,0,1.992,1.2,7.265,7.265,0,0,1-4.529,1.671Zm6.984-5.106a7.7,7.7,0,0,1-1.381,2.383A14.086,14.086,0,0,1,10.4,18.766a10.791,10.791,0,0,0,1.958-3.147,6.417,6.417,0,0,1,.975-1.658l1.607,1.607A6.679,6.679,0,0,0,13.831,17.54Zm4.082-4.082a6.678,6.678,0,0,0-1.973,1.112l-1.608-1.608A6.418,6.418,0,0,1,16,11.983a10.791,10.791,0,0,0,3.142-1.953A14.08,14.08,0,0,1,20.3,12.076a7.706,7.706,0,0,1-2.384,1.382Zm3.425-2.478a16.436,16.436,0,0,0-1.184-1.97,13.775,13.775,0,0,0,2.429-3.938A8.676,8.676,0,0,1,21.338,10.981Z" transform="translate(0.79 -0.171)"/>
    </g>
  </g>
</svg>
