<svg xmlns="http://www.w3.org/2000/svg" xmlns:xlink="http://www.w3.org/1999/xlink" width="42" height="43" viewBox="0 0 42 43">
  <defs>
    <clipPath id="clip-path">
      <rect id="Rect치ngulo_19516" data-name="Rect치ngulo 19516" width="26" height="24" rx="3" transform="translate(-0.498 0.098)" fill="#fff"/>
    </clipPath>
  </defs>
  <g id="Grupo_11352" data-name="Grupo 11352" transform="translate(0 0.46)">
    <rect id="Rect치ngulo_19514" data-name="Rect치ngulo 19514" width="42" height="43" rx="10" transform="translate(0 -0.46)" fill="#c3fcfd"/>
    <g id="Enmascarar_grupo_12" data-name="Enmascarar grupo 12" transform="translate(8.498 9.442)" clip-path="url(#clip-path)">
      <g id="sardines_1696285" transform="translate(1.044 0.153)">
        <path id="Trazado_47039" data-name="Trazado 47039" d="M7.776,7.095c3.9,0,8.126-1.846,9.681-2.595a5.763,5.763,0,0,0,4.814,2.595h1.823L22.745,5.869a3.159,3.159,0,0,1,0-4.642L24.094,0H22.271a5.8,5.8,0,0,0-4.812,2.638C15.9,1.875,11.678,0,7.776,0A9.519,9.519,0,0,0,.335,3.14L0,3.574l.339.431A9.573,9.573,0,0,0,7.776,7.095ZM20.319,3.542v.006a4.586,4.586,0,0,0,.387,1.844,4.357,4.357,0,0,1-2.168-1.821A4.438,4.438,0,0,1,20.7,1.715,4.588,4.588,0,0,0,20.319,3.542ZM8.006,5.682a4.934,4.934,0,0,0,.475-2.111A5.125,5.125,0,0,0,8,1.413a22.658,22.658,0,0,1,8.112,2.153A22.97,22.97,0,0,1,8.006,5.682ZM3.013,2.7A8.579,8.579,0,0,1,6.429,1.5a3.671,3.671,0,0,1,.643,2.073A3.522,3.522,0,0,1,6.429,5.6a8.679,8.679,0,0,1-3.42-1.184,7.441,7.441,0,0,1-1.14-.848A7.454,7.454,0,0,1,3.013,2.7Zm0,0" transform="translate(0)"/>
        <path id="Trazado_47040" data-name="Trazado 47040" d="M10.076,6.791h1.41V8.2h-1.41Zm0,0" transform="translate(-5.823 -3.925)"/>
        <path id="Trazado_47041" data-name="Trazado 47041" d="M10.076,46.869h1.41v1.41h-1.41Zm0,0" transform="translate(-5.823 -27.088)"/>
        <path id="Trazado_47042" data-name="Trazado 47042" d="M22.782,41.415l1.349-1.226H22.308a5.765,5.765,0,0,0-4.814,2.6c-1.554-.749-5.779-2.6-9.681-2.6A9.492,9.492,0,0,0,.4,43.281l-.333.429.329.431a9.439,9.439,0,0,0,7.42,3.143c3.9,0,8.126-1.875,9.682-2.638a5.8,5.8,0,0,0,4.812,2.638h1.823l-1.349-1.226a3.159,3.159,0,0,1,0-4.642Zm-20.856,2.3a8.313,8.313,0,0,1,4.541-2.032,3.523,3.523,0,0,1,.642,2.028,3.671,3.671,0,0,1-.643,2.073A8.255,8.255,0,0,1,1.926,43.717Zm6.11,2.154a5.125,5.125,0,0,0,.482-2.158A4.932,4.932,0,0,0,8.043,41.6a22.964,22.964,0,0,1,8.105,2.117A22.618,22.618,0,0,1,8.036,45.871Zm12.321-2.129a4.584,4.584,0,0,0,.382,1.827,4.437,4.437,0,0,1-2.163-1.856,4.355,4.355,0,0,1,2.168-1.821,4.586,4.586,0,0,0-.387,1.844Zm0,0" transform="translate(-0.037 -23.228)"/>
        <path id="Trazado_47043" data-name="Trazado 47043" d="M23.779,23.239a9.573,9.573,0,0,0-7.438-3.089c-3.9,0-8.126,1.846-9.68,2.595A5.764,5.764,0,0,0,1.846,20.15H.023l1.349,1.226a3.07,3.07,0,0,1,1.017,2.3,3.07,3.07,0,0,1-1.017,2.3L.023,27.2H1.846A5.766,5.766,0,0,0,6.66,24.6c1.554.749,5.779,2.595,9.68,2.595a9.574,9.574,0,0,0,7.438-3.089l.342-.435ZM3.414,25.493A4.515,4.515,0,0,0,3.8,23.674a4.515,4.515,0,0,0-.384-1.819,4.355,4.355,0,0,1,2.165,1.82A4.355,4.355,0,0,1,3.414,25.493Zm12.7.292a22.954,22.954,0,0,1-8.092-2.111,22.95,22.95,0,0,1,8.092-2.111,4.933,4.933,0,0,0,0,4.223Zm1.577-.083a3.521,3.521,0,0,1,0-4.055,8.409,8.409,0,0,1,4.555,2.028A8.4,8.4,0,0,1,17.688,25.7Zm0,0" transform="translate(-0.013 -11.646)"/>
        <path id="Trazado_47044" data-name="Trazado 47044" d="M43.7,26.83h1.41v1.41H43.7Zm0,0" transform="translate(-25.255 -15.507)"/>
      </g>
    </g>
  </g>
</svg>
