<svg xmlns="http://www.w3.org/2000/svg" xmlns:xlink="http://www.w3.org/1999/xlink" width="42" height="43" viewBox="0 0 42 43">
  <defs>
    <clipPath id="clip-path">
      <rect id="Rect치ngulo_19520" data-name="Rect치ngulo 19520" width="26" height="24" rx="3" transform="translate(-0.498 0.457)" fill="#fff"/>
    </clipPath>
  </defs>
  <g id="Grupo_11354" data-name="Grupo 11354" transform="translate(0 0.101)">
    <rect id="Rect치ngulo_19518" data-name="Rect치ngulo 19518" width="42" height="43" rx="10" transform="translate(0 -0.101)" fill="#c4a47b"/>
    <g id="Enmascarar_grupo_14" data-name="Enmascarar grupo 14" transform="translate(8.498 9.442)" clip-path="url(#clip-path)">
      <g id="soy-milk_1591144" transform="translate(1.843 -0.114)">
        <path id="Trazado_47045" data-name="Trazado 47045" d="M35.782,25.439l1,1-1,1-1-1Zm0,0" transform="translate(-20.105 -14.703)"/>
        <path id="Trazado_47046" data-name="Trazado 47046" d="M28.7,32.524l1,1-1,1-1-1Zm0,0" transform="translate(-16.01 -18.797)"/>
        <path id="Trazado_47047" data-name="Trazado 47047" d="M21.264,46.98h1.41v1.41h-1.41Zm0,0" transform="translate(-12.29 -27.153)"/>
        <path id="Trazado_47048" data-name="Trazado 47048" d="M31.283,46.98h1.41v1.41h-1.41Zm0,0" transform="translate(-18.08 -27.153)"/>
        <path id="Trazado_47049" data-name="Trazado 47049" d="M41.3,46.98h1.41v1.41H41.3Zm0,0" transform="translate(-23.871 -27.153)"/>
        <path id="Trazado_47050" data-name="Trazado 47050" d="M1.616,7.348A5.481,5.481,0,0,0,0,11.249V24.056H9.7a3.5,3.5,0,0,0,2.114-.717,3.474,3.474,0,0,0,4.229,0,3.5,3.5,0,0,0,4.935-.694l1.584-2.112L20.976,18.42a3.5,3.5,0,0,0-4.935-.694,3.53,3.53,0,0,0-.883-.49l.022-.021a3.5,3.5,0,0,0,.988-2,3.5,3.5,0,0,0,3-3.98l-.374-2.614-2.614-.374a3.522,3.522,0,0,0-2.993,1,3.454,3.454,0,0,0-.622.85A5.48,5.48,0,0,0,11.07,7.348a4.312,4.312,0,0,1-1.2-3V4.229h1.41V0H1.409V4.229h1.41V4.35A4.312,4.312,0,0,1,1.616,7.348Zm-.206,15.3V11.37H3.358a6,6,0,0,1,2.67.63,7.418,7.418,0,0,0,3.3.779H9.75a3.52,3.52,0,0,0-.542,1.455,3.5,3.5,0,0,0-3.029,3.283,3.563,3.563,0,0,0,.03.7l.132.921-1.048,1.4,1.586,2.114Zm14.1-3.5.531.607.531-.607a2.082,2.082,0,0,1,1.584-.731,2.113,2.113,0,0,1,1.693.848l.95,1.267-.95,1.267a2.113,2.113,0,0,1-1.693.848,2.082,2.082,0,0,1-1.584-.731l-.531-.607-.531.607a2.08,2.08,0,0,1-3.167,0l-.531-.607-.531.607a2.082,2.082,0,0,1-1.584.731A2.113,2.113,0,0,1,8,21.8l-.95-1.267L8,19.265A2.113,2.113,0,0,1,9.7,18.418a2.082,2.082,0,0,1,1.584.731l.531.607.531-.607a2.081,2.081,0,0,1,3.167,0Zm-2.68-6.524.8.054-.054-.8a2.081,2.081,0,0,1,.6-1.637,2.113,2.113,0,0,1,1.8-.6l1.567.224.224,1.568a2.112,2.112,0,0,1-.6,1.8,2.081,2.081,0,0,1-1.637.6l-.8-.054.054.8a2.08,2.08,0,0,1-2.24,2.24l-.8-.054.054.8c0,.048,0,.1,0,.146a3.5,3.5,0,0,0-4.216,0c0-.04,0-.079,0-.119A2.11,2.11,0,0,1,8.2,16.218a2.082,2.082,0,0,1,1.637-.6l.8.054-.054-.8a2.08,2.08,0,0,1,2.24-2.24ZM2.819,1.41H9.867v1.41H2.819Zm1.41,2.94V4.229H8.457V4.35a5.75,5.75,0,0,0,1.616,4,4.081,4.081,0,0,1,1.2,2.9v.121H9.328a6,6,0,0,1-2.67-.63,7.418,7.418,0,0,0-3.3-.779H1.616a4.088,4.088,0,0,1,1-1.616A5.75,5.75,0,0,0,4.229,4.35Zm0,0"/>
      </g>
    </g>
  </g>
</svg>
