<svg xmlns="http://www.w3.org/2000/svg" xmlns:xlink="http://www.w3.org/1999/xlink" width="42" height="42" viewBox="0 0 42 42">
  <defs>
    <clipPath id="clip-path">
      <rect id="Rect치ngulo_19515" data-name="Rect치ngulo 19515" width="26" height="25" rx="3" transform="translate(-0.498 -0.082)" fill="#fff"/>
    </clipPath>
  </defs>
  <g id="Grupo_11351" data-name="Grupo 11351" transform="translate(0 -0.36)">
    <rect id="Rect치ngulo_19513" data-name="Rect치ngulo 19513" width="42" height="42" rx="10" transform="translate(0 0.36)" fill="#fbdd91"/>
    <g id="Enmascarar_grupo_11" data-name="Enmascarar grupo 11" transform="translate(8.498 9.442)" clip-path="url(#clip-path)">
      <g id="eggs_438380" transform="translate(0.343 1.622)">
        <g id="Grupo_11336" data-name="Grupo 11336" transform="translate(0 0)">
          <path id="Trazado_47038" data-name="Trazado 47038" d="M22.883,10.966c-1.117-1.825-2.627-3.69-5.355-3.69a5.317,5.317,0,0,0-4.177,2.037c-.191-.394-.4-.776-.625-1.143C11.61,6.346,10.1,4.481,7.372,4.481S3.134,6.346,2.017,8.17A13.457,13.457,0,0,0,.08,16.476a6.879,6.879,0,0,0,3.064,5.15A8.039,8.039,0,0,0,7.372,22.8a8.363,8.363,0,0,0,3.67-.86A6.356,6.356,0,0,0,13.3,24.421a8.179,8.179,0,0,0,8.456,0,6.879,6.879,0,0,0,3.064-5.15A13.458,13.458,0,0,0,22.883,10.966ZM10.237,19.272a8.812,8.812,0,0,0,.268,1.306,6.8,6.8,0,0,1-3.132.766,6.676,6.676,0,0,1-3.446-.95,5.4,5.4,0,0,1-2.4-4.1A11.935,11.935,0,0,1,3.262,8.932c1.1-1.8,2.22-2.993,4.111-2.993s3.01,1.2,4.11,2.993a12.18,12.18,0,0,1,.877,1.736q-.095.149-.186.3A13.458,13.458,0,0,0,10.237,19.272Zm13.136-.186a5.4,5.4,0,0,1-2.4,4.1,6.723,6.723,0,0,1-6.891,0,5.4,5.4,0,0,1-2.4-4.1,11.935,11.935,0,0,1,1.734-7.357c1.1-1.8,2.22-2.993,4.111-2.993s3.01,1.2,4.11,2.993h0A11.935,11.935,0,0,1,23.373,19.085Z" transform="translate(0 -4.481)"/>
        </g>
      </g>
    </g>
  </g>
</svg>
