<svg xmlns="http://www.w3.org/2000/svg" xmlns:xlink="http://www.w3.org/1999/xlink" width="42" height="42" viewBox="0 0 42 42">
  <defs>
    <clipPath id="clip-path">
      <rect id="Rect치ngulo_19524" data-name="Rect치ngulo 19524" width="26" height="25" rx="3" transform="translate(-0.498 -0.183)" fill="#fff"/>
    </clipPath>
  </defs>
  <g id="Grupo_11356" data-name="Grupo 11356" transform="translate(0 -0.259)">
    <rect id="Rect치ngulo_19523" data-name="Rect치ngulo 19523" width="42" height="42" rx="10" transform="translate(0 0.259)" fill="#e7d5fc"/>
    <g id="Enmascarar_grupo_16" data-name="Enmascarar grupo 16" transform="translate(8.498 9.442)" clip-path="url(#clip-path)">
      <g id="nuts_930817" transform="translate(1.07 -0.17)">
        <g id="Grupo_11338" data-name="Grupo 11338" transform="translate(0 0)">
          <g id="Grupo_11337" data-name="Grupo 11337">
            <path id="Trazado_47053" data-name="Trazado 47053" d="M10.287,2.781a3.417,3.417,0,0,1,2-.622L12.264.75A4.73,4.73,0,0,0,9.287,1.779,9.309,9.309,0,0,0,5.871.2a4.685,4.685,0,0,0-4.513.868l-.27.27.079.374a7.628,7.628,0,0,0,.651,1.8A5.389,5.389,0,0,0,.01,6.807a7.134,7.134,0,0,0,1.229,3.73l.1.185.185.1a7.709,7.709,0,0,0,3.5,1.236q.116,0,.233-.008a5.39,5.39,0,0,0,3.3-1.808,7.628,7.628,0,0,0,1.8.651l.374.079.27-.27a4.685,4.685,0,0,0,.868-4.514A9.316,9.316,0,0,0,10.287,2.781Zm-7.909,6.9C1.2,7.482.919,6.62,2.56,4.784A17.558,17.558,0,0,0,4.693,7.367,17.553,17.553,0,0,0,7.276,9.5C5.441,11.142,4.578,10.862,2.379,9.681Zm7.86-.27A12.455,12.455,0,0,1,5.69,6.37h0A12.454,12.454,0,0,1,2.649,1.821a3.926,3.926,0,0,1,2.9-.251A7.361,7.361,0,0,1,8.822,3.239,7.362,7.362,0,0,1,10.49,6.508,3.925,3.925,0,0,1,10.239,9.411Z" transform="translate(-0.002 0)"/>
          </g>
        </g>
        <g id="Grupo_11340" data-name="Grupo 11340" transform="translate(12.332 0.078)">
          <g id="Grupo_11339" data-name="Grupo 11339">
            <path id="Trazado_47054" data-name="Trazado 47054" d="M40.2,6.225a3.359,3.359,0,0,0-2.286-1.113c-1.477-.124-2.033-1.279-2.623-2.5a6.894,6.894,0,0,0-1-1.664A2.173,2.173,0,0,0,32.309.208a3.661,3.661,0,0,0-2.371,1.53,4.553,4.553,0,0,0-.565,3.73A6.945,6.945,0,0,0,32.252,9.63a8.8,8.8,0,0,0,4.676,1.618c.093,0,.183.006.272.006,2.456,0,3.648-1.421,3.739-2.875A3.029,3.029,0,0,0,40.2,6.225Zm-.67,2.065c-.05.8-.745,1.623-2.546,1.549-2.546-.1-5.6-1.779-6.237-4.676a3.219,3.219,0,0,1,.343-2.617,2.3,2.3,0,0,1,1.4-.941c.613-.081.892.292,1.53,1.617.631,1.31,1.5,3.1,3.775,3.295A1.743,1.743,0,0,1,39.533,8.29Z" transform="translate(-29.222 -0.185)"/>
          </g>
        </g>
        <g id="Grupo_11342" data-name="Grupo 11342" transform="translate(16.915 5.816)">
          <g id="Grupo_11341" data-name="Grupo 11341">
            <path id="Trazado_47055" data-name="Trazado 47055" d="M41.142,13.781l-1.062.927a4.252,4.252,0,0,0,2.454,1.4l.17-1.4A2.869,2.869,0,0,1,41.142,13.781Z" transform="translate(-40.08 -13.781)"/>
          </g>
        </g>
        <g id="Grupo_11344" data-name="Grupo 11344" transform="translate(0.035 12.556)">
          <g id="Grupo_11343" data-name="Grupo 11343">
            <path id="Trazado_47056" data-name="Trazado 47056" d="M10.9,33.3c-1.812-3.106-6.525-3.459-6.724-3.473l-1.132-.077.665,1.608a5.319,5.319,0,0,0-1.635-.339l-.733-.014.014.733a5.32,5.32,0,0,0,.339,1.635L.084,32.708l.077,1.132c.014.2.367,4.913,3.473,6.724a5.124,5.124,0,0,0,2.628.686,9.262,9.262,0,0,0,3.95-1.038l.109-.052.174-.174.052-.109C11.8,37.264,11.918,35.051,10.9,33.3Zm-6.358.076.585,1.415L3.71,34.207a5.334,5.334,0,0,1-.8-1.629A5.335,5.335,0,0,1,4.539,33.377Zm4.84,5.67c-2.064.943-3.757,1.045-5.032.3-1.632-.949-2.321-3.085-2.6-4.429l4.836,2,.671-.666-2-4.841c1.342.278,3.474.964,4.428,2.6C10.424,35.287,10.323,36.98,9.38,39.047Z" transform="translate(-0.084 -29.751)"/>
          </g>
        </g>
        <g id="Grupo_11346" data-name="Grupo 11346" transform="translate(12.38 12.402)">
          <g id="Grupo_11345" data-name="Grupo 11345">
            <path id="Trazado_47057" data-name="Trazado 47057" d="M39.89,30.456a4.853,4.853,0,0,0-3.912-1.026A8.737,8.737,0,0,0,30.8,32.1a5.677,5.677,0,0,0-1.453,3.691,5.148,5.148,0,0,0,1.319,3.9,5.045,5.045,0,0,0,3.592,1.326q.151,0,.3-.007a5.677,5.677,0,0,0,3.691-1.453,8.737,8.737,0,0,0,2.667-5.182A4.853,4.853,0,0,0,39.89,30.456Zm-2.638,8.1a4.311,4.311,0,0,1-2.759,1.042,3.755,3.755,0,0,1-2.836-.907,3.754,3.754,0,0,1-.907-2.836,4.311,4.311,0,0,1,1.042-2.759c2.87-2.87,6.148-2.594,7.1-1.641S40.122,35.683,37.252,38.553Z" transform="translate(-29.335 -29.385)"/>
          </g>
        </g>
        <g id="Grupo_11348" data-name="Grupo 11348" transform="translate(15.49 15.359)">
          <g id="Grupo_11347" data-name="Grupo 11347">
            <path id="Trazado_47058" data-name="Trazado 47058" d="M41.43,36.463a5.144,5.144,0,0,0-2,.686,5.3,5.3,0,0,0-2.539,3.8l-.181,1,1-.181a5.3,5.3,0,0,0,3.8-2.539,5.147,5.147,0,0,0,.686-2l.071-.832Zm-2.784,3.545a3.724,3.724,0,0,1,1.817-1.817A3.723,3.723,0,0,1,38.647,40.008Z" transform="translate(-36.706 -36.392)"/>
          </g>
        </g>
      </g>
    </g>
  </g>
</svg>
