<svg xmlns="http://www.w3.org/2000/svg" width="28" height="28" viewBox="0 0 28 28">
  <g id="Grupo_11431" data-name="Grupo 11431" transform="translate(-363 -194)">
    <rect id="Rect치ngulo_19540" data-name="Rect치ngulo 19540" width="28" height="28" rx="14" transform="translate(363 194)" fill="#141411"/>
    <path id="Uni칩n_3" data-name="Uni칩n 3" d="M3.967,9.039.369,5.558a1.188,1.188,0,0,1,0-1.721,1.268,1.268,0,0,1,.889-.357,1.269,1.269,0,0,1,.89.357l2.708,2.62,6.307-6.1a1.285,1.285,0,0,1,1.778,0,1.19,1.19,0,0,1,0,1.721l-7.2,6.961a1.288,1.288,0,0,1-1.779,0Z" transform="translate(369.969 203)" fill="#fff"/>
  </g>
</svg>
