<svg xmlns="http://www.w3.org/2000/svg" xmlns:xlink="http://www.w3.org/1999/xlink" width="42" height="42" viewBox="0 0 42 42">
  <defs>
    <clipPath id="clip-path">
      <rect id="Rect치ngulo_19512" data-name="Rect치ngulo 19512" width="26" height="25" rx="3" transform="translate(-0.498 -0.262)" fill="#fff"/>
    </clipPath>
  </defs>
  <g id="Grupo_11350" data-name="Grupo 11350" transform="translate(0 -0.18)">
    <rect id="Rect치ngulo_19511" data-name="Rect치ngulo 19511" width="42" height="42" rx="10" transform="translate(0 0.18)" fill="#f4a9aa"/>
    <g id="Enmascarar_grupo_10" data-name="Enmascarar grupo 10" transform="translate(8.498 9.442)" clip-path="url(#clip-path)">
      <g id="shrimp_5650643" transform="translate(1.449 0.153)">
        <path id="Trazado_47036" data-name="Trazado 47036" d="M17.989,9.906h1.245a4.953,4.953,0,0,0,0-9.906H5.791V1.415H19.234a3.538,3.538,0,0,1,0,7.075H18.9a9.786,9.786,0,0,0,1.04-4.953H10.39a9.552,9.552,0,1,0,0,19.1h6.136a2.126,2.126,0,0,0,2,1.415h2.123V21.934a2.114,2.114,0,0,0-.542-1.415,2.114,2.114,0,0,0,.542-1.415V16.981H18.527a2.126,2.126,0,0,0-2,1.415H10.39a2.476,2.476,0,1,1,0-4.953,9.3,9.3,0,0,0,4.835-1.168l.472,1.293v1.29h1.415v-1.54l-.676-1.853a9.279,9.279,0,0,0,1.553-1.56Zm-5.123,1.828V4.953h5.628A7.8,7.8,0,0,1,12.866,11.733Zm-6.22,3.125h-4.2A8.144,8.144,0,0,1,2.7,10.42l4.452,3.339a3.875,3.875,0,0,0-.509,1.1ZM2.9,16.273H6.515a3.86,3.86,0,0,0,.406,1.407L5.228,19.374a8.179,8.179,0,0,1-2.325-3.1Zm16.332,6.368h-.708a.708.708,0,0,1-.708-.708v-.708h.708a.708.708,0,0,1,.708.708ZM18.527,18.4h.708V19.1a.708.708,0,0,1-.708.708h-.708V19.1A.708.708,0,0,1,18.527,18.4ZM16.4,21.226H11.451V19.811H16.4Zm-6.368-1.432v1.424a8.08,8.08,0,0,1-3.621-1.031L7.79,18.812A3.877,3.877,0,0,0,10.036,19.794ZM8.153,12.738,3.3,9.1a8.2,8.2,0,0,1,3.15-3.128l2.619,6.287A3.882,3.882,0,0,0,8.153,12.738Zm2.355-.71L7.744,5.395a8.1,8.1,0,0,1,2.646-.442h1.061V12A9.4,9.4,0,0,1,10.508,12.028Z" transform="translate(-0.838)"/>
        <path id="Trazado_47037" data-name="Trazado 47037" d="M32.691,15.088h1.415V16.5H32.691Z" transform="translate(-19.248 -8.72)"/>
      </g>
    </g>
  </g>
</svg>
