<svg xmlns="http://www.w3.org/2000/svg" width="17.98" height="20.002" viewBox="0 0 17.98 20.002">
  <path id="inicio" d="M22.981,9.968h0L16.987,4.714a2.994,2.994,0,0,0-4,0L7,9.968a3,3,0,0,0-1,2.257v8.73a3,3,0,0,0,3,3H20.983a3,3,0,0,0,3-3v-8.74A2.987,2.987,0,0,0,22.981,9.968ZM16.987,21.954h-4V16.96a1,1,0,0,1,1-1h2a1,1,0,0,1,1,1Zm4.994-1a1,1,0,0,1-1,1h-2V16.96a3,3,0,0,0-3-3h-2a3,3,0,0,0-3,3v4.994H9a1,1,0,0,1-1-1v-8.74a1,1,0,0,1,.34-.749L14.33,6.222a1,1,0,0,1,1.318,0l5.993,5.244a1,1,0,0,1,.34.749Z" transform="translate(-6 -3.95)" fill="#88895e"/>
</svg>
