<svg id="lock_2" data-name="lock 2" xmlns="http://www.w3.org/2000/svg" width="13.67" height="13.67" viewBox="0 0 13.67 13.67">
  <path id="Trazado_46969" data-name="Trazado 46969" d="M7.709,5.987v-.57a3.417,3.417,0,0,1,6.835,0v.57h1.139a.571.571,0,0,1,.57.57v6.835a.571.571,0,0,1-.57.57H6.57a.571.571,0,0,1-.57-.57V6.557a.571.571,0,0,1,.57-.57Zm7.4,1.139H7.139v5.7h7.974ZM10.557,10.39a1.138,1.138,0,1,1,1.139,0v1.293H10.557Zm-1.709-4.4H13.4v-.57a2.278,2.278,0,0,0-4.557,0Z" transform="translate(-4.291 -1.43)"/>
  <path id="Trazado_46970" data-name="Trazado 46970" d="M0,0H13.67V13.67H0Z" fill="none"/>
</svg>
