<svg xmlns="http://www.w3.org/2000/svg" width="33.594" height="33.594" viewBox="0 0 33.594 33.594">
  <g id="natural_6588842" transform="translate(0)">
    <path id="XMLID_644_" d="M152.964,180H150v.988a2.968,2.968,0,0,0,2.964,2.964h2.964v-.988A2.968,2.968,0,0,0,152.964,180Z" transform="translate(-140.119 -168.143)"/>
    <path id="XMLID_643_" d="M270,227.964v.988h2.964a2.967,2.967,0,0,0,2.964-2.964V225h-2.964A2.968,2.968,0,0,0,270,227.964Z" transform="translate(-252.215 -210.179)"/>
    <path id="Trazado_47012" data-name="Trazado 47012" d="M31.777,12.783,31.346,8.4,27.761,5.833,25.2,2.248l-4.386-.431L16.8,0,12.783,1.817,8.4,2.248,5.833,5.833,2.248,8.4l-.431,4.386L0,16.8l1.817,4.014L2.248,25.2l3.585,2.564L8.4,31.346l4.386.431L16.8,33.594l4.014-1.817,4.386-.431,2.564-3.585L31.346,25.2l.431-4.386L33.594,16.8ZM25.69,15.809a4.946,4.946,0,0,1-4.94,4.94H17.785v4.94H15.809v-7.9H12.845a4.946,4.946,0,0,1-4.94-4.94V9.881h4.94a4.912,4.912,0,0,1,2.964.991V7.9h1.976v5.933a4.912,4.912,0,0,1,2.964-.993h4.94Z" transform="translate(0 0)"/>
  </g>
</svg>
