<svg xmlns="http://www.w3.org/2000/svg" width="14.571" height="14.584" viewBox="0 0 14.571 14.584">
  <g id="noodles_7735908" transform="translate(-0.239)">
    <path id="Trazado_47079" data-name="Trazado 47079" d="M158.813,361.957h-3.07a.427.427,0,0,0-.427.427v1.455a.427.427,0,0,0,.427.427h3.07a.427.427,0,0,0,.427-.427v-1.455A.427.427,0,0,0,158.813,361.957Zm-.427,1.455h-2.215v-.6h2.215Z" transform="translate(-150.66 -351.647)"/>
    <path id="Trazado_47080" data-name="Trazado 47080" d="M14.382,1.835h-4.1V.855h4.1a.427.427,0,1,0,0-.855H1.587a.427.427,0,0,0,0,.855H2.926v.98H1.587a.427.427,0,0,0,0,.855H2.926V5.533H2.214a.43.43,0,0,0-.356.191L.31,8.049a.427.427,0,0,0,.711.473l.915-1.374.91,7.063a.427.427,0,0,0,.424.373H10.03a.427.427,0,0,0,.424-.376l.852-7.035.882,1.347a.427.427,0,0,0,.715-.468L11.379,5.726a.431.431,0,0,0-.357-.193h-.737V2.69h4.1a.427.427,0,0,0,0-.855ZM8.659.855H9.43V5.533H8.659Zm-1.626,0H7.8V5.533H7.033Zm-1.626,0h.772V5.533H5.407Zm-1.626,0h.772V5.533H3.781ZM9.927,6.387l-1.8,1.657H5.141L3.319,6.387Zm.532.672-.807,6.67h-6l-.86-6.671,1.9,1.73a.427.427,0,0,0,.287.111H8.293a.427.427,0,0,0,.289-.113Z" transform="translate(0)"/>
  </g>
</svg>
