<svg xmlns="http://www.w3.org/2000/svg" width="31.755" height="30.294" viewBox="0 0 31.755 30.294">
  <g id="noodles_679198" transform="translate(0.201 -10.99)">
    <g id="Grupo_11298" data-name="Grupo 11298" transform="translate(15.196 25.913)">
      <g id="Grupo_11297" data-name="Grupo 11297">
        <path id="Trazado_46992" data-name="Trazado 46992" d="M248.675,251.25q-.243,0-.481.018a15.721,15.721,0,0,1,.7,1.836,4.691,4.691,0,0,1,4.373,3.753h1.874A6.54,6.54,0,0,0,248.675,251.25Z" transform="translate(-248.194 -251.25)"/>
      </g>
    </g>
    <g id="Grupo_11300" data-name="Grupo 11300" transform="translate(16.359 29.693)">
      <g id="Grupo_11299" data-name="Grupo 11299" transform="translate(0 0)">
        <path id="Trazado_46993" data-name="Trazado 46993" d="M267.082,312.608a15.832,15.832,0,0,1,.214,1.826h1.782A2.845,2.845,0,0,0,267.082,312.608Z" transform="translate(-267.082 -312.608)"/>
      </g>
    </g>
    <g id="Grupo_11302" data-name="Grupo 11302" transform="translate(10.102 18.52)">
      <g id="Grupo_11301" data-name="Grupo 11301">
        <path id="Trazado_46994" data-name="Trazado 46994" d="M171.092,131.25a13.843,13.843,0,0,0-5.574,1.166,15.862,15.862,0,0,1,1.616,1.349,12.075,12.075,0,0,1,16,10.484h1.852A13.94,13.94,0,0,0,171.092,131.25Z" transform="translate(-165.518 -131.25)"/>
      </g>
    </g>
    <g id="Grupo_11304" data-name="Grupo 11304" transform="translate(13.107 22.217)">
      <g id="Grupo_11303" data-name="Grupo 11303" transform="translate(0 0)">
        <path id="Trazado_46995" data-name="Trazado 46995" d="M216.851,191.25a10.208,10.208,0,0,0-2.57.327,15.8,15.8,0,0,1,1.16,1.64,8.38,8.38,0,0,1,9.737,7.335h1.857A10.24,10.24,0,0,0,216.851,191.25Z" transform="translate(-214.281 -191.25)"/>
      </g>
    </g>
    <g id="Grupo_11306" data-name="Grupo 11306" transform="translate(2.463 26.343)">
      <g id="Grupo_11305" data-name="Grupo 11305" transform="translate(0 0)">
        <path id="Trazado_46996" data-name="Trazado 46996" d="M42.211,258.23a13.829,13.829,0,0,0-.7,1.712,4.7,4.7,0,0,1,2.956,3.464h1.875A6.527,6.527,0,0,0,42.211,258.23Z" transform="translate(-41.51 -258.23)"/>
      </g>
    </g>
    <g id="Grupo_11308" data-name="Grupo 11308" transform="translate(6.643 20.666)">
      <g id="Grupo_11307" data-name="Grupo 11307">
        <path id="Trazado_46997" data-name="Trazado 46997" d="M110.977,166.087a14,14,0,0,0-1.615,1.192,12.079,12.079,0,0,1,6.227,9.661h1.852A13.986,13.986,0,0,0,110.977,166.087Z" transform="translate(-109.362 -166.087)"/>
      </g>
    </g>
    <g id="Grupo_11310" data-name="Grupo 11310" transform="translate(4.095 23.222)">
      <g id="Grupo_11309" data-name="Grupo 11309" transform="translate(0 0)">
        <path id="Trazado_46998" data-name="Trazado 46998" d="M69.166,207.563a14.013,14.013,0,0,0-1.16,1.5,8.378,8.378,0,0,1,5.062,6.795h1.858A10.178,10.178,0,0,0,69.166,207.563Z" transform="translate(-68.006 -207.563)"/>
      </g>
    </g>
    <g id="Grupo_11312" data-name="Grupo 11312" transform="translate(1.785 29.861)">
      <g id="Grupo_11311" data-name="Grupo 11311">
        <path id="Trazado_46999" data-name="Trazado 46999" d="M30.72,315.331a13.889,13.889,0,0,0-.21,1.658h1.723A2.845,2.845,0,0,0,30.72,315.331Z" transform="translate(-30.51 -315.331)"/>
      </g>
    </g>
    <g id="Grupo_11314" data-name="Grupo 11314" transform="translate(-0.067 33.367)">
      <g id="Grupo_11313" data-name="Grupo 11313" transform="translate(0 0)">
        <path id="Trazado_47000" data-name="Trazado 47000" d="M.444,372.25a15.709,15.709,0,0,0,2.4,7.486l.272.431H29.259l.272-.431a15.709,15.709,0,0,0,2.4-7.486Z" transform="translate(-0.444 -372.25)"/>
      </g>
    </g>
    <g id="Grupo_11316" data-name="Grupo 11316" transform="translate(-0.201 14.694)">
      <g id="Grupo_11315" data-name="Grupo 11315" transform="translate(0 0)">
        <rect id="Rect치ngulo_19487" data-name="Rect치ngulo 19487" width="31.755" height="2.117"/>
      </g>
    </g>
    <g id="Grupo_11318" data-name="Grupo 11318" transform="translate(-0.201 10.99)">
      <g id="Grupo_11317" data-name="Grupo 11317" transform="translate(0 0)">
        <rect id="Rect치ngulo_19488" data-name="Rect치ngulo 19488" width="31.755" height="2.117"/>
      </g>
    </g>
  </g>
</svg>
