<svg xmlns="http://www.w3.org/2000/svg" width="12.261" height="12.261" viewBox="0 0 12.261 12.261">
  <path id="Trazado_47121" data-name="Trazado 47121" d="M14.856,15.537v-.681H12.812V12.812h2.044v1.362h1.362v1.362h-.681V16.9H14.174v1.362H12.812V16.218h1.362v-.681Zm3.406,2.725H15.537V16.9H16.9V15.537h1.362ZM6,6h5.45v5.45H6ZM7.362,7.362v2.725h2.725V7.362ZM12.812,6h5.45v5.45h-5.45Zm1.362,1.362v2.725H16.9V7.362ZM6,12.812h5.45v5.45H6Zm1.362,1.362V16.9h2.725V14.174Zm8.856-1.362h2.044v1.362H16.218ZM8.044,8.044H9.406V9.406H8.044Zm0,6.812H9.406v1.362H8.044Zm6.812-6.812h1.362V9.406H14.856Z" transform="translate(-6 -6)"/>
</svg>
