<svg id="ramen_11572631" xmlns="http://www.w3.org/2000/svg" width="12.651" height="12.382" viewBox="0 0 12.651 12.382">
  <path id="Trazado_46943" data-name="Trazado 46943" d="M6.25,19.385A1.135,1.135,0,0,1,7.385,18.25h5.19a1.135,1.135,0,1,1,0,2.271H7.385A1.135,1.135,0,0,1,6.25,19.385Zm1.135-.162a.162.162,0,1,0,0,.324h5.19a.162.162,0,1,0,0-.324Z" transform="translate(-3.655 -8.139)" fill-rule="evenodd"/>
  <path id="Trazado_46944" data-name="Trazado 46944" d="M2.25,10.677A1.788,1.788,0,0,1,4.038,8.89h9.075A1.788,1.788,0,0,1,14.9,10.677a5.258,5.258,0,0,1-5.258,5.258H7.508A5.258,5.258,0,0,1,2.25,10.677Zm1.788-.815a.815.815,0,0,0-.815.815,4.285,4.285,0,0,0,4.285,4.285H9.643a4.285,4.285,0,0,0,4.285-4.285.815.815,0,0,0-.815-.815Z" transform="translate(-2.25 -4.851)" fill-rule="evenodd"/>
  <path id="Trazado_46945" data-name="Trazado 46945" d="M7.529,3.6A2.787,2.787,0,0,0,4.742,6.391a2.821,2.821,0,0,0,.019.328H10.3a2.827,2.827,0,0,0,.019-.328A2.787,2.787,0,0,0,7.529,3.6ZM3.8,6.391a3.727,3.727,0,1,1,7.342.913l-.09.355H4L3.915,7.3A3.734,3.734,0,0,1,3.8,6.391Z" transform="translate(-2.795 -2.664)" fill-rule="evenodd"/>
  <path id="Trazado_46946" data-name="Trazado 46946" d="M8.411,6.115A1.159,1.159,0,0,0,7.3,7.6H9.522A1.16,1.16,0,0,0,8.411,6.115Zm-2.1,1.158A2.1,2.1,0,1,1,10.241,8.3l-.135.24H6.716L6.581,8.3A2.091,2.091,0,0,1,6.312,7.273Z" transform="translate(-3.677 -3.546)" fill-rule="evenodd"/>
  <path id="Trazado_46947" data-name="Trazado 46947" d="M19.223,5.375a.487.487,0,0,1-.15.672L15.518,8.3A.487.487,0,1,1,15,7.481l3.554-2.256a.487.487,0,0,1,.672.15Z" transform="translate(-6.648 -3.537)" fill-rule="evenodd"/>
  <path id="Trazado_46948" data-name="Trazado 46948" d="M17.385,3.755a.487.487,0,0,1,.1.681L15.152,7.528a.487.487,0,0,1-.777-.585L16.7,3.851a.487.487,0,0,1,.681-.1Z" transform="translate(-6.475 -3.013)" fill-rule="evenodd"/>
  <path id="Trazado_46949" data-name="Trazado 46949" d="M2.307,11.761a.487.487,0,0,1,.487-.487H14.382a.487.487,0,0,1,0,.973H2.793a.487.487,0,0,1-.487-.487Z" transform="translate(-2.27 -5.689)" fill-rule="evenodd"/>
</svg>
