<svg xmlns="http://www.w3.org/2000/svg" width="15.405" height="15.403" viewBox="0 0 15.405 15.403">
  <path id="restaurant-table_16140846" d="M9.7,2a.578.578,0,0,1,.578.578V3.5l1.729,1.787a.963.963,0,0,1-.692,1.632H8.085a.963.963,0,0,1-.692-1.632L9.123,3.5V2.581A.578.578,0,0,1,9.7,2Zm0,2.557L8.54,5.76h2.322ZM2.577,7.2a.578.578,0,0,1,.578.578v4.077H5.468A1.348,1.348,0,0,1,6.816,13.2V16.83a.578.578,0,0,1-1.155,0V14.9H3.155v1.93A.578.578,0,0,1,2,16.83V7.776A.578.578,0,0,1,2.577,7.2Zm.578,6.546H5.661V13.2a.193.193,0,0,0-.193-.193H3.155ZM16.827,7.2a.578.578,0,0,1,.578.578V16.83a.578.578,0,0,1-1.155,0V14.9H13.744v1.93a.578.578,0,0,1-1.155,0V13.2a1.348,1.348,0,0,1,1.348-1.348h2.313V7.776A.578.578,0,0,1,16.827,7.2Zm-.578,5.81H13.936a.192.192,0,0,0-.193.193v.544h2.506ZM7.764,9.488H6.009a.578.578,0,1,0,0,1.155H7.44L9.123,13.6v2.65H8.161a.578.578,0,0,0,0,1.155h3.08a.578.578,0,1,0,0-1.155h-.963V13.6l1.683-2.955h1.431a.578.578,0,1,0,0-1.155H7.764Zm2.868,1.155H8.769L9.7,12.278Z" transform="translate(-2 -2.004)" fill-rule="evenodd"/>
</svg>
