<svg xmlns="http://www.w3.org/2000/svg" width="38.39" height="38.403" viewBox="0 0 38.39 38.403">
  <path id="reverse" d="M19.39,38.4H14.4a4.814,4.814,0,0,1-4.8-4.8V14.4a4.814,4.814,0,0,1,4.8-4.8H33.6a4.814,4.814,0,0,1,4.8,4.8v4.99a6.079,6.079,0,0,1,2.4,1.22V14.4a7.2,7.2,0,0,0-7.2-7.2H14.4a7.2,7.2,0,0,0-7.2,7.2V33.6a7.2,7.2,0,0,0,7.2,7.2h6.22A5.97,5.97,0,0,1,19.39,38.4Zm3.26,1.12a3.69,3.69,0,0,1-.78-1.17,3.61,3.61,0,0,1-.27-1.38,3.539,3.539,0,0,1,1.05-2.54L34.41,22.67a3.719,3.719,0,0,1,1.17-.79,3.662,3.662,0,0,1,2.76,0,3.719,3.719,0,0,1,1.17.79l5.02,5.04a3.5,3.5,0,0,1,1.06,2.54,3.61,3.61,0,0,1-.27,1.38,3.719,3.719,0,0,1-.79,1.17L34.12,43.2h6.07a1.212,1.212,0,0,1,.85.35,1.207,1.207,0,0,1,0,1.7,1.212,1.212,0,0,1-.85.35H30.37a3.6,3.6,0,0,1-1.45-.24,3.555,3.555,0,0,1-1.24-.81ZM36.12,24.35l-8.64,8.64,6.72,6.72,8.64-8.64a1.16,1.16,0,0,0,.26-.39,1.179,1.179,0,0,0,.09-.46,1.254,1.254,0,0,0-.09-.46,1.4,1.4,0,0,0-.26-.39l-5.03-5.02a1.164,1.164,0,0,0-.84-.35A1.23,1.23,0,0,0,36.12,24.35Zm-3.6,17.06L25.8,34.69l-1.44,1.44a1.268,1.268,0,0,0-.26.39,1.216,1.216,0,0,0-.09.46,1.179,1.179,0,0,0,.09.46,1.16,1.16,0,0,0,.26.39l5.03,5.03a1.16,1.16,0,0,0,.39.26,1.221,1.221,0,0,0,.92,0,1.16,1.16,0,0,0,.39-.26Z" transform="translate(-7.2 -7.2)"/>
</svg>
