<svg xmlns="http://www.w3.org/2000/svg" width="42" height="30.5" viewBox="0 0 42 30.5">
  <path id="rotate" d="M9.318,30.5a1.5,1.5,0,1,1,0-3H30.56A8.546,8.546,0,0,0,39,18.87V17.63A8.546,8.546,0,0,0,30.56,9H5.122l3.439,3.439A1.5,1.5,0,0,1,6.44,14.561l-6-6a1.5,1.5,0,0,1,0-2.121l6-6A1.5,1.5,0,0,1,8.561,2.561L5.121,6H30.56a11.25,11.25,0,0,1,8.11,3.452,11.656,11.656,0,0,1,3.29,7.2A1.5,1.5,0,0,1,42,17v2.5a1.5,1.5,0,0,1-.04.346,11.652,11.652,0,0,1-3.29,7.2A11.247,11.247,0,0,1,30.56,30.5Z" transform="translate(0 0)" />
</svg>
