<svg id="salad_7636637" xmlns="http://www.w3.org/2000/svg" width="30.588" height="30.587" viewBox="0 0 30.588 30.587">
  <path id="Trazado_47004" data-name="Trazado 47004" d="M181.179,8.345a4.794,4.794,0,0,1,2.866.533V5h1.792V8.609a4.787,4.787,0,0,1,1.676-.3,4.839,4.839,0,0,1,1.161.14,2.457,2.457,0,0,1,.391-.847,2.1,2.1,0,0,0-.757-3.092,2.342,2.342,0,0,1-1.273-2.257c0-.05.005-.1.005-.15a2.1,2.1,0,1,0-4.2,0c0,.05,0,.1.005.149a2.342,2.342,0,0,1-1.273,2.257,2.1,2.1,0,0,0-.757,3.092A2.45,2.45,0,0,1,181.179,8.345Z" transform="translate(-169.647 -0.004)"/>
  <circle id="Elipse_570" data-name="Elipse 570" cx="1.119" cy="1.119" r="1.119" transform="translate(24.319 11.995)"/>
  <path id="Trazado_47005" data-name="Trazado 47005" d="M363.151,30.364a6.925,6.925,0,0,1,5.123,2.262,2.21,2.21,0,0,0-.569-1.167,2.4,2.4,0,0,1-.434-2.616c.021-.048.041-.1.059-.146a2.211,2.211,0,0,0-4.156-1.513c-.018.049-.034.1-.049.15a2.4,2.4,0,0,1-2.014,1.724,2.2,2.2,0,0,0-1.8,1.4c0,.035,0,.07,0,.1a3.9,3.9,0,0,1-.144,1.054,6.9,6.9,0,0,1,3.981-1.258Z" transform="translate(-337.712 -24.191)"/>
  <path id="Trazado_47006" data-name="Trazado 47006" d="M342.134,139.757a2.911,2.911,0,1,1,5.225,0h2.375a5.15,5.15,0,1,0-9.975,0Z" transform="translate(-319.309 -125.359)"/>
  <path id="Trazado_47007" data-name="Trazado 47007" d="M251.542,169a3.02,3.02,0,0,0-2.733,4.3h3.484a6.92,6.92,0,0,1,.456-4.051A3,3,0,0,0,251.542,169Z" transform="translate(-233.676 -158.904)"/>
  <path id="Trazado_47008" data-name="Trazado 47008" d="M.924,274.058h29.56A15.315,15.315,0,0,0,30.972,271H.436a15.319,15.319,0,0,0,.488,3.058Z" transform="translate(-0.41 -254.81)"/>
  <path id="Trazado_47009" data-name="Trazado 47009" d="M152.665,173.3h3.84a4.809,4.809,0,0,1,.546-3.81,3.02,3.02,0,0,0-4.385,3.81Z" transform="translate(-143.276 -158.903)"/>
  <path id="Trazado_47010" data-name="Trazado 47010" d="M22,357.261a15.309,15.309,0,0,0,25-5.068H18.635A15.265,15.265,0,0,0,22,357.261Z" transform="translate(-17.522 -331.152)"/>
  <path id="Trazado_47011" data-name="Trazado 47011" d="M.962,34.809a2.434,2.434,0,0,1,.99,2.684A2.18,2.18,0,0,0,1.922,38.6H5.972L3.458,31.7l1.684-.613,2.176,5.979A4.817,4.817,0,0,1,9.823,33.1a.663.663,0,0,0-.109-.248,3.864,3.864,0,0,1-.727-2.265c0-.035,0-.07,0-.1a2.2,2.2,0,0,0-1.8-1.4A2.4,2.4,0,0,1,5.177,27.35c-.014-.05-.031-.1-.049-.15A2.212,2.212,0,0,0,.972,28.713c.018.049.038.1.059.146A2.4,2.4,0,0,1,.6,31.475a2.212,2.212,0,0,0,.365,3.335Z" transform="translate(0 -24.207)"/>
</svg>
