<svg xmlns="http://www.w3.org/2000/svg" width="12.863" height="10.676" viewBox="0 0 12.863 10.676">
  <path id="delivery-scooter_16331046" d="M2,4.182A.482.482,0,0,1,2.483,3.7H5.32a.482.482,0,1,1,0,.965H2.483A.482.482,0,0,1,2,4.182Zm7.975.033a.482.482,0,0,1,.482-.482h.719a1.125,1.125,0,0,1,1.107.923l.044.243a1.57,1.57,0,0,1,.909-.288h.882a.482.482,0,0,1,.482.482V7.282a.482.482,0,0,1-.482.482h-.882a1.58,1.58,0,0,1-.394-.05l.15.821a3.588,3.588,0,0,1,.99.218.482.482,0,1,1-.338.9,2.642,2.642,0,0,0-3.44,1.669,1.733,1.733,0,0,1-1.571,1.285H6.91a1.954,1.954,0,0,1-3.9-.17A1.769,1.769,0,0,1,2,10.844v-.379A3.055,3.055,0,0,1,5.055,7.409H6.827A1.126,1.126,0,0,1,7.953,8.535v3.113h.681a.781.781,0,0,0,.652-.614,3.609,3.609,0,0,1,2.737-2.44L11.335,4.83a.161.161,0,0,0-.158-.132h-.719a.482.482,0,0,1-.482-.482ZM6.988,11.648V8.535a.161.161,0,0,0-.161-.161H5.055a2.09,2.09,0,0,0-2.09,2.09v.379a.8.8,0,0,0,.8.8Zm-2.994.965a.99.99,0,0,0,1.942,0Zm9.243-7.037a.612.612,0,1,0,0,1.224h.4V5.576ZM3.29,6.051a.482.482,0,0,1,.482-.482H5.32a.482.482,0,0,1,0,.965H3.772A.482.482,0,0,1,3.29,6.051Zm9.619,5.382a.989.989,0,1,0,.989.989A.989.989,0,0,0,12.909,11.433Zm-1.954.989a1.954,1.954,0,1,1,1.954,1.954A1.954,1.954,0,0,1,10.955,12.422Z" transform="translate(-2 -3.7)" fill-rule="evenodd"/>
</svg>
