<svg id="settings_3" data-name="settings 3" xmlns="http://www.w3.org/2000/svg" width="14.757" height="14.757" viewBox="0 0 14.757 14.757">
  <path id="Trazado_46960" data-name="Trazado 46960" d="M5.323,13.219a6.215,6.215,0,0,1-.6-1.43,1.847,1.847,0,0,0,0-3.29A6.113,6.113,0,0,1,6.26,5.834,1.843,1.843,0,0,0,9.107,4.189a6.115,6.115,0,0,1,3.081,0,1.843,1.843,0,0,0,2.847,1.642,6.059,6.059,0,0,1,.938,1.236,6.207,6.207,0,0,1,.6,1.43,1.847,1.847,0,0,0,0,3.29,6.113,6.113,0,0,1-1.537,2.665A1.843,1.843,0,0,0,12.188,16.1a6.115,6.115,0,0,1-3.081,0A1.843,1.843,0,0,0,6.26,14.455,6.208,6.208,0,0,1,5.323,13.219Zm3.48.12a3.075,3.075,0,0,1,1.383,1.7,4.623,4.623,0,0,0,.922,0,3.075,3.075,0,0,1,3.551-2.051,4.879,4.879,0,0,0,.461-.8,3.074,3.074,0,0,1,0-4.1,5.113,5.113,0,0,0-.461-.8,3.075,3.075,0,0,1-3.551-2.051,4.623,4.623,0,0,0-.922,0A3.075,3.075,0,0,1,6.635,7.3a4.879,4.879,0,0,0-.461.8,3.074,3.074,0,0,1,0,4.1,5.113,5.113,0,0,0,.461.8A3.082,3.082,0,0,1,8.8,13.339Zm1.845-1.35a1.845,1.845,0,1,1,1.845-1.845A1.846,1.846,0,0,1,10.647,11.989Zm0-1.23a.615.615,0,1,0-.615-.615A.617.617,0,0,0,10.647,10.759Z" transform="translate(-3.269 -2.766)"/>
  <path id="Trazado_46961" data-name="Trazado 46961" d="M0,0H14.757V14.757H0Z" fill="none"/>
</svg>
