<svg xmlns="http://www.w3.org/2000/svg" width="22.005" height="20.002" viewBox="0 0 22.005 20.002">
  <path id="Trazado_46919" data-name="Trazado 46919" d="M22,15.241V22h1v2H3V22H4V15.241A4.5,4.5,0,0,1,2.635,9.2l2.71-4.7A1,1,0,0,1,6.21,4H19.792a1,1,0,0,1,.865.5l2.705,4.68A4.5,4.5,0,0,1,22,15.241Zm-2,.73a4.48,4.48,0,0,1-3.75-1.36,4.5,4.5,0,0,1-6.5.005A4.51,4.51,0,0,1,6,15.976V22H20V15.976ZM6.791,6,4.355,10.216a2.5,2.5,0,0,0,4.466,2.215,1,1,0,0,1,1.86,0,2.5,2.5,0,0,0,4.641,0,1,1,0,0,1,1.86,0A2.5,2.5,0,1,0,21.637,10.2L19.212,6Z" transform="translate(-2 -4)" fill="#88895e"/>
</svg>
