<svg xmlns="http://www.w3.org/2000/svg" width="30.588" height="30.588" viewBox="0 0 30.588 30.588">
  <g id="soy_10333931" transform="translate(0)">
    <path id="Trazado_46988" data-name="Trazado 46988" d="M211.269,236.424a1.227,1.227,0,0,0-.87.36l-1.541,1.541a1.23,1.23,0,1,0,1.74,1.74l1.541-1.541a1.23,1.23,0,0,0-.87-2.1Z" transform="translate(-196.039 -222.296)"/>
    <path id="Trazado_46989" data-name="Trazado 46989" d="M329.81,117.874a1.222,1.222,0,0,0-.87.36l-1.541,1.541a1.23,1.23,0,0,0,1.74,1.74l1.541-1.541a1.23,1.23,0,0,0-.87-2.1Z" transform="translate(-307.496 -110.83)"/>
    <path id="Trazado_46990" data-name="Trazado 46990" d="M92.719,354.966a1.227,1.227,0,0,0-.87.36l-1.541,1.541a1.23,1.23,0,1,0,1.74,1.74l1.541-1.541a1.23,1.23,0,0,0-.87-2.1Z" transform="translate(-84.573 -333.754)"/>
    <path id="Trazado_46991" data-name="Trazado 46991" d="M29.32,0l0,0a4.453,4.453,0,0,1-3.164,1.313l-2.649,0a8.61,8.61,0,0,0-6.119,2.538L16.1,5.142a6.579,6.579,0,0,0-1.861,3.682,6.578,6.578,0,0,0-3.682,1.861L9.016,12.226a6.578,6.578,0,0,0-1.861,3.682,6.578,6.578,0,0,0-3.682,1.861L1.932,19.31a6.609,6.609,0,0,0,9.346,9.346l1.541-1.541a6.578,6.578,0,0,0,1.861-3.682,6.578,6.578,0,0,0,3.682-1.861L19.9,20.031a6.578,6.578,0,0,0,1.861-3.682,6.579,6.579,0,0,0,3.682-1.861L26.736,13.2a8.608,8.608,0,0,0,2.538-6.125V4.436a4.453,4.453,0,0,1,1.313-3.168ZM10.283,24.579,8.743,26.12a3.023,3.023,0,1,1-4.275-4.275L6.008,20.3a3.023,3.023,0,1,1,4.275,4.275ZM17.367,17.5l-1.541,1.541a3.023,3.023,0,1,1-4.275-4.275l1.541-1.541A3.023,3.023,0,1,1,17.367,17.5Zm7.084-7.084L22.91,11.953a3.023,3.023,0,0,1-4.275-4.275l1.541-1.541a3.023,3.023,0,1,1,4.275,4.275Z" transform="translate(0)"/>
  </g>
</svg>
