<svg id="soup_4050743" xmlns="http://www.w3.org/2000/svg" width="30.588" height="30.588" viewBox="0 0 30.588 30.588">
  <path id="Trazado_47001" data-name="Trazado 47001" d="M104.448,8.517h-1.792a2.371,2.371,0,0,0-2.368-2.37H86.954a3.074,3.074,0,0,1,0-6.148h7.211V1.794H86.954a1.28,1.28,0,0,0,0,2.56h13.334A4.166,4.166,0,0,1,104.448,8.517Z" transform="translate(-78.872 0)"/>
  <path id="Trazado_47002" data-name="Trazado 47002" d="M0,174.669H30.588v3.968H0Z" transform="translate(0 -164.234)"/>
  <path id="Trazado_47003" data-name="Trazado 47003" d="M20.73,281.917a7.829,7.829,0,0,0,3.934-1.095,10.9,10.9,0,0,0,3.106-2.74,13.254,13.254,0,0,0,2.786-6.969H.032a13.254,13.254,0,0,0,2.786,6.969,10.9,10.9,0,0,0,3.106,2.74,7.83,7.83,0,0,0,3.934,1.095H0V285.5H30.588v-3.587Z" transform="translate(0 -254.916)"/>
</svg>
