<svg xmlns="http://www.w3.org/2000/svg" width="39.525" height="39.525" viewBox="0 0 39.525 39.525">
  <g id="bolivia_197504" transform="translate(0)">
    <path id="Trazado_46806" data-name="Trazado 46806" d="M39.525,163.559a19.718,19.718,0,0,0-1.229-6.874l-18.533-.859-18.533.859a19.834,19.834,0,0,0,0,13.748l18.533.859,18.533-.859A19.719,19.719,0,0,0,39.525,163.559Z" transform="translate(0 -143.797)" fill="#ffda44"/>
    <path id="Trazado_46807" data-name="Trazado 46807" d="M34.456,357.931a19.769,19.769,0,0,0,18.533-12.889H15.923A19.769,19.769,0,0,0,34.456,357.931Z" transform="translate(-14.694 -318.407)" fill="#d82227"/>
    <path id="Trazado_46808" data-name="Trazado 46808" d="M15.923,12.889H52.989a19.769,19.769,0,0,0-37.066,0Z" transform="translate(-14.694)" fill="#d80027"/>
  </g>
</svg>
