<svg xmlns="http://www.w3.org/2000/svg" width="17.459" height="17.459" viewBox="0 0 17.459 17.459">
  <g id="Grupo_11384" data-name="Grupo 11384" transform="translate(0)">
    <path id="Trazado_47034" data-name="Trazado 47034" d="M8.73,0A8.73,8.73,0,1,1,0,8.73,8.73,8.73,0,0,1,8.73,0Z" transform="translate(0)" fill="#fad149"/>
    <path id="Unión_1" data-name="Unión 1" d="M4.5,8.979a.561.561,0,0,1-.561-.562l0-3.366H.561a.561.561,0,1,1,0-1.122h3.38l0-3.368a.561.561,0,1,1,1.122,0l0,3.366H8.417a.561.561,0,1,1,0,1.122H5.062l0,3.368a.562.562,0,0,1-.561.561Z" transform="translate(4.144 4.144)" fill="#fff"/>
  </g>
</svg>
