<svg xmlns="http://www.w3.org/2000/svg" width="33.963" height="33.963" viewBox="0 0 33.963 33.963">
  <g id="coin" transform="translate(0 16.982) rotate(-45)">
    <path id="Trazado_47108" data-name="Trazado 47108" d="M13.007,8c6.079,0,11.007,2.687,11.007,6v4c0,3.317-4.928,6-11.007,6-5.969,0-10.832-2.592-11-5.829L2,18.006V14C2,10.687,6.928,8,13.007,8Zm0,12.008A15.132,15.132,0,0,1,4,17.456v.55c0,1.881,3.888,4,9.006,4,5.013,0,8.846-2.031,9-3.883l.005-.12v-.55A15.167,15.167,0,0,1,13.007,20.008Zm0-10.006C7.889,10,4,12.123,4,14s3.888,4,9.006,4,9.006-2.121,9.006-4S18.125,10,13.007,10Z" transform="translate(-0.999 -3.997)" fill="#88895e"/>
    <path id="Trazado_47109" data-name="Trazado 47109" d="M0,0H24.016V24.016H0Z" fill="none"/>
  </g>
</svg>
