<svg xmlns="http://www.w3.org/2000/svg" width="10.398" height="10.398" viewBox="0 0 10.398 10.398">
  <path id="Trazado_46987" data-name="Trazado 46987" d="M16.4,13.752v2.042a.58.58,0,0,1-.537.578c-.251.017-.459.026-.618.026A9.244,9.244,0,0,1,6,7.155c0-.159.009-.367.026-.618A.58.58,0,0,1,6.6,6H8.646a.293.293,0,0,1,.289.26c.012.133.023.24.035.318a8.088,8.088,0,0,0,.7,2.313.262.262,0,0,1-.084.326l-1.248.89a7.539,7.539,0,0,0,3.954,3.954l.89-1.245a.265.265,0,0,1,.329-.084,8.092,8.092,0,0,0,2.311.7c.081.012.188.023.318.035A.293.293,0,0,1,16.4,13.752Z" transform="translate(-6 -6)" fill="#141411"/>
</svg>
