<svg id="Capa_2" data-name="Capa 2" xmlns="http://www.w3.org/2000/svg" width="223.6" height="201.081" viewBox="0 0 223.6 201.081">
  <g id="Capa_1" data-name="Capa 1" transform="translate(0 0)">
    <path id="Trazado_46737" data-name="Trazado 46737" d="M188.4,119.059c0,39.6-30.5,71.7-68.108,71.7s-68.108-32.1-68.108-71.7,30.5-71.7,68.108-71.7,68.108,32.1,68.108,71.7" transform="translate(-11.798 -10.705)" fill="#fd0"/>
    <path id="Trazado_46738" data-name="Trazado 46738" d="M119.481,43.86a67.573,67.573,0,0,0-27.607,5.859A70.592,70.592,0,0,0,69.368,65.693,74.361,74.361,0,0,0,54.229,89.33a78.068,78.068,0,0,0,0,57.814A74.447,74.447,0,0,0,69.368,170.78a70.429,70.429,0,0,0,22.506,15.967,67.891,67.891,0,0,0,55.214,0,70.429,70.429,0,0,0,22.506-15.967,74.469,74.469,0,0,0,15.146-23.636,78.169,78.169,0,0,0,0-57.814,74.384,74.384,0,0,0-15.146-23.636,70.592,70.592,0,0,0-22.506-15.974,67.574,67.574,0,0,0-27.607-5.859m0,2.678c37.622,0,68.108,32.1,68.108,71.7s-30.5,71.7-68.108,71.7-68.108-32.1-68.108-71.7,30.5-71.7,68.108-71.7" transform="translate(-11.007 -9.914)" fill="#fd0"/>
    <path id="Trazado_46739" data-name="Trazado 46739" d="M120.219,47.887c-36.515,0-66.653,30.873-67.5,69.477a72.349,72.349,0,0,0,18.644,50.57,65.156,65.156,0,0,0,47.141,21.771h1.416c36.507,0,66.653-30.865,67.5-69.477h0a72.4,72.4,0,0,0-18.644-50.57A65.384,65.384,0,0,0,121.6,47.9h-1.378m-.294,143.343h-1.416a66.713,66.713,0,0,1-48.248-22.267,73.912,73.912,0,0,1-19.039-51.63c.875-39.936,32.506-71.768,70.429-70.963a66.726,66.726,0,0,1,48.24,22.267,73.843,73.843,0,0,1,19.039,51.63c-.859,39.471-31.685,70.979-69.021,70.979" transform="translate(-11.575 -10.481)" fill="#010101"/>
    <path id="Trazado_46740" data-name="Trazado 46740" d="M153.2,255.76a.7.7,0,0,0-.2-.17c-.348-.108-.7-.193-1.053-.3l-.681-.2a1.145,1.145,0,0,1-.774-.774,5.9,5.9,0,0,1-.48-2.453,4.2,4.2,0,0,0,0-.441,3.413,3.413,0,0,1,.232-1.339,6.711,6.711,0,0,0,.41-1.594,2.22,2.22,0,0,1,.232-.728,3.1,3.1,0,0,0,.271-.828,6.2,6.2,0,0,1,.387-1.254c.17-.4.31-.82.441-1.238a2.182,2.182,0,0,1,.6-1.029.694.694,0,0,0,.147-.155,2.206,2.206,0,0,1,1.741-.9c.511-.039,1.022,0,1.548,0a.774.774,0,0,1,.55.217,1.766,1.766,0,0,0,.41.356.929.929,0,0,1,.511.844V244l.108.774c.108-.193.17-.294.224-.4.3-.565.573-1.145.9-1.7a1.285,1.285,0,0,1,.774-.573,3.7,3.7,0,0,1,.7-.139,9.466,9.466,0,0,1,2.686.085,5.417,5.417,0,0,1,1.989.882,4.839,4.839,0,0,1,1.091,1.223,3.1,3.1,0,0,1,.619,1.215.913.913,0,0,0,.054.155,4.643,4.643,0,0,1,.426,1.68,20.807,20.807,0,0,1,.093,2.082,2.523,2.523,0,0,1-.379,1.354c-.093.155-.194.31-.3.457a3.87,3.87,0,0,0-.526.96,1.192,1.192,0,0,1-.41.573,2.369,2.369,0,0,0-.666.72,5.168,5.168,0,0,0-.4.519,3.1,3.1,0,0,1-1.331,1.1,1.254,1.254,0,0,1-.681.163,1.594,1.594,0,0,1-1.269-.4c-.24-.163-.472-.341-.712-.511a2.322,2.322,0,0,1-.9-1.215c-.17-.542-.317-1.091-.472-1.633a.585.585,0,0,1,0-.163,7.74,7.74,0,0,1,.139-2.074c.3-1.053.573-2.121.875-3.173a1.548,1.548,0,0,1,1.486-1.084.681.681,0,0,1,.542.209.364.364,0,0,0,.077.077c.41.371.48.549.263,1.053-.294.666-.441,1.393-.774,2.036a1.153,1.153,0,0,0-.108.371c-.085.426-.193.859-.24,1.293a12.562,12.562,0,0,0-.132,2.322,5.309,5.309,0,0,0,.286,1.393.387.387,0,0,0,.41.286,1.5,1.5,0,0,0,1.2-.557,6.191,6.191,0,0,0,1.037-1.478c.193-.41.433-.774.666-1.192a7.182,7.182,0,0,0,.681-1.85,2.075,2.075,0,0,0,.062-.542c0-.511,0-1.022,0-1.548a.975.975,0,0,0-.163-.619.983.983,0,0,1-.139-.3,3.754,3.754,0,0,0-1.006-1.788.72.72,0,0,1-.17-.209,2.848,2.848,0,0,0-1.13-1.014,1.138,1.138,0,0,0-.774-.163.71.71,0,0,1-.217,0,1.6,1.6,0,0,0-1.362.58c-.163.139-.341.271-.5.426a1.092,1.092,0,0,0-.317.364,1.965,1.965,0,0,1-.464.6c-.31.294-.611.58-.906.882a.86.86,0,0,0-.224.3c-.124.263-.217.542-.325.813a.96.96,0,0,0-.054.588,1.293,1.293,0,0,1,0,.6.635.635,0,0,0,0,.317.905.905,0,0,1-.271.774c-.054.07-.139.124-.193.194s-.178.294-.379.255a.72.72,0,0,1-.6-.5,1.469,1.469,0,0,1,0-.488c.046-.511.124-1.022.163-1.548a10.441,10.441,0,0,0,.046-1.478,13.572,13.572,0,0,0-.224-1.347.658.658,0,0,0-.085-.2.186.186,0,0,0-.271-.085.82.82,0,0,0-.255.2,9.424,9.424,0,0,0-.573.774,13.547,13.547,0,0,0-1.215,2.384,19.12,19.12,0,0,0-.7,2.322,7.528,7.528,0,0,0-.271,1.169,2.006,2.006,0,0,1-.062.6,2.657,2.657,0,0,1-.163.774,1.656,1.656,0,0,0-.163,1.06,4.07,4.07,0,0,0,.248,1.285.774.774,0,0,0,.844.526,4.874,4.874,0,0,0,1.114-.263,8.722,8.722,0,0,0,.983-.348l1.548-.588c.209-.077.31,0,.341.209a.557.557,0,0,1-.364.658c-.3.132-.588.294-.9.41a3.172,3.172,0,0,0-.859.464,1.548,1.548,0,0,1-1.076.341.7.7,0,0,0-.58.093h-.55" transform="translate(-33.912 -54.68)" fill="#fd0"/>
    <path id="Trazado_46741" data-name="Trazado 46741" d="M211.378,210.837a3.264,3.264,0,0,1-.108.534.395.395,0,0,1,.2.557,1.053,1.053,0,0,1,.7.6c.124.24.294.457.41.7a19.293,19.293,0,0,0,1.672,2.693,1.331,1.331,0,0,0,.286.333,3.042,3.042,0,0,1,.774.936,1.122,1.122,0,0,0,.681.581,1.55,1.55,0,0,0,.209-.194l1.71-2.283a.449.449,0,0,0,0-.6,16.43,16.43,0,0,0-2.012-2.6,5.7,5.7,0,0,1-.875-1.053.642.642,0,0,1,0-.72c.116-.186.209-.387.325-.573a.542.542,0,0,1,.774-.263,1.547,1.547,0,0,0,.364.077.712.712,0,0,1,.627.372c.147.232.31.457.464.681a7.988,7.988,0,0,0,1.842,1.873l.263.194a2.1,2.1,0,0,1,.774.913,2.6,2.6,0,0,0,.642.944c.325.31.611.673.913,1.014a2.276,2.276,0,0,1,.24.364,7.948,7.948,0,0,0,1.1,1.548.774.774,0,0,1,.224.851.976.976,0,0,0-.039.217.72.72,0,0,1-.635.774.325.325,0,0,1-.147-.046,12.505,12.505,0,0,1-1.068-.937c-.549-.6-1.045-1.231-1.548-1.842l-.828-.952a.772.772,0,0,0-.17-.139,1.826,1.826,0,0,0-1,.828,21.6,21.6,0,0,1-1.548,2.175.449.449,0,0,0-.062.139v.108a6.966,6.966,0,0,1,.9,1.176,9.96,9.96,0,0,0,.96,1.192,1.843,1.843,0,0,0,.433.333l1.1.728a1.248,1.248,0,0,1,.271.263,3.492,3.492,0,0,0,.658.65.457.457,0,0,1,.139.673,1.416,1.416,0,0,1-2.059.534,6.391,6.391,0,0,1-1.207-1.029c-.519-.565-1.068-1.1-1.625-1.625a2.937,2.937,0,0,1-.526-.7,4.788,4.788,0,0,0-.542-.774,9.435,9.435,0,0,0-1.2-1.285,3.359,3.359,0,0,1-.774-1.068,2.476,2.476,0,0,1-.279-.658,3.29,3.29,0,0,0-.6-1.153,13.209,13.209,0,0,1-.983-1.772c-.124-.248-.255-.48-.395-.774a4.433,4.433,0,0,0-.7,1.006,7.412,7.412,0,0,0-.526,1.053c.054.093.085.24.178.31a1.548,1.548,0,0,1,.5,1,4.931,4.931,0,0,0,.542,1.432q.944,1.819,1.888,3.645a19.789,19.789,0,0,0,1.308,2.159,4.759,4.759,0,0,1,.511.905,3.094,3.094,0,0,0,.519.9,3.1,3.1,0,0,1,.542,1.076,2.523,2.523,0,0,0,.735,1.13,4.039,4.039,0,0,1,.55.542,4.159,4.159,0,0,1,.526.774c.155.3-.046.565-.387.511a2.251,2.251,0,0,1-.619-.209,5.232,5.232,0,0,1-2.059-1.679c-.209-.3-.464-.565-.689-.859s-.565-.774-.844-1.145-.519-.774-.774-1.145c-.6-.937-1.184-1.888-1.78-2.833-.387-.6-.774-1.192-1.169-1.788a2.321,2.321,0,0,1-.379-.774,5.311,5.311,0,0,0-.232-.58h-.991a.82.82,0,0,0-.619.31.658.658,0,0,1-.588.232.33.33,0,0,1-.371-.325,3.931,3.931,0,0,1-.039-.433.7.7,0,0,1,.147-.519,6.35,6.35,0,0,1,.929-1.207,1.045,1.045,0,0,0,.217-.317l.7-1.114a12.843,12.843,0,0,1,.774-1.076c.317-.418.58-.882.859-1.331a14.088,14.088,0,0,1,1.486-1.966,1.547,1.547,0,0,1,.2-.186.224.224,0,0,1,.317,0" transform="translate(-46.529 -47.34)" fill="#fd0"/>
    <path id="Trazado_46742" data-name="Trazado 46742" d="M199.6,227.064c.077.24.124.371.17.5a8.2,8.2,0,0,1,.379,1.881,4.241,4.241,0,0,0,.224,1.068c.077.24.124.5.186.774s.147.6.232.9a12.786,12.786,0,0,0,.774,1.7c.046.085.108.17.178.294.3-.2.573-.387.851-.557s.573-.31.882-.472a6.252,6.252,0,0,0-.673-1.153,8.2,8.2,0,0,1-1.145-2.051,2.378,2.378,0,0,0-.24-.488c-.217-.356-.441-.712-.681-1.06s-.542-.728-.828-1.091a1.815,1.815,0,0,0-.286-.217m4.806,6.749c-.286.163-.557.3-.82.464a1.153,1.153,0,0,0-.325.286,3.351,3.351,0,0,1-1.385,1.13,1.872,1.872,0,0,0,.17.635,10.265,10.265,0,0,1,.418,1.981,4.488,4.488,0,0,0,.294,1.107,1.7,1.7,0,0,1,.132.774c-.039.294-.17.441-.464.426a5.818,5.818,0,0,1-1.037-.116,1.231,1.231,0,0,1-.813-.681,10.95,10.95,0,0,1-.7-1.834,25.808,25.808,0,0,1-.658-3.328c-.116-.611-.24-1.223-.341-1.834-.062-.379-.077-.774-.155-1.138a10.1,10.1,0,0,1-.17-1.548v-.379a4.892,4.892,0,0,0-.232-1.455,6.346,6.346,0,0,1-.224-2.5,1.177,1.177,0,0,1,1.447-.944,1.765,1.765,0,0,1,.55.248,5.154,5.154,0,0,1,.921.774,13.625,13.625,0,0,1,1.9,2.74c.1.2.2.395.294.6a6.19,6.19,0,0,0,.774,1.378c.132.178.186.395.31.573a12.858,12.858,0,0,0,1.7,2.066c.526.511,1.053,1.014,1.618,1.471a3.678,3.678,0,0,1,.418.433.681.681,0,0,1,.139.565.294.294,0,0,1-.387.279,4.078,4.078,0,0,1-1.44-.5,2.057,2.057,0,0,1-.41-.364,5.781,5.781,0,0,0-1.548-1.331" transform="translate(-44.779 -50.827)" fill="#fd0"/>
    <path id="Trazado_46743" data-name="Trazado 46743" d="M193.016,237.919v-.248c-.248-.666-.488-1.339-.774-2a8.808,8.808,0,0,0-.519-.96,2.321,2.321,0,0,1-.356-.921,4.514,4.514,0,0,0-.433-1.409,8.609,8.609,0,0,1-.519-1.5,4.232,4.232,0,0,1-.039-1.362,9.495,9.495,0,0,1,.124-1c.395-.271.774-.6,1.339-.34.341,1.176.666,2.322.944,3.545a3.2,3.2,0,0,0,.457,1.161,2.894,2.894,0,0,1,.464,1.285,7.17,7.17,0,0,0,.31,1.215,54.543,54.543,0,0,0,2,5.108c.139.317.248.65.356.983a1.889,1.889,0,0,1,.054.356.658.658,0,0,1-.72.209,3.747,3.747,0,0,0-.975-.124.5.5,0,0,1-.519-.317,3.328,3.328,0,0,0-.82-.952q-.356-.341-.7-.7a5.411,5.411,0,0,0-.836-.774.589.589,0,0,1-.224-.232,2.152,2.152,0,0,0-.55-.6,4.218,4.218,0,0,1-.89-.89c-.046-.077-.163-.108-.255-.163a.6.6,0,0,0-.039.511c.085.348.186.7.3,1.053a15.8,15.8,0,0,1,.6,2.384,1.8,1.8,0,0,0,.093.426,13.088,13.088,0,0,1,.488,1.687.642.642,0,0,1,0,.263.426.426,0,0,1-.17.263,1.022,1.022,0,0,1-.642.108l-.774-.155a.433.433,0,0,1-.379-.348,1.811,1.811,0,0,0-.108-.426c-.224-.774-.418-1.548-.673-2.322-.364-1.13-.774-2.244-1.176-3.359a.774.774,0,0,1,.178-.952.6.6,0,0,0,.139-.7,1.8,1.8,0,0,0-.4-.642.34.34,0,0,1,0-.526,2.515,2.515,0,0,1,.387-.31,1.285,1.285,0,0,1,1.548.178c.913.929,1.842,1.834,2.763,2.748a5.839,5.839,0,0,0,.882.774" transform="translate(-42.33 -51.559)" fill="#fd0"/>
    <path id="Trazado_46744" data-name="Trazado 46744" d="M224.343,203.1l-.039.077c.263.519.518,1.045.774,1.548a.689.689,0,0,0,.217.232,1.316,1.316,0,0,1,.464.6,1.711,1.711,0,0,0,.364.542c.24.255.449.526.7.774a2.151,2.151,0,0,0,.55.441,2.322,2.322,0,0,1,.774.635.906.906,0,0,0,.511.395,9.582,9.582,0,0,1,.588-.774c.2-.224.449-.511.666-.774l-1.447-.96a22.731,22.731,0,0,1-2.167-1.548,13.16,13.16,0,0,0-1.207-.859,1.6,1.6,0,0,0-.727-.31m6.192,3.939a.58.58,0,0,0-.294.4c-.139.433-.248.875-.418,1.3a2.082,2.082,0,0,1-.6.9.929.929,0,0,0,.255.658,3.746,3.746,0,0,1,.7,1.169,1.841,1.841,0,0,0,.2.387c.4.542.82,1.068,1.231,1.61a.581.581,0,0,1,0,.774,1.053,1.053,0,0,1-.6.364,1.339,1.339,0,0,1-1.385-.457,2.212,2.212,0,0,0-.565-.511,3.452,3.452,0,0,1-1.5-1.9,1.8,1.8,0,0,0-.178-.34l-.937-1.734a3.87,3.87,0,0,0-.882-1.107,3.1,3.1,0,0,1-.72-.96c-.2-.41-.387-.828-.58-1.238a2.4,2.4,0,0,0-.163-.348.519.519,0,0,1-.093-.418.774.774,0,0,0-.186-.611c-.217-.356-.418-.72-.635-1.084a1.289,1.289,0,0,0-.194-.263,3.18,3.18,0,0,1-.619-1.215,3.54,3.54,0,0,1-.085-.813.5.5,0,0,1,.17-.387,1.548,1.548,0,0,1,1.71-.364,10.837,10.837,0,0,1,1.95,1.114c.418.325.859.619,1.285.936.263.2.511.418.774.627a9.574,9.574,0,0,0,1.176.89c.2.124.356.317.549.449a8.219,8.219,0,0,0,2.755,1.308,5.575,5.575,0,0,1,1.122.449,3.094,3.094,0,0,0,.813.3c.58.093.627.5.41.875-.116.217-.24.364-.488.372h-.108c-.905.147-.7.217-1.633-.209-.178-.085-.372-.147-.565-.217a8.4,8.4,0,0,1-1.447-.658l-.178-.085" transform="translate(-50.254 -45.381)" fill="#fd0"/>
    <path id="Trazado_46745" data-name="Trazado 46745" d="M242.219,125.581a1.64,1.64,0,0,0,.395.116h1.1l1.037-.07h.6a.681.681,0,0,1,.217,0,26.9,26.9,0,0,0,2.848-.046h.193a.341.341,0,0,1,.364.387,1.13,1.13,0,0,1-.139.627c-.093.178-.155.372-.232.557a.472.472,0,0,1-.418.3h-.17a23.6,23.6,0,0,0-3.39.209l-2.678.294h-.271a.774.774,0,0,1-.774-.333.7.7,0,0,0-.944-.294c-.194.062-.364.163-.55.24a.248.248,0,0,1-.3-.054,1.354,1.354,0,0,1-.2-1.625,1.464,1.464,0,0,1,.433-.41c1.138-.728,2.322-1.447,3.429-2.167a1.037,1.037,0,0,0,.441-.34l-2.724.147h-.108a11.556,11.556,0,0,1-2.732.155c-.387,0-.774.046-1.153.077a15.556,15.556,0,0,1-2.082,0,.774.774,0,0,1-.72-.573,1.547,1.547,0,0,1-.07-.867.3.3,0,0,1,.364-.255,5.148,5.148,0,0,0,1.091,0,3.963,3.963,0,0,1,.6.054,6.708,6.708,0,0,0,1.8-.085,12.034,12.034,0,0,0,2.167-.279c.983-.124,1.966-.232,2.949-.333,1.293-.124,2.569-.356,3.87-.6.449-.077.906-.132,1.354-.17s.457.085.441.449a.7.7,0,0,1-.07.317,3.343,3.343,0,0,0-.356.921.526.526,0,0,1-.418.441,2.755,2.755,0,0,0-.658.279c-.6.372-1.215.774-1.811,1.138a13.589,13.589,0,0,1-1.362.906,1.215,1.215,0,0,0-.31.224,2.575,2.575,0,0,1-.774.5,2.939,2.939,0,0,0-.271.186" transform="translate(-52.806 -27.18)" fill="#fd0"/>
    <path id="Trazado_46746" data-name="Trazado 46746" d="M247.6,153.444a.271.271,0,0,0-.209.317,8.631,8.631,0,0,0,.139,1.254,6.876,6.876,0,0,0,.163.689,5.248,5.248,0,0,1-.054,2.5,1.549,1.549,0,0,1-.178.457c-.294.418-.6.828-.913,1.231a.774.774,0,0,1-.519.271,4.868,4.868,0,0,1-2.113-.07.6.6,0,0,1-.255-.116,4.148,4.148,0,0,1-.944-.9c-.286-.449-.635-.851-.921-1.3s-.611-1.037-.9-1.548c-.162-.31-.279-.635-.441-.944a3.746,3.746,0,0,1-.333-1.323,2.213,2.213,0,0,1,.1-.975,4.388,4.388,0,0,1,.851-1.548,1.733,1.733,0,0,1,.712-.5.588.588,0,0,1,.611.093l.975.774c.2.163.4.317.611.457a.774.774,0,0,1,.139,1.316c-.147.139-.294.279-.449.41a.441.441,0,0,1-.642,0c-.317-.248-.619-.519-.921-.774-.132-.116-.255-.248-.379-.371-.147.039-.108.139-.1.224a5.472,5.472,0,0,0,.712,2,13.073,13.073,0,0,1,.666,1.262,9.7,9.7,0,0,0,1.13,1.61,2.949,2.949,0,0,0,1.772,1.014.325.325,0,0,0,.433-.348.47.47,0,0,0,0-.108c-.062-.565-.124-1.13-.193-1.687-.093-.774-.209-1.548-.279-2.322a12.667,12.667,0,0,1,0-1.548,2.546,2.546,0,0,1,.333-1.153,1.68,1.68,0,0,1,.89-.774,1.06,1.06,0,0,1,.952.046c.31.186.65.341.944.549a3.823,3.823,0,0,1,1.115,1.548,6.453,6.453,0,0,0,.6,1.231.264.264,0,0,1,.07.147,2.546,2.546,0,0,0,.449,1.1,4.643,4.643,0,0,1,.464,1.9v.5a2.771,2.771,0,0,1-.418,1.672c-.155.271-.286.55-.441.82a1.965,1.965,0,0,1-.611.7.333.333,0,0,1-.5-.147.5.5,0,0,1,0-.263c.085-.263.162-.526.271-.774a1.71,1.71,0,0,0,.093-1.022,8.346,8.346,0,0,0-.519-2.066,1.143,1.143,0,0,1-.1-.426,2.925,2.925,0,0,0-.333-1.145,5.179,5.179,0,0,0-.774-1.378,3.6,3.6,0,0,0-.712-.627" transform="translate(-54.28 -34.108)" fill="#fd0"/>
    <path id="Trazado_46747" data-name="Trazado 46747" d="M246.1,138.275a1.035,1.035,0,0,0,.139.054l1.293.217a3.107,3.107,0,0,0,.379,0h.658a3.908,3.908,0,0,0,1.71-.286,1.191,1.191,0,0,0,.325-.2.774.774,0,0,0,.263-1.053,3.35,3.35,0,0,0-.936-1.262,4.232,4.232,0,0,0-.89-.635,1.062,1.062,0,0,1-.225-.155,5.417,5.417,0,0,0-1.772-.828.387.387,0,0,0-.31,0,.967.967,0,0,1-.581.124h-1.548a7.213,7.213,0,0,0-1.633.155,5.169,5.169,0,0,0-1.169.48,2.035,2.035,0,0,0,.991.875,15.921,15.921,0,0,1,1.927.774.5.5,0,0,0,.209.062,4.588,4.588,0,0,1,1.308.371.48.48,0,0,1,.263.673,1.445,1.445,0,0,1-.17.209c-.085.108-.248.163-.248.356m-5.24-1.618a2.322,2.322,0,0,0-.255-.658,3.375,3.375,0,0,1-.294-1.765,1.006,1.006,0,0,1,.627-.89,9.837,9.837,0,0,1,2.918-.906h1.649a3.869,3.869,0,0,1,1.455.248c.549.2,1.107.364,1.664.534a3.474,3.474,0,0,1,1.246.666c.341.286.712.565,1.06.851a1.789,1.789,0,0,1,.372.395,2.6,2.6,0,0,1,.472,1.44v.6a2.856,2.856,0,0,1-.6,1.834,3.692,3.692,0,0,1-1.5,1.238.9.9,0,0,1-.426.093,15.5,15.5,0,0,1-1.695-.062c-.565-.062-1.207-.07-1.8-.147s-1.37-.224-2.051-.348h-.108c-1.006-.41-2.074-.6-3.1-.944a3.272,3.272,0,0,1-.642-.31.4.4,0,0,1-.194-.565,6.191,6.191,0,0,1,.441-.875.852.852,0,0,1,.348-.255,2.172,2.172,0,0,1,.4-.139" transform="translate(-54.163 -29.921)" fill="#fd0"/>
    <path id="Trazado_46748" data-name="Trazado 46748" d="M176.9,239.11h-.07c-.1.132-.263.255-.279.395-.062.418-.472.7-.387,1.176a1.68,1.68,0,0,1-.147.905,6.556,6.556,0,0,0-.3,2c-.039,1.06-.039,2.121-.062,3.181a9.017,9.017,0,0,0,.271,2.229,2.709,2.709,0,0,0,.6,1.091.836.836,0,0,0,.472.255,1.239,1.239,0,0,0,1.053-.124c.387-.279.774-.518,1.192-.774l1.548-1.091c0,.07.1.124.1.178a1.215,1.215,0,0,1-.395.875,3.736,3.736,0,0,1-.5.433,11.815,11.815,0,0,1-1.246.774,4.787,4.787,0,0,1-.65.271,3.349,3.349,0,0,1-.372.108,4.727,4.727,0,0,1-.774.178c-.418.039-.836.039-1.254.054a1.083,1.083,0,0,1-.58-.147,5.933,5.933,0,0,1-1.409-1.029,1.323,1.323,0,0,1-.379-.658c-.1-.371-.217-.774-.3-1.114a3.593,3.593,0,0,1-.1-.813v-2.856a17.52,17.52,0,0,1,.178-2.624,4.718,4.718,0,0,0,0-.875,3.021,3.021,0,0,1,.116-.642c.093-.294.232-.581.317-.875a1.548,1.548,0,0,1,.557-.774,3.421,3.421,0,0,1,2.7-.774h.325c.217.062.418.139.619.217s.17.34.255.511a1.75,1.75,0,0,1,.248.549c.054.348.48.526.395.921.132.317.255.642.395.96s.271.635.395.96a1.936,1.936,0,0,1,.1.418,3.5,3.5,0,0,0,.07.426.852.852,0,0,1-.054.689c-.046.1-.124.186-.17.286s-.093.325-.3.341a.774.774,0,0,1-.681-.279,1.061,1.061,0,0,1-.155-.4c-.116-.689-.209-1.378-.317-2.059a6.19,6.19,0,0,0-.774-2.167c-.077-.132-.139-.3-.356-.356" transform="translate(-39.096 -53.802)" fill="#fd0"/>
    <path id="Trazado_46749" data-name="Trazado 46749" d="M246.547,170.333a1.7,1.7,0,0,0-.232-.286,30.6,30.6,0,0,0-2.98-2.508,8.226,8.226,0,0,0-.7-.449c-.635-.364-1.153-.89-1.749-1.316a2.851,2.851,0,0,0-.3-.232.72.72,0,0,1-.317-.549c0-.17.17-.294.093-.5a.867.867,0,0,1,.039-.48,1.412,1.412,0,0,1,.155-.348.426.426,0,0,1,.464-.224,4.645,4.645,0,0,1,1.107.279,9.85,9.85,0,0,0,2.105.774h.1c.913.426,1.881.7,2.833,1.037a8.559,8.559,0,0,0,2.322.573,1.123,1.123,0,0,1,.317.077c.1,0,.224-.039.3.077a.449.449,0,0,1,0,.371,1.255,1.255,0,0,1-.294.58c-.093.085-.178.186-.263.279a.774.774,0,0,1-.975.255,7.116,7.116,0,0,1-.627-.348,2.518,2.518,0,0,0-.7-.294c-.7-.209-1.393-.441-2.09-.673a3.015,3.015,0,0,0-.774-.186c.085.108.116.186.178.224a5.416,5.416,0,0,1,.735.65c.31.294.635.557.944.844a2.423,2.423,0,0,1,.387.457,1.27,1.27,0,0,0,.588.619.371.371,0,0,1,.163.147c.217.364.457.712.642,1.091a1.455,1.455,0,0,1-.217,1.494c-.1.155-.224.286-.325.441a.635.635,0,0,1-.65.317,5.5,5.5,0,0,1-1.122-.255,13.64,13.64,0,0,1-1.486-.7c-.96-.488-1.912-1-2.864-1.494a1.71,1.71,0,0,1-.666-.642.666.666,0,0,1,.046-.859c.147-.178.31-.364.472-.534a.449.449,0,0,1,.5-.139,1.657,1.657,0,0,1,.82.41.433.433,0,0,0,.232.132,5.016,5.016,0,0,1,1.788,1.045,2.888,2.888,0,0,0,.41.271l1.223.611a1.311,1.311,0,0,0,.3.062l.046-.1" transform="translate(-54.316 -36.942)" fill="#fd0"/>
    <path id="Trazado_46750" data-name="Trazado 46750" d="M242.951,176.665c-.108.263-.217.549-.341.836a8.722,8.722,0,0,0-.5,1.385c-.07.248-.186.48-.279.72a7.152,7.152,0,0,0-.371,1.772,5.986,5.986,0,0,0,.859.673c.217.132.433.271.658.395a1.614,1.614,0,0,0,.387.186.9.9,0,0,1,.464.279.35.35,0,0,0,.077.077c.526.193.851.673,1.339.929a.774.774,0,0,1,.472.774c0,.395-.232.549-.619.457a1.547,1.547,0,0,1-.317-.1c-.588-.294-1.184-.58-1.757-.9s-1.308-.735-1.958-1.107a1.944,1.944,0,0,0-.356-.124,2.663,2.663,0,0,0-.426-.116.72.72,0,0,1-.557-.48.917.917,0,0,0-.062-.124l-3.1-1.811a2.717,2.717,0,0,0-.147.712.867.867,0,0,1-.627.813c-.186.062-.372.162-.557.224a2.061,2.061,0,0,1-.488.07.3.3,0,0,1-.317-.31,1.672,1.672,0,0,1,.062-.433,11.8,11.8,0,0,0,.371-1.873,1.285,1.285,0,0,0-.039-.426.557.557,0,0,1,.147-.6.89.89,0,0,0,.255-.472c.062-.31.155-.6.217-.913a6.548,6.548,0,0,1,.851-2.183,3.451,3.451,0,0,1,1.223-1.231.72.72,0,0,1,.82,0c.689.4.82.658.627,1.432-.062.248-.147.488-.194.774a.3.3,0,0,1-.457.217l-.248-.163a3.151,3.151,0,0,0-.426.217.774.774,0,0,0-.224.224,3.2,3.2,0,0,0-.449,2.4l.449.263c.24.132.488.255.735.372a1.678,1.678,0,0,0,.457.155.774.774,0,0,1,.7.511c0,.046.077.077.124.124.271-.085.341-.317.395-.542s.07-.356.1-.542a4.381,4.381,0,0,1,.774-1.672,5.286,5.286,0,0,1,.774-.859.65.65,0,0,1,.836-.194c.147.085.286,0,.433,0s.209,0,.248.194" transform="translate(-52.996 -39.249)" fill="#fd0"/>
    <path id="Trazado_46751" data-name="Trazado 46751" d="M250.966,147.407a.434.434,0,0,1-.387.5,3.094,3.094,0,0,1-.65.07h-1.316a4.791,4.791,0,0,1-1.409-.178c-.673-.186-1.354-.279-2.035-.41s-1.432-.286-2.152-.426a2.541,2.541,0,0,0-.488,0,.325.325,0,0,1-.333-.232c-.077-.248-.155-.5.062-.72a.729.729,0,0,0,.093-.139c.085-.163.163-.34.356-.395a1.323,1.323,0,0,1,.7-.077,1.5,1.5,0,0,0,.379.054,14.187,14.187,0,0,1,2.546.294c.611.124,1.215.263,1.811.426a1,1,0,0,0,.217.062,3.823,3.823,0,0,1,2.082.9c.155.124.333.217.526.348" transform="translate(-54.734 -32.862)" fill="#fd0"/>
    <path id="Trazado_46752" data-name="Trazado 46752" d="M236.243,203.1c-.325.333-.356.341-.7.147a4.642,4.642,0,0,1-.41-.263l-1.726-1.262c-.209-.155-.4-.317-.6-.488-.426-.371-.844-.774-1.262-1.138-.588-.519-1.176-1.045-1.772-1.548a2.2,2.2,0,0,0-.488-.24.294.294,0,0,1-.186-.356c.062-.271.124-.549.464-.619l.1-.039c.155-.085.3-.232.5-.17a1.7,1.7,0,0,1,.72.356,7.388,7.388,0,0,0,1.006.774c.418.271.774.6,1.169.906.72.573,1.277,1.308,1.974,1.9a2.632,2.632,0,0,1,.774,1.068c.132.341.294.658.449.991" transform="translate(-51.79 -44.556)" fill="#fd0"/>
    <path id="Trazado_46753" data-name="Trazado 46753" d="M184.855,246.551a.434.434,0,0,1-.449-.047.774.774,0,0,1-.17-.271c-.062-.17-.108-.348-.155-.526-.178-.673-.356-1.339-.519-2.012-.077-.317-.132-.642-.186-.967-.178-1.084-.348-2.167-.519-3.243a1.822,1.822,0,0,0,0-.217,1.547,1.547,0,0,0-.255-.828.271.271,0,0,1,.062-.395.674.674,0,0,1,.774-.2.362.362,0,0,0,.155.046.774.774,0,0,1,.774.774,14.418,14.418,0,0,0,.418,1.633c.1.371.155.774.232,1.13l.046.325c.054.433.108.867.155,1.3.039.309.062.619.1.929a3.614,3.614,0,0,1-.108,1.625c-.1.31-.17.627-.263.975" transform="translate(-41.267 -53.751)" fill="#fd0"/>
    <path id="Trazado_46754" data-name="Trazado 46754" d="M237.05,195.115a.683.683,0,0,1,0-.077,18.14,18.14,0,0,1,.712-2,1.773,1.773,0,0,0,.24-.836.511.511,0,0,1,.263-.457,1.316,1.316,0,0,0,.573-.774.184.184,0,0,1,.054-.155c.162-.372.17-.372.573-.294a2.54,2.54,0,0,0,.488.046.351.351,0,0,1,.395.41,1.083,1.083,0,0,1-.108.472c-.155.333-.348.643-.519.96a12.009,12.009,0,0,0-1.037,2.322,1.726,1.726,0,0,1-.24.5.325.325,0,0,1-.217.147,1.447,1.447,0,0,1-1.161-.286" transform="translate(-53.588 -43.057)" fill="#fd0"/>
    <path id="Trazado_46755" data-name="Trazado 46755" d="M235.747,135.81a17.146,17.146,0,0,0,1.656,1.78,3.72,3.72,0,0,1,.395.457.263.263,0,0,1-.046.387c-.124.108-.263.193-.395.294a.449.449,0,0,1-.673,0c-.209-.2-.4-.418-.6-.627-.41-.441-.774-.89-1.223-1.316-.294-.31-.317-.526.116-.774a.89.89,0,0,1,.774-.178" transform="translate(-53.044 -30.699)" fill="#fd0"/>
    <path id="Trazado_46756" data-name="Trazado 46756" d="M224.941,77.667c-.6-3.034-5.557-4.644-11.075-3.521s-9.527,4.45-8.931,7.461a3.2,3.2,0,0,0,.511,1.192c-2.322,14.953-21.856,14.519-21.856,14.519h0a29.116,29.116,0,0,1-32.212-4.644h0S130.024,83.6,115.3,99.314c0,0-6.021,6.145-6.9,11.4v.108c0,.186-.054.364-.07.542a.216.216,0,0,1,0,.07,5.42,5.42,0,0,0,0,.611h0v.054a2.047,2.047,0,0,0,0,.224,5.669,5.669,0,0,0,3.986,5.464A5.588,5.588,0,0,0,118.337,115l-1.641-7.469C128.932,93.866,145.657,97.8,149.5,99.02c-4.907,8.3-12.987,25.649-9.744,45.926a.867.867,0,0,0,.573.689c-.209,3.545,0,12.708,3.1,13.366a19.209,19.209,0,0,0,6.966.039c1.424-.279,2.175-2.956,1.881-4.5a24.882,24.882,0,0,1,.217-8.815h0a.682.682,0,0,0,.325.085,57.271,57.271,0,0,1,10.835,1.857,6.052,6.052,0,0,0,1.385.2c.418,2.84,1.424,8.049,3.3,9.69,1.749,1.548,4.984,2.322,6.966,2.67a4.566,4.566,0,0,0,3.978-1.145c1.084-1.084,1.919-2.887.921-5.789a36.038,36.038,0,0,1-1.548-5.743h0a.89.89,0,0,0,.991-.348l.325-.472a1.656,1.656,0,0,0,.093-1.718c-1.393-2.631-4.891-11.269-3.653-25.331a57.971,57.971,0,0,1,3.421-15.85c30.61.511,32.815-16.694,32.955-18.319a18.488,18.488,0,0,0,3.251-.341c5.5-1.161,9.489-4.473,8.908-7.507" transform="translate(-24.491 -16.679)" fill="#fd0"/>
    <path id="Trazado_46757" data-name="Trazado 46757" d="M216.623,70.826a20.349,20.349,0,0,0-3.87.387,17.569,17.569,0,0,0-7.825,3.5c-2.322,1.966-3.4,4.334-2.941,6.656a5.416,5.416,0,0,0,.356,1.138c-2.422,11.5-17.53,11.841-19.279,11.841h-.17a2.252,2.252,0,0,0-1,.232,26.848,26.848,0,0,1-29.642-4.28,2.259,2.259,0,0,0-.681-.433,42.018,42.018,0,0,0-14.953-2.771,31.526,31.526,0,0,0-23.636,9.953c-.774.774-6.548,6.857-7.507,12.608v.139c0,.232-.062.464-.077.689a.514.514,0,0,0,0,.108v.82h0v.356a7.946,7.946,0,0,0,5.719,7.546,7.089,7.089,0,0,0,1.71.209,8.157,8.157,0,0,0,6.8-3.994,2.361,2.361,0,0,0,.3-1.726l-1.385-6.292a27.483,27.483,0,0,1,20.185-8.366,34.176,34.176,0,0,1,6.648.658c-5.1,9.427-11.571,25.85-8.513,44.8a3.1,3.1,0,0,0,.5,1.277,44.306,44.306,0,0,0,.379,7.144c.24,1.672.983,6.749,4.543,7.515a20.123,20.123,0,0,0,4.079.395,20.41,20.41,0,0,0,3.87-.348c2.987-.588,4.179-4.644,3.692-7.182a20.122,20.122,0,0,1-.1-5.851,56.632,56.632,0,0,1,8.575,1.625c.859,4.791,2.128,7.948,3.777,9.4,2.082,1.827,5.526,2.748,8.049,3.2a7.057,7.057,0,0,0,1.277.116,6.718,6.718,0,0,0,4.783-1.935c2.778-2.755,2.113-6.3,1.471-8.165-.519-1.548-.867-2.74-1.107-3.7a2.582,2.582,0,0,0,.279-.356l.325-.472a3.924,3.924,0,0,0,.224-4.086c-.774-1.486-4.644-9.636-3.39-24.054v-.062a54.379,54.379,0,0,1,2.755-13.683c12.786-.046,22.243-3.165,28.125-9.287a20.239,20.239,0,0,0,5.147-9.179c.588-.07,1.169-.155,1.757-.271,6.966-1.378,11.609-5.743,10.719-10.154-.681-3.475-4.566-5.719-9.891-5.719m0,2.322c4.009,0,7.167,1.478,7.639,3.87.6,3.034-3.39,6.37-8.916,7.461a18.489,18.489,0,0,1-3.251.341c-.139,1.6-2.275,18.335-31.639,18.335h-1.316a57.969,57.969,0,0,0-3.506,15.827c-1.238,14.063,2.26,22.7,3.653,25.331a1.656,1.656,0,0,1-.093,1.718l-.325.472a.875.875,0,0,1-.735.387.774.774,0,0,1-.255-.039h0a36.033,36.033,0,0,0,1.548,5.743c1,2.9.163,4.706-.921,5.789a4.473,4.473,0,0,1-3.165,1.262,4.645,4.645,0,0,1-.867-.077c-1.958-.348-5.193-1.138-6.966-2.67-1.873-1.641-2.879-6.849-3.3-9.69a6.051,6.051,0,0,1-1.385-.2,57.272,57.272,0,0,0-10.835-1.857.681.681,0,0,1-.325-.085h0a24.882,24.882,0,0,0-.217,8.815c.294,1.548-.457,4.218-1.881,4.5a19.271,19.271,0,0,1-6.966-.039c-3.049-.658-3.274-9.821-3.1-13.366a.882.882,0,0,1-.573-.689c-3.243-20.277,4.837-37.629,9.744-45.926a34.958,34.958,0,0,0-10.123-1.47,29.565,29.565,0,0,0-22.684,9.984l1.641,7.469a5.905,5.905,0,0,1-4.86,2.926,4.945,4.945,0,0,1-1.153-.139,5.66,5.66,0,0,1-3.986-5.464v-.279h0v-.611a.216.216,0,0,0,0-.07,3.355,3.355,0,0,1,.07-.542V110c.875-5.255,6.9-11.4,6.9-11.4a29.227,29.227,0,0,1,21.98-9.287,39.75,39.75,0,0,1,14.21,2.67h0a29.116,29.116,0,0,0,32.212,4.644h.17c1.9,0,19.465-.379,21.671-14.519a3.2,3.2,0,0,1-.511-1.192c-.6-3.034,3.4-6.37,8.916-7.461a17.939,17.939,0,0,1,3.436-.341" transform="translate(-23.828 -15.999)" fill="#fd0"/>
    <path id="Trazado_46758" data-name="Trazado 46758" d="M221.714,36.713c1.037,1.548,3.607.967,4.644-.48,2.144-3.018,2.647-7.205,5.418-9.736,1.989-1.95,4.829-1.943,7.206-1.161,6.718,2.244,13.931,4.063,21.044,2.74,3.1-.642,6.486-2.1,8.034-5.418,1.455-2.322,1.076-5.34.395-7.825-.093-.3-.232-.867-.341-1.13h0a.457.457,0,0,0-.851.039c-.813,2.546-2.639,4.706-5.162,5.162-2.361.7-4.853-.139-6.88-1.416-3.1-1.888-5.124-5.3-7.956-7.585A32.451,32.451,0,0,0,235.986,3.89,24.392,24.392,0,0,0,219.2,5.121a15.185,15.185,0,0,0-7.329,8.034c-2.322,6.385.967,13.374,1.347,14.078a15.534,15.534,0,0,1,.859,1.943,12.907,12.907,0,0,1,.464,1.548c.093.356,1.354,5.085,4.566,6.037a4.644,4.644,0,0,0,2.639-.046" transform="translate(-47.71 -0.67)" fill="#fd0"/>
    <path id="Trazado_46759" data-name="Trazado 46759" d="M228.26,0a24.6,24.6,0,0,0-10.766,2.384,17.491,17.491,0,0,0-8.513,9.287c-2.794,7.739,1.432,15.858,1.478,15.936h0a12.08,12.08,0,0,1,.712,1.61,10.843,10.843,0,0,1,.379,1.254v.077a15.658,15.658,0,0,0,1.316,3.32,8.413,8.413,0,0,0,4.814,4.35,6.346,6.346,0,0,0,1.842.263,5.728,5.728,0,0,0,.728-.039,4.566,4.566,0,0,0,2.577.774,5.836,5.836,0,0,0,4.644-2.376,22.843,22.843,0,0,0,2.368-4.644,13.39,13.39,0,0,1,2.709-4.713h0a3.676,3.676,0,0,1,2.693-1,7.043,7.043,0,0,1,2.183.379c5.015,1.618,10.828,3.32,16.88,3.32a29.534,29.534,0,0,0,5.418-.488h.062c4.644-.991,7.972-3.251,9.574-6.555,1.471-2.43,1.664-5.634.58-9.535v-.039l-.085-.31c-.116-.418-.209-.735-.31-1.006h0a2.747,2.747,0,0,0-5.17.193c-.488,1.548-1.633,3.282-3.382,3.6h-.255a3.769,3.769,0,0,1-1.115.155,7.74,7.74,0,0,1-3.87-1.323h-.039a19.456,19.456,0,0,1-4.11-3.823,31.553,31.553,0,0,0-3.56-3.56A34.465,34.465,0,0,0,236,1.06h-.132A30.045,30.045,0,0,0,228.26,0m0,2.322a27.808,27.808,0,0,1,7.012.921,32.451,32.451,0,0,1,11.276,6.014c2.833,2.322,4.837,5.7,7.956,7.585a9.875,9.875,0,0,0,5.1,1.672,6.114,6.114,0,0,0,1.78-.255c2.523-.457,4.35-2.616,5.162-5.162a.457.457,0,0,1,.851-.039h0c.108.263.248.828.341,1.13.681,2.484,1.06,5.511-.395,7.825-1.548,3.3-4.961,4.752-8.034,5.418a27.32,27.32,0,0,1-5.007.449c-5.464,0-10.889-1.471-16.036-3.189a9.527,9.527,0,0,0-2.91-.5,5.967,5.967,0,0,0-4.3,1.656c-2.755,2.531-3.258,6.718-5.418,9.736A3.56,3.56,0,0,1,222.866,37a2.105,2.105,0,0,1-1.85-.936,5.417,5.417,0,0,1-1.455.217,4.1,4.1,0,0,1-1.184-.17c-3.212-.952-4.473-5.681-4.566-6.037a12.9,12.9,0,0,0-.464-1.548,15.525,15.525,0,0,0-.859-1.943c-.379-.7-3.653-7.693-1.347-14.078a15.185,15.185,0,0,1,7.329-8.034,22.375,22.375,0,0,1,9.79-2.152" transform="translate(-47.027 0.001)" fill="#fd0"/>
    <path id="Trazado_46760" data-name="Trazado 46760" d="M220.094,50.552c6.726-12.971-9.218-11.834-10.325-11.741a29.24,29.24,0,0,1,10.325,11.741" transform="translate(-47.421 -8.758)" fill="#fd0"/>
    <path id="Trazado_46761" data-name="Trazado 46761" d="M209.5,35.74c-.96,0-1.656.046-1.912.07l-6.641.565,5.572,3.645a26.887,26.887,0,0,1,9.52,10.835l1.974,4.117,2.113-4.071c2.214-4.288,2.5-7.84.844-10.564-1.277-2.1-4.3-4.6-11.493-4.6m0,2.322c4.233,0,14.163,1.084,8.606,11.8a29.24,29.24,0,0,0-10.325-11.741c.194,0,.828-.062,1.718-.062" transform="translate(-45.428 -8.078)" fill="#fd0"/>
    <path id="Trazado_46762" data-name="Trazado 46762" d="M209.807,61.83a29.108,29.108,0,1,1-29.1-29.1,29.108,29.108,0,0,1,29.1,29.1" transform="translate(-34.27 -7.398)" fill="#fd0"/>
    <path id="Trazado_46763" data-name="Trazado 46763" d="M180.037,29.76a31.4,31.4,0,1,0,31.391,31.4,31.4,31.4,0,0,0-31.391-31.4m0,2.322a29.1,29.1,0,1,1-29.108,29.1,29.1,29.1,0,0,1,29.108-29.1" transform="translate(-33.601 -6.726)" fill="#fd0"/>
    <path id="Trazado_46764" data-name="Trazado 46764" d="M258.4,66.194a2.043,2.043,0,0,0-.573-1.865c-3.1-3.1-8.808-5.6-15.541-6.486-6.617-.875-12.662.039-16.439,2.128a2.515,2.515,0,0,0-1.262,2.19c0,7.26,6.509,13.769,15.239,14.929h0c8.908,1.176,16.934-3.645,18.575-10.9" transform="translate(-50.772 -13)" fill="#fd0"/>
    <path id="Trazado_46765" data-name="Trazado 46765" d="M236.683,54.548A26.673,26.673,0,0,0,224.068,57.3a4.768,4.768,0,0,0-2.438,4.2c0,8.513,7.422,15.889,17.22,17.2h.039a23.923,23.923,0,0,0,2.964.193,20.517,20.517,0,0,0,11.609-3.506,15.611,15.611,0,0,0,6.486-9.373,4.288,4.288,0,0,0-1.192-3.986c-3.568-3.552-9.868-6.192-16.864-7.136a40.044,40.044,0,0,0-5.232-.348m0,2.322a37.715,37.715,0,0,1,4.938.333c6.733.882,12.445,3.405,15.541,6.486a2.043,2.043,0,0,1,.573,1.865c-1.424,6.5-8.057,11.021-15.858,11.021a19.471,19.471,0,0,1-2.662-.178h0c-8.73-1.161-15.216-7.67-15.239-14.929a2.515,2.515,0,0,1,1.262-2.19,24.516,24.516,0,0,1,11.5-2.461" transform="translate(-50.102 -12.328)" fill="#fd0"/>
    <path id="Trazado_46766" data-name="Trazado 46766" d="M229.46,60.409a43.248,43.248,0,0,0,26.2,3.39c-12.383-26.531-26.2-3.39-26.2-3.39" transform="translate(-51.872 -11.541)" fill="#fd0"/>
    <path id="Trazado_46767" data-name="Trazado 46767" d="M241.585,48.09c-8.452,0-14.543,10.061-14.8,10.472a2.322,2.322,0,0,0,.867,3.2A43.926,43.926,0,0,0,247.22,66.1a47.011,47.011,0,0,0,8.134-.712,2.322,2.322,0,0,0,1.71-3.227c-4.357-9.334-9.558-14.07-15.479-14.07m0,2.322c4.156,0,8.862,3.1,13.374,12.739a44.579,44.579,0,0,1-7.739.681,41.794,41.794,0,0,1-18.466-4.071s5.572-9.349,12.824-9.349" transform="translate(-51.196 -10.87)" fill="#fd0"/>
    <path id="Trazado_46768" data-name="Trazado 46768" d="M225.767,77.567c-.6-3.034-5.557-4.644-11.083-3.521s-9.5,4.427-8.908,7.461a3.243,3.243,0,0,0,.5,1.192c-2.322,14.945-21.849,14.519-21.849,14.519h0a29.116,29.116,0,0,1-32.212-4.644h0s-21.346-9.086-36.066,6.64a15.023,15.023,0,0,0-4.1,8.173v.116c0,.178-.046.356-.062.542a.218.218,0,0,0,0,.07v.611h0v.054a2.1,2.1,0,0,0,0,.224,6.455,6.455,0,0,0,7.205,5.9l-1.641-7.469c12.228-13.66,28.953-9.729,32.808-8.513-4.907,8.289-12.987,25.641-9.752,45.926a.867.867,0,0,0,.58.681c-.209,3.545,0,12.716,3.1,13.366a19.046,19.046,0,0,0,6.966.046c1.424-.286,2.183-2.964,1.888-4.5a25.092,25.092,0,0,1,.209-8.815h0a.774.774,0,0,0,.325.093,56.568,56.568,0,0,1,10.8,1.857,5.993,5.993,0,0,0,1.385.2c.418,2.833,1.424,8.041,3.289,9.682,1.749,1.548,4.992,2.322,6.966,2.67a4.566,4.566,0,0,0,4.04-1.184c1.083-1.076,1.919-2.879.921-5.789a36.24,36.24,0,0,1-1.548-5.735h0a.89.89,0,0,0,.991-.348l.317-.472a1.648,1.648,0,0,0,.1-1.726c-1.4-2.624-4.9-11.269-3.653-25.331a57.86,57.86,0,0,1,3.413-15.843c30.617.5,32.823-16.7,32.963-18.327a17.2,17.2,0,0,0,3.251-.341c5.518-1.084,9.512-4.427,8.916-7.453" transform="translate(-25.317 -16.656)" fill="#fff"/>
    <path id="Trazado_46769" data-name="Trazado 46769" d="M153.344,144.951h0a.254.254,0,0,0,.1,0,57.859,57.859,0,0,1,10.92,1.873,5.046,5.046,0,0,0,1.246.178.573.573,0,0,1,.55.5c.72,4.829,1.85,8.235,3.1,9.342,1.672,1.463,4.891,2.214,6.664,2.531a4.017,4.017,0,0,0,3.537-1.022c1.269-1.269,1.548-3.011.774-5.2a38.283,38.283,0,0,1-1.548-5.828.581.581,0,0,1,.217-.55.588.588,0,0,1,.519-.1.3.3,0,0,0,.348-.124l.325-.472a1.1,1.1,0,0,0,.07-1.13c-.859-1.61-5.069-10.417-3.723-25.649a57.843,57.843,0,0,1,3.49-15.99.565.565,0,0,1,.55-.371c29.944.5,32.212-15.928,32.374-17.8a.58.58,0,0,1,.565-.526,17.548,17.548,0,0,0,3.15-.325c5.108-1.014,8.986-4.117,8.459-6.788s-5.286-4.079-10.4-3.1-8.986,4.11-8.459,6.78a2.607,2.607,0,0,0,.418.983.6.6,0,0,1,.093.41c-2.322,14.589-20.5,15-22.3,15.007a29.7,29.7,0,0,1-32.653-4.729,39.541,39.541,0,0,0-12.267-2.5c-9.334-.387-17.1,2.655-23.071,9.04h0a14.635,14.635,0,0,0-3.924,7.84v.108c0,.17-.046.333-.054.5v.735a1.491,1.491,0,0,0,0,.186,5.611,5.611,0,0,0,3.645,4.984,4.8,4.8,0,0,0,2.275.41l-1.486-6.8a.573.573,0,0,1,.132-.5c12.786-14.295,30.068-9.736,33.4-8.676a.573.573,0,0,1,.364.341.588.588,0,0,1-.039.5c-4.992,8.428-12.871,25.54-9.674,45.547a.286.286,0,0,0,.2.232.58.58,0,0,1,.379.58c-.3,5.054.441,12.306,2.608,12.77a18.575,18.575,0,0,0,6.772.039c.991-.193,1.695-2.453,1.432-3.87a25.618,25.618,0,0,1,.209-9.024.581.581,0,0,1,.31-.41.6.6,0,0,1,.488,0m23.389,15.688a5.2,5.2,0,0,1-.975-.093c-2.322-.41-5.418-1.238-7.213-2.8s-2.856-5.99-3.421-9.574a6.365,6.365,0,0,1-1.029-.193,57.363,57.363,0,0,0-10.564-1.8,23.69,23.69,0,0,0-.108,8.034c.34,1.788-.511,4.814-2.322,5.17a19.775,19.775,0,0,1-7.236-.039c-3.87-.82-3.614-11.485-3.529-13.6a1.455,1.455,0,0,1-.557-.929c-3.173-19.867,4.381-36.91,9.45-45.663-4.419-1.262-19.736-4.381-31.314,8.335l1.548,7.182a.55.55,0,0,1-.108.472.588.588,0,0,1-.433.224h-.139a6.656,6.656,0,0,1-3.312-.48,6.8,6.8,0,0,1-4.342-5.967V107.8a3.767,3.767,0,0,1,.077-.611v-.116a15.564,15.564,0,0,1,4.264-8.513c7.74-8.266,17.313-9.667,23.992-9.38A39.852,39.852,0,0,1,152.253,91.8a.6.6,0,0,1,.163.108,28.566,28.566,0,0,0,31.577,4.559.627.627,0,0,1,.279-.062,32.164,32.164,0,0,0,9.868-1.633c6.54-2.237,10.363-6.331,11.362-12.182a3.809,3.809,0,0,1-.472-1.207c-.666-3.4,3.444-6.966,9.365-8.134s11.083.58,11.749,3.97-3.444,6.966-9.365,8.134a18.929,18.929,0,0,1-2.848.341c-.488,3.429-4.233,18.343-32.142,18.343h-.929a56.434,56.434,0,0,0-3.251,15.378c-1.316,14.922,2.755,23.466,3.591,25.03a2.244,2.244,0,0,1-.132,2.322l-.325.472a1.47,1.47,0,0,1-.774.573,37.5,37.5,0,0,0,1.409,5.007c1.13,3.282.046,5.286-1.06,6.385a5.054,5.054,0,0,1-3.568,1.432" transform="translate(-25.142 -16.474)" fill="#1d1d1b"/>
    <path id="Trazado_46770" data-name="Trazado 46770" d="M157.13,181.405c-2.415.294-3.785-1.811-4.342-2.964a.642.642,0,0,1,.433-.906,15.48,15.48,0,0,1,4.365-.488,1,1,0,0,1,.882.921c.085,1.169,0,3.274-1.339,3.436m6.362-.077a47.85,47.85,0,0,0-1.811-5.913.341.341,0,0,0-.317-.217,37.782,37.782,0,0,0-11.385,1.548.34.34,0,0,0-.232.41c.457,1.734,3.057,10.023,10.928,8.088,0,0,3.514-.828,2.817-3.87" transform="translate(-33.851 -39.602)" fill="#1d1d1b"/>
    <path id="Trazado_46771" data-name="Trazado 46771" d="M156.788,177.3a17.232,17.232,0,0,0-3.63.5.263.263,0,0,0-.178.139.294.294,0,0,0,0,.232c.557,1.138,1.8,3.011,3.955,2.748h0c1.091-.132,1.068-2.159,1-3.034a.6.6,0,0,0-.534-.565h-.611m-.248,4.412c-2.415,0-3.761-2.206-4.241-3.2a1.022,1.022,0,0,1,0-.89,1,1,0,0,1,.7-.557,15.526,15.526,0,0,1,4.481-.5,1.362,1.362,0,0,1,1.231,1.269c.17,2.322-.426,3.7-1.672,3.87a3.591,3.591,0,0,1-.488,0M149.993,177c.449,1.718,2.972,9.612,10.448,7.778.132,0,3.142-.774,2.539-3.452a47.327,47.327,0,0,0-1.788-5.836,38.055,38.055,0,0,0-11.2,1.509m8.25,8.831c-6.377,0-8.591-7.1-9-8.668a.72.72,0,0,1,.48-.882,38.327,38.327,0,0,1,11.5-1.548.774.774,0,0,1,.673.472,47.754,47.754,0,0,1,1.857,5.928c.619,2.732-1.757,4.055-3.1,4.365a9.977,9.977,0,0,1-2.376.31" transform="translate(-33.733 -39.495)" fill="#1d1d1b"/>
    <path id="Trazado_46772" data-name="Trazado 46772" d="M194.612,182.942c-1.625.418-3.49-.774-4.644-1.687a.929.929,0,0,1,.248-1.594l2.748-1.029a2.02,2.02,0,0,1,2.322.642,4.52,4.52,0,0,1,1.014,2.152c0,1.184-1.115,1.362-1.695,1.548m6.88-1.981a16.524,16.524,0,0,1-3.374-4.551.5.5,0,0,0-.635-.271L185.627,180.4a.5.5,0,0,0-.217.774,14.38,14.38,0,0,0,6.045,4.551,10.387,10.387,0,0,0,5.069.588c4.195-.55,5.278-2.322,5.511-3.576a2.013,2.013,0,0,0-.55-1.772" transform="translate(-41.891 -39.815)" fill="#1d1d1b"/>
    <path id="Trazado_46773" data-name="Trazado 46773" d="M193.582,178.776a1.594,1.594,0,0,0-.6.108l-2.755,1.029a.549.549,0,0,0-.34.433.511.511,0,0,0,.2.5c1.176.944,2.887,1.989,4.319,1.618h.147c.712-.178,1.254-.371,1.254-1.107a4.156,4.156,0,0,0-.929-1.919,1.641,1.641,0,0,0-1.3-.627m.209,4.528a7.277,7.277,0,0,1-4.179-1.857,1.293,1.293,0,0,1-.48-1.215,1.316,1.316,0,0,1,.828-1.029l2.74-1.068a2.422,2.422,0,0,1,2.778.774,4.9,4.9,0,0,1,1.091,2.4c0,1.409-1.238,1.718-1.842,1.865H194.6a3.206,3.206,0,0,1-.813.1m3.754-6.919h0l-11.849,4.233a.132.132,0,0,0-.077.085.116.116,0,0,0,0,.116,14.125,14.125,0,0,0,5.89,4.435,9.976,9.976,0,0,0,4.884.565c3.87-.5,4.953-2.051,5.178-3.266a1.625,1.625,0,0,0-.441-1.432,16.918,16.918,0,0,1-3.452-4.644.139.139,0,0,0-.116-.077m-2.531,10.27a10.7,10.7,0,0,1-3.816-.7,15.03,15.03,0,0,1-6.192-4.644.913.913,0,0,1-.163-.774.89.89,0,0,1,.557-.6l11.841-4.234a.89.89,0,0,1,1.114.48,16.255,16.255,0,0,0,3.3,4.442,2.384,2.384,0,0,1,.642,2.113c-.271,1.455-1.509,3.312-5.828,3.87a11.446,11.446,0,0,1-1.447.093" transform="translate(-41.783 -39.712)" fill="#1d1d1b"/>
    <path id="Trazado_46774" data-name="Trazado 46774" d="M185.334,125.406a60.369,60.369,0,0,1,5.89-21.717,29.162,29.162,0,0,1-29.41-4.009c-1.2,1.548-17.483,23.644-13.111,51.042a.89.89,0,0,0,1.161.689c2.121-.712,7.3-2.036,11.609.085a.774.774,0,0,0,.325.093,56.569,56.569,0,0,1,10.8,1.857,5.867,5.867,0,0,0,2.593.108,37.032,37.032,0,0,1,12.53-.248.89.89,0,0,0,.9-.372l.317-.472a1.649,1.649,0,0,0,.1-1.726c-1.393-2.624-4.9-11.269-3.653-25.331" transform="translate(-33.449 -22.532)" fill="#1d1d1b"/>
    <path id="Trazado_46775" data-name="Trazado 46775" d="M155.891,149.531a12.655,12.655,0,0,1,5.619,1.207.254.254,0,0,0,.1,0,57.862,57.862,0,0,1,10.92,1.873,5.3,5.3,0,0,0,2.322.1,37.359,37.359,0,0,1,12.731-.248.325.325,0,0,0,.325-.132l.317-.472a1.1,1.1,0,0,0,.07-1.13c-.859-1.61-5.069-10.417-3.723-25.641a60.592,60.592,0,0,1,5.325-20.61,29.68,29.68,0,0,1-10.216,1.8,29.333,29.333,0,0,1-17.932-6.037,74.407,74.407,0,0,0-8.227,15.239c-4.752,11.818-6.246,23.559-4.427,34.9a.294.294,0,0,0,.139.209.333.333,0,0,0,.271,0,20.812,20.812,0,0,1,6.4-1.091m18.033,4.45a6.263,6.263,0,0,1-1.695-.232,56.787,56.787,0,0,0-10.688-1.834,1.346,1.346,0,0,1-.542-.147c-4.11-2.043-9.164-.72-11.145-.062a1.455,1.455,0,0,1-1.912-1.145c-1.842-11.547-.333-23.489,4.5-35.5a73.774,73.774,0,0,1,8.722-15.974l.356-.464.457.364a28.559,28.559,0,0,0,28.853,3.924l1.416-.6-.673,1.378a59.725,59.725,0,0,0-5.843,21.562h0c-1.316,14.906,2.755,23.451,3.591,25.014a2.244,2.244,0,0,1-.132,2.322l-.325.472a1.478,1.478,0,0,1-1.478.611,36.212,36.212,0,0,0-12.321.248,6.308,6.308,0,0,1-1.145.108" transform="translate(-33.277 -22.285)" fill="#1d1d1b"/>
    <path id="Trazado_46776" data-name="Trazado 46776" d="M159.7,150.1a.371.371,0,0,1-.371-.294c-5.75-24.294,10.657-46.9,10.835-47.126a.387.387,0,0,1,.534-.085.371.371,0,0,1,.077.534c-.163.224-16.361,22.553-10.7,46.5a.387.387,0,0,1-.286.464h-.085" transform="translate(-35.744 -23.176)" fill="#fff"/>
    <path id="Trazado_46777" data-name="Trazado 46777" d="M171.557,113.918a.774.774,0,0,1-.5-.186,7.515,7.515,0,0,0-6.966-1.416.774.774,0,1,1-.519-1.44,8.962,8.962,0,0,1,8.513,1.695.774.774,0,0,1-.5,1.347" transform="translate(-36.838 -24.967)" fill="#fff"/>
    <path id="Trazado_46778" data-name="Trazado 46778" d="M164.96,129.113a.774.774,0,0,1-.464-.163,5.967,5.967,0,0,0-6.145-.867.774.774,0,0,1-.689-1.37,7.492,7.492,0,0,1,7.74,1.029.774.774,0,0,1-.472,1.37" transform="translate(-35.567 -28.498)" fill="#fff"/>
    <path id="Trazado_46779" data-name="Trazado 46779" d="M155.349,146.707a.758.758,0,0,1-.534-1.3,5.967,5.967,0,0,1,6.757-.991.774.774,0,0,1-.642,1.393,4.473,4.473,0,0,0-5.015.666.774.774,0,0,1-.549.232" transform="translate(-34.949 -32.502)" fill="#fff"/>
    <path id="Trazado_46780" data-name="Trazado 46780" d="M221.7,36.61c1.037,1.587,3.607.96,4.644-.48,2.144-3.026,2.647-7.213,5.418-9.744,2-1.95,4.837-1.943,7.205-1.153,6.726,2.237,13.931,4.055,21.051,2.74,3.1-.65,6.486-2.105,8.034-5.418,1.455-2.322,1.076-5.348.387-7.825-.085-.31-.232-.875-.333-1.138h0a.449.449,0,0,0-.851.039,7.051,7.051,0,0,1-5.162,5.162c-2.322.7-4.853-.147-6.88-1.424-3.1-1.881-5.116-5.294-7.948-7.577a32.568,32.568,0,0,0-11.284-6.021A24.415,24.415,0,0,0,219.2,5a15.208,15.208,0,0,0-7.376,8.026c-2.322,6.377.967,13.366,1.339,14.078a13.151,13.151,0,0,1,.867,1.935,14.049,14.049,0,0,1,.464,1.548c.093.356,1.354,5.077,4.566,6.029a4.644,4.644,0,0,0,2.639-.039" transform="translate(-47.699 -0.643)" fill="#1d1d1b"/>
    <path id="Trazado_46781" data-name="Trazado 46781" d="M221.786,35.781l.232.348a1.548,1.548,0,0,0,1.323.673,3,3,0,0,0,2.322-1.169,21.058,21.058,0,0,0,2.066-4.11,15.24,15.24,0,0,1,3.413-5.719c1.865-1.827,4.706-2.322,7.74-1.285,6.579,2.19,13.645,4.04,20.765,2.724,3.87-.774,6.416-2.523,7.616-5.085V22.1c1.091-1.734,1.2-4.21.325-7.368a2,2,0,0,0-.1-.356c-.039-.139-.07-.255-.108-.379a7.51,7.51,0,0,1-5.456,5.2c-2.786.82-5.518-.364-7.322-1.494a22.151,22.151,0,0,1-4.76-4.357,29.408,29.408,0,0,0-3.243-3.266,31.91,31.91,0,0,0-10.99-5.913,23.883,23.883,0,0,0-16.354,1.2A14.535,14.535,0,0,0,212.22,13.1c-2.322,6.447,1.269,13.544,1.308,13.614a15.624,15.624,0,0,1,.9,2.012,15.352,15.352,0,0,1,.464,1.548v.07c.046.193,1.238,4.76,4.172,5.627a4.1,4.1,0,0,0,2.322-.046Zm1.6,2.167h-.062a2.693,2.693,0,0,1-2.012-.859,5.108,5.108,0,0,1-2.585-.054c-3.483-1.029-4.814-5.89-4.953-6.439v-.077a14.48,14.48,0,0,0-.433-1.416,13.672,13.672,0,0,0-.813-1.842c-.054-.1-3.87-7.654-1.393-14.573a15.75,15.75,0,0,1,7.608-8.335c6.385-3.1,12.863-2.391,17.174-1.269a33,33,0,0,1,11.509,6.13,29.624,29.624,0,0,1,3.374,3.382,20.377,20.377,0,0,0,4.5,4.141c1.618,1.022,4.032,2.082,6.416,1.37h.062c2.128-.387,3.87-2.175,4.721-4.775a1.022,1.022,0,0,1,.944-.72,1.006,1.006,0,0,1,.983.642,8.1,8.1,0,0,1,.263.851,1.426,1.426,0,0,0,.093.348c.967,3.467.82,6.246-.433,8.258-1.37,2.887-4.195,4.8-8.413,5.689-7.415,1.37-14.953-.619-21.353-2.755-1.254-.41-4.4-1.145-6.625,1.022A14.171,14.171,0,0,0,228.821,32a22.335,22.335,0,0,1-2.19,4.334,4.118,4.118,0,0,1-3.243,1.649" transform="translate(-47.541 -0.48)" fill="#1d1d1b"/>
    <path id="Trazado_46782" data-name="Trazado 46782" d="M220.084,50.41c6.726-12.979-9.218-11.841-10.325-11.749A29.264,29.264,0,0,1,220.084,50.41" transform="translate(-47.419 -8.724)" fill="#fd0"/>
    <path id="Trazado_46783" data-name="Trazado 46783" d="M210.994,39.013a29.751,29.751,0,0,1,8.575,9.938c1.316-2.933,1.432-5.24.348-6.873-1.78-2.655-6.4-3.1-8.924-3.1m8.568,12.507-.5-1.029a28.636,28.636,0,0,0-10.116-11.485l-1.393-.906,1.656-.147c.906-.07,8.908-.627,11.671,3.514,1.463,2.2,1.2,5.247-.774,9.071Z" transform="translate(-46.92 -8.557)" fill="#1d1d1b"/>
    <path id="Trazado_46784" data-name="Trazado 46784" d="M209.791,61.721a29.1,29.1,0,1,1-29.1-29.1,29.1,29.1,0,0,1,29.1,29.1" transform="translate(-34.27 -7.373)" fill="#fff"/>
    <path id="Trazado_46785" data-name="Trazado 46785" d="M180.521,33.031a28.528,28.528,0,1,0,28.528,28.525,28.528,28.528,0,0,0-28.528-28.525m0,58.2A29.681,29.681,0,1,1,210.2,61.551a29.681,29.681,0,0,1-29.681,29.681" transform="translate(-34.1 -7.203)" fill="#1d1d1b"/>
    <path id="Trazado_46786" data-name="Trazado 46786" d="M162.319,60.826a.766.766,0,0,1-.573-1.269,12.541,12.541,0,0,1,8.018-4c3-.17,5.921,1.022,8.684,3.552a.777.777,0,1,1-1.068,1.13c-2.446-2.244-4.984-3.3-7.561-3.158a11.21,11.21,0,0,0-6.966,3.483.774.774,0,0,1-.58.263" transform="translate(-36.524 -12.554)" fill="#1d1d1b"/>
    <path id="Trazado_46787" data-name="Trazado 46787" d="M208.694,65.221a.774.774,0,0,1-.635-.333c-1.85-2.709-4.079-4.319-6.633-4.775-4.2-.774-7.948,1.873-7.979,1.9a.774.774,0,1,1-.89-1.246,13.174,13.174,0,0,1,9.125-2.159c2.98.526,5.549,2.322,7.647,5.418a.762.762,0,0,1-.635,1.192" transform="translate(-43.435 -13.211)" fill="#1d1d1b"/>
    <path id="Trazado_46788" data-name="Trazado 46788" d="M182.87,92.27h0c-5.247,0-9.125-6.493-9.287-6.772a.774.774,0,0,1,1.323-.774c0,.062,3.6,6,7.972,6.014h0c2.368,0,4.644-1.765,6.726-5.255a.774.774,0,0,1,1.316.774c-2.391,3.978-5.093,6-8.041,6" transform="translate(-39.228 -19.084)" fill="#1d1d1b"/>
    <path id="Trazado_46789" data-name="Trazado 46789" d="M198.877,46.34a34.95,34.95,0,0,1,2.275,2.98,30.238,30.238,0,0,1,8.235,7.345c-1.981-13.157-13.505-23.28-27.754-23.335a28.336,28.336,0,0,0-26.864,18.2,37.034,37.034,0,0,1,11.841-6.076l.139-.054c1.084-.348,2.183-1.85,2.871-2.67a6.494,6.494,0,0,1,1.548-1.269.116.116,0,0,1,.178.108l-.271,2.631a83.413,83.413,0,0,1,8.513-.565c1.161.039,2.322.054,3.444.139a11.609,11.609,0,0,0,1.207-2.1c.449-.975.689-1.455.774-1.664a.085.085,0,0,1,.147,0,22.991,22.991,0,0,1,1.517,2.546,20.807,20.807,0,0,0,1.06,1.966s5.712,1.184,7.948,2.322,2.778.929,2.778.929l.248-1.409a.093.093,0,0,1,.163,0" transform="translate(-34.989 -7.533)" fill="#1d1d1b"/>
    <path id="Trazado_46790" data-name="Trazado 46790" d="M101.978,81.419l6.075-1.323a.774.774,0,0,1,.9.573l16.717,76.458a.658.658,0,0,1-.317.72,3.994,3.994,0,0,1-2.98.5.65.65,0,0,1-.464-.472L101.413,82.34a.774.774,0,0,1,.565-.936" transform="translate(-22.922 -18.102)" fill="#fff"/>
    <path id="Trazado_46791" data-name="Trazado 46791" d="M101.933,81.816a.163.163,0,0,0-.116.085.17.17,0,0,0,0,.139l20.471,75.514a.108.108,0,0,0,.062.07,3.491,3.491,0,0,0,2.554-.441.1.1,0,0,0,0-.1L108.2,80.624a.232.232,0,0,0-.077-.116.186.186,0,0,0-.139,0Zm21.1,77.047a3.869,3.869,0,0,1-1.006-.132,1.262,1.262,0,0,1-.867-.875L100.687,82.342a1.354,1.354,0,0,1,.147-1.037,1.323,1.323,0,0,1,.851-.611l6.052-1.331a1.323,1.323,0,0,1,1.548,1.014L126,156.835a1.246,1.246,0,0,1-.6,1.347,5.1,5.1,0,0,1-2.415.681" transform="translate(-22.753 -17.933)" fill="#1d1d1b"/>
    <rect id="Rectángulo_19411" data-name="Rectángulo 19411" width="0.766" height="79.903" transform="translate(81.588 62.779) rotate(-13.82)" fill="#1d1d1b"/>
    <rect id="Rectángulo_19412" data-name="Rectángulo 19412" width="7.577" height="1.254" transform="translate(78.747 65.528) rotate(-12.65)" fill="#1d1d1b"/>
    <rect id="Rectángulo_19413" data-name="Rectángulo 19413" width="7.577" height="1.254" transform="translate(79.573 68.442) rotate(-12.65)" fill="#1d1d1b"/>
    <rect id="Rectángulo_19414" data-name="Rectángulo 19414" width="7.577" height="1.254" transform="matrix(0.976, -0.219, 0.219, 0.976, 80.293, 71.151)" fill="#1d1d1b"/>
    <path id="Trazado_46792" data-name="Trazado 46792" d="M258.394,66.085a2.028,2.028,0,0,0-.573-1.857c-3.1-3.1-8.807-5.6-15.549-6.493-6.609-.867-12.654.039-16.431,2.136a2.484,2.484,0,0,0-1.262,2.183c0,7.26,6.509,13.769,15.239,14.929h0c8.908,1.169,16.934-3.645,18.575-10.9" transform="translate(-50.769 -12.976)" fill="#1d1d1b"/>
    <path id="Trazado_46793" data-name="Trazado 46793" d="M237.155,57.822a23.756,23.756,0,0,0-11.222,2.392,1.919,1.919,0,0,0-.967,1.679c0,7.074,6.354,13.25,14.705,14.365h0c8.513,1.115,16.354-3.483,17.9-10.464a1.432,1.432,0,0,0-.41-1.331c-3.142-3.1-8.831-5.48-15.216-6.323a37.42,37.42,0,0,0-4.86-.325M242.2,77.566a21.119,21.119,0,0,1-2.686-.17c-8.978-1.2-15.742-7.863-15.765-15.479a3.1,3.1,0,0,1,1.548-2.686c4.025-2.229,10.294-3.057,16.787-2.2,6.633.875,12.569,3.359,15.874,6.648a2.593,2.593,0,0,1,.727,2.392c-1.509,6.8-8.513,11.524-16.493,11.524" transform="translate(-50.582 -12.816)" fill="#1d1d1b"/>
    <path id="Trazado_46794" data-name="Trazado 46794" d="M229.44,60.269a43.279,43.279,0,0,0,26.206,3.39c-12.383-26.531-26.206-3.39-26.206-3.39" transform="translate(-51.868 -11.51)" fill="#fff"/>
    <path id="Trazado_46795" data-name="Trazado 46795" d="M230.109,59.9a43.69,43.69,0,0,0,24.526,3.181c-3.653-7.554-7.74-11.493-12.136-11.718-6.029-.3-11.075,6.563-12.383,8.513m17.693,4.868A43.178,43.178,0,0,1,229,60.624a.557.557,0,0,1-.279-.356.572.572,0,0,1,.062-.449A27.923,27.923,0,0,1,232.7,54.9c3.235-3.235,6.633-4.868,9.852-4.7,4.992.248,9.512,4.644,13.444,13.057a.573.573,0,0,1-.418.813,44.775,44.775,0,0,1-7.74.673" transform="translate(-51.701 -11.346)" fill="#1d1d1b"/>
    <path id="Trazado_46796" data-name="Trazado 46796" d="M134.2,188.962a2.746,2.746,0,0,0-2.322-.364,4.52,4.52,0,0,0-2.717,1.223c-.774.859-.371,1.393-.944,3.661a39.92,39.92,0,0,1-2.4,5.843,15.281,15.281,0,0,1-1.3,2.322,5.844,5.844,0,0,1-1.687,1.687,5.649,5.649,0,0,1-.882.441,3.506,3.506,0,0,1-1.463.341,2.763,2.763,0,0,1-2.616-2.322,3.452,3.452,0,0,1,.356-1.865c.286-.7.573-.929.936-1.857a4.519,4.519,0,0,0,.356-1.13,3.614,3.614,0,0,0-1.865-3.421c-1.022-.511-2.159,0-4.442.774a38.933,38.933,0,0,0-6.029,3.011l-3.622,2.02c-.774.449-1.091.472-.921.062a14.106,14.106,0,0,1,2.322-2.647,25.918,25.918,0,0,1,3.87-3.3,20.26,20.26,0,0,1,3.049-1.788,20.545,20.545,0,0,1,2.446-1.045,1.765,1.765,0,0,1,2.144.735,1.858,1.858,0,0,0,2.322.774c.929-.325,1.246-1.153.952-2.492a6.323,6.323,0,0,0-1.115-2.755,4.032,4.032,0,0,0-1.912-1.122,5.27,5.27,0,0,0-2.322-.077,20.752,20.752,0,0,0-3.978,1.347,27.859,27.859,0,0,0-5.518,3.212,42.211,42.211,0,0,0-5.665,5.193,24.115,24.115,0,0,0-3.545,4.365,5.975,5.975,0,0,0-.6,2.322,5.238,5.238,0,0,0,.163,1.548c.07.209-.062.2-.147.217-1.308.1-2.19-.2-2.631-.906a5.564,5.564,0,0,1-.844-2.453,11.005,11.005,0,0,1,.588-3.87,29.412,29.412,0,0,0,.944-4.86,7.063,7.063,0,0,0-.426-3.816,4.365,4.365,0,0,0-1.006-1.176,3.754,3.754,0,0,0-.72-.433,4.94,4.94,0,0,0-3.483.17,9.133,9.133,0,0,0-2.322,1.122c-.851.534-1.633,1.068-2.322,1.587s-1.424,1.161-2.2,1.834-.542-.348.619-3.049,3.483-7.244,6.966-13.591,6.06-10.472,7.739-12.383,2.1-3.312,1.207-4.288h0a3.313,3.313,0,0,0-5.038.387,14.488,14.488,0,0,0-1.6,2.655q-.882,1.95-5.743,10.9c-3.235,5.959-6.47,12.1-9.225,18.428-.294.666-.565,1.292-.828,1.9a7.05,7.05,0,0,1-2.121,2.593,18.869,18.869,0,0,1-2.531,1.827,16.819,16.819,0,0,1-2.724,1.478c-1.246.519-2.144.774-2.98.248s-1.362-1.71-1.548-3.5.735-4.373,2.066-7.739,3.521-6.966,5.031-10.727,3.746-7.2,5.294-10.247,2.771-5.309,3.715-6.788l2.322-3.645a3.815,3.815,0,0,1,2.809-1.718q1.9-.286,7.19-.5t6.432-.286c.774-.046,1.873-.07,3.3-.054a38.762,38.762,0,0,0,4.59-.271,6.014,6.014,0,0,0,3.769-1.664q1.339-1.378-.418-2.6t-6.625-1.114q-4.876.1-6.826,0t-8.134,0c-4.125.077-7.058.17-8.792.263l-4.946.279Q71.327,148,60.1,149.1c-8.784.875-9.2.58-12.987,2.376-1.107.534-5.526,2.771-5.193,5.046a3.523,3.523,0,0,0,2.732,2.461c1.509.317,2.763-.519,3.769-1.045a10.635,10.635,0,0,1,1.293-.565c2.252-1.076,5.905-1.378,8.188-1.633a113.6,113.6,0,0,1,13.157-.929,1.494,1.494,0,0,1,.967.341c1.053,1-.263,3.978-.882,5.348-3.823,8.436-7.066,14.473-7.066,14.473-2.268,5.116-4.559,8.73-5.348,10.835s-1.981,4.133-2.4,6.037a28.2,28.2,0,0,0-.7,5.147,13.776,13.776,0,0,0,.983,5.116,7.562,7.562,0,0,0,3.227,3.924,6.114,6.114,0,0,0,4.226.735c1.943-.341,3.328-1.765,5.34-3.87,1.114-1.145,1.78-2,2.074-1.834.441.24-1.06,2.461,0,4.28a3.63,3.63,0,0,0,1.625,1.393c.728.341,1.455-.186,2.183-1.594s2.066-5.015,3.436-6.966a17.569,17.569,0,0,1,5.534-5.046q3.483-2.09,4.133-1.215c.433.588.379,2.206-.155,4.868a24.573,24.573,0,0,0-.658,5.967,4.117,4.117,0,0,0,1.176,2.724,3.3,3.3,0,0,0,2.1,1.308,7.151,7.151,0,0,0,2.956-.488,12.8,12.8,0,0,0,1.362-.542,6.284,6.284,0,0,1,2.422-.58,4.673,4.673,0,0,0,.96-.07,10.989,10.989,0,0,0,3.924-.813,39.626,39.626,0,0,0,4.907-2.577,26.316,26.316,0,0,1,3.816-2.1,1.432,1.432,0,0,1,.952,0,1.494,1.494,0,0,1,.635.542,4.5,4.5,0,0,1,.666,1.494,13.933,13.933,0,0,0,.557,1.587,5.535,5.535,0,0,0,.774,1.339,6.718,6.718,0,0,0,1.8,1.8,4.512,4.512,0,0,0,3.374.209l.17-.054c2.268-.774,3.405-2.066,3.73-1.811s-.681,1.548-.116,1.912a2.461,2.461,0,0,0,1.416.2,2.794,2.794,0,0,0,2.322-1.362,24.213,24.213,0,0,0,2.128-3.173,50.74,50.74,0,0,0,2.562-4.9c2.051-4.45,2.159-4.822,2.283-5.511.418-2.229,0-2.763-.2-2.949" transform="translate(-9.476 -33.288)" fill="#fd0"/>
    <path id="Trazado_46797" data-name="Trazado 46797" d="M92.363,145.19c-1.416,0-3.274,0-5.518.07-4.1.085-7.082.17-8.846.263l-4.961.279c-1.594.1-6.192.519-13.6,1.254-1.625.163-2.933.279-4.094.379-5.038.457-6.091.549-9.427,2.144-2.469,1.176-6.548,3.607-6.1,6.718a5.011,5.011,0,0,0,3.994,3.808,4.85,4.85,0,0,0,1,.1,7.252,7.252,0,0,0,3.506-1.107l.348-.186a8.515,8.515,0,0,1,1.037-.457l.2-.085c1.8-.859,4.93-1.192,6.966-1.409l.673-.07.488-.054c2.384-.271,7.956-.89,11.47-.89h.774a10.983,10.983,0,0,1-1.145,3.421c-3.73,8.25-6.88,14.132-7.012,14.372l-.193.356v.07c-1.153,2.577-2.322,4.775-3.266,6.563a38.338,38.338,0,0,0-1.974,4.04c-.279.774-.627,1.548-.96,2.244a21.1,21.1,0,0,0-1.509,4.017,29.682,29.682,0,0,0-.774,5.418,15.386,15.386,0,0,0,1.084,5.719,9.288,9.288,0,0,0,4,4.791,7.631,7.631,0,0,0,3.87,1.053,8.37,8.37,0,0,0,1.44-.132c2.082-.364,3.591-1.649,5.286-3.351a4.039,4.039,0,0,0,.488,1.2,5.108,5.108,0,0,0,2.322,2.028,2.546,2.546,0,0,0,1.107.255c1.857,0,2.856-1.927,3.181-2.562.255-.5.565-1.192.921-2a31.97,31.97,0,0,1,2.407-4.806,16.113,16.113,0,0,1,5.046-4.582,14.992,14.992,0,0,1,1.989-1.037,18.792,18.792,0,0,1-.41,3,25.33,25.33,0,0,0-.689,6.393,5.673,5.673,0,0,0,1.548,3.653,4.891,4.891,0,0,0,3.142,1.873h.588a9.628,9.628,0,0,0,3.1-.6,16.006,16.006,0,0,0,1.548-.6,4.5,4.5,0,0,1,1.8-.441,9.8,9.8,0,0,0,1.1-.077c.217,0,.433-.046.658-.062a10.361,10.361,0,0,0,3.715-.867,41.659,41.659,0,0,0,5.1-2.678h0a34.257,34.257,0,0,1,3.3-1.842,3.869,3.869,0,0,1,.348.89v.07c.093.271.147.457.193.6a10.066,10.066,0,0,0,.41,1.114,7.421,7.421,0,0,0,.952,1.695v.039a8.018,8.018,0,0,0,2.26,2.175,5.34,5.34,0,0,0,2.608.642,6.966,6.966,0,0,0,2-.3l.217-.062a10.836,10.836,0,0,0,1.633-.689,1.95,1.95,0,0,0,.557.573,3.359,3.359,0,0,0,1.974.5h.449a4.35,4.35,0,0,0,3.5-2l.333-.441a22.6,22.6,0,0,0,1.912-2.91l.441-.774a44.751,44.751,0,0,0,2.183-4.234c2.1-4.559,2.237-5.015,2.407-5.89.4-2.19.2-3.545-.666-4.4a3.452,3.452,0,0,0-2.508-.906,7.357,7.357,0,0,0-1.215.108h-.07a5.937,5.937,0,0,0-3.568,1.71,3.808,3.808,0,0,0-1,2.515,12.532,12.532,0,0,1-.325,1.834,36,36,0,0,1-2.237,5.418l-.062.147a14.248,14.248,0,0,1-1.176,2.066,4.21,4.21,0,0,1-1.2,1.223,3.708,3.708,0,0,1-.635.31,2.074,2.074,0,0,1-.774.225h0a1.153,1.153,0,0,1-1.091-.929,2.182,2.182,0,0,1,.263-1.006,3.6,3.6,0,0,1,.294-.565,8.056,8.056,0,0,0,.642-1.3,6.331,6.331,0,0,0,.457-1.5A5.085,5.085,0,0,0,119.4,192.9c1.262-.774,1.765-2.214,1.362-4.063a7.685,7.685,0,0,0-1.486-3.483,5.557,5.557,0,0,0-2.624-1.61,5.828,5.828,0,0,0-1.695-.24,8.586,8.586,0,0,0-1.323.116h-.07a21.934,21.934,0,0,0-4.311,1.447,29.746,29.746,0,0,0-5.836,3.4,44.405,44.405,0,0,0-5.882,5.418c-2.809,3.026-3.521,4.141-3.823,4.768A7.63,7.63,0,0,0,93,201.085a3.917,3.917,0,0,1-.294-1.176,8.947,8.947,0,0,1,.534-3.227,32.213,32.213,0,0,0,1-5.139,8.027,8.027,0,0,0-.635-4.791,5.8,5.8,0,0,0-1.385-1.61h0a5.691,5.691,0,0,0-1.084-.666,4.861,4.861,0,0,0-1.974-.4,8.514,8.514,0,0,0-2.678.511,10.836,10.836,0,0,0-2.631,1.292l-.774.48c1.285-2.717,3.312-6.6,6.052-11.609,3.405-6.192,5.944-10.27,7.546-12.058,2.91-3.235,2.26-5.294,1.207-6.447l-.039-.046A4.744,4.744,0,0,0,94.36,154.7a5.023,5.023,0,0,0-4.017,2.02,15.958,15.958,0,0,0-1.788,2.949c-.565,1.262-2.477,4.891-5.681,10.835-3.676,6.772-6.664,12.515-9.287,18.575l-.828,1.9a5.48,5.48,0,0,1-1.687,2,17.077,17.077,0,0,1-2.213,1.61l-.124.077-.232.139a13.7,13.7,0,0,1-2.237,1.145,5.078,5.078,0,0,1-1.354.418.193.193,0,0,1-.132-.039c-.147-.093-.642-.542-.851-2.322-.163-1.416.774-4.009,1.974-7,.635-1.633,1.486-3.313,2.384-5.093s1.857-3.684,2.631-5.619a55.608,55.608,0,0,1,3.351-6.563c.7-1.223,1.354-2.376,1.927-3.514,1.494-2.987,2.717-5.224,3.63-6.648l.132-.209,2.19-3.444a2.182,2.182,0,0,1,1.695-.991c1.207-.178,3.568-.348,6.966-.488,3.576-.147,5.7-.24,6.47-.286.6-.039,1.432-.054,2.484-.054h.936a39.837,39.837,0,0,0,4.559-.279A7.562,7.562,0,0,0,110,151.683a3.158,3.158,0,0,0,1.006-2.546,3.491,3.491,0,0,0-1.664-2.492c-1.37-.944-3.591-1.409-6.8-1.409h-.774c-1.618.039-3,.054-4.125.054s-1.966,0-2.577-.054-1.548-.046-2.74-.046m0,1.61q1.765,0,2.647.046c.65,0,1.548.054,2.67.054s2.531,0,4.156-.054h.774q4.272,0,5.882,1.122,1.749,1.215.418,2.6a6.014,6.014,0,0,1-3.769,1.664,38.382,38.382,0,0,1-4.373.271h-.936c-1.084,0-1.95,0-2.585.062-.774.039-2.91.139-6.432.279s-5.921.317-7.19.511a3.816,3.816,0,0,0-2.809,1.718l-2.322,3.645q-1.354,2.206-3.676,6.772c-1.548,3.049-3.816,6.447-5.325,10.2s-3.692,7.329-5.031,10.727-2.275,6-2.066,7.74.728,2.949,1.548,3.491a1.8,1.8,0,0,0,1.006.3,5.348,5.348,0,0,0,1.974-.55,16.906,16.906,0,0,0,2.724-1.47A18.875,18.875,0,0,0,72.14,194.1a7.051,7.051,0,0,0,2.121-2.593c.263-.6.534-1.231.828-1.9,2.755-6.331,5.99-12.468,9.225-18.428s5.147-9.6,5.735-10.9a15.016,15.016,0,0,1,1.61-2.655,3.436,3.436,0,0,1,2.732-1.378,3.142,3.142,0,0,1,2.322.991h0c.89.975.488,2.4-1.207,4.288s-4.288,6.006-7.739,12.383S81.969,184.8,80.8,187.5q-1.393,3.266-.952,3.258c.077,0,.186-.07.333-.2.774-.673,1.478-1.269,2.19-1.8s1.494-1.053,2.322-1.594a9.364,9.364,0,0,1,2.322-1.115,6.812,6.812,0,0,1,2.167-.433,3.15,3.15,0,0,1,1.316.263,3.754,3.754,0,0,1,.72.433,4.364,4.364,0,0,1,1.006,1.176,7.051,7.051,0,0,1,.426,3.816,29.407,29.407,0,0,1-.944,4.86,11.006,11.006,0,0,0-.588,3.87,5.565,5.565,0,0,0,.844,2.453,2.322,2.322,0,0,0,2.144.921h.488c.085,0,.217,0,.147-.217a5.162,5.162,0,0,1-.163-1.548,5.975,5.975,0,0,1,.6-2.322,24.116,24.116,0,0,1,3.545-4.365,42.209,42.209,0,0,1,5.665-5.193,27.864,27.864,0,0,1,5.518-3.212,20.209,20.209,0,0,1,3.978-1.347,7.139,7.139,0,0,1,1.084-.093,4.382,4.382,0,0,1,1.238.17,4.032,4.032,0,0,1,1.912,1.122,6.323,6.323,0,0,1,1.114,2.755c.294,1.339,0,2.167-.952,2.492a2.237,2.237,0,0,1-.774.139,1.92,1.92,0,0,1-1.548-.9,1.741,1.741,0,0,0-1.455-.844,2.492,2.492,0,0,0-.689.108,20.55,20.55,0,0,0-2.446,1.045A20.259,20.259,0,0,0,108.322,193a26.318,26.318,0,0,0-3.87,3.289,14.309,14.309,0,0,0-2.322,2.655c-.077.194-.054.294.077.294a2.322,2.322,0,0,0,.844-.356l3.622-2.02a38.943,38.943,0,0,1,6.029-3.011,12.492,12.492,0,0,1,3.521-1,1.982,1.982,0,0,1,.921.209,3.614,3.614,0,0,1,1.865,3.421,4.519,4.519,0,0,1-.356,1.13c-.364.929-.65,1.161-.936,1.857a3.452,3.452,0,0,0-.356,1.865,2.763,2.763,0,0,0,2.616,2.322h.093a3.5,3.5,0,0,0,1.37-.341,5.652,5.652,0,0,0,.882-.441,5.843,5.843,0,0,0,1.687-1.687,14.837,14.837,0,0,0,1.292-2.322,39.342,39.342,0,0,0,2.415-5.836c.573-2.268.155-2.8.944-3.661a4.52,4.52,0,0,1,2.717-1.223,5.667,5.667,0,0,1,.952-.093,1.927,1.927,0,0,1,1.385.457c.186.186.619.72.2,2.949-.124.689-.232,1.06-2.283,5.51a50.751,50.751,0,0,1-2.562,4.9,24.224,24.224,0,0,1-2.128,3.173,2.794,2.794,0,0,1-2.322,1.362h-.31a1.95,1.95,0,0,1-1.053-.209c-.565-.395.418-1.679.116-1.912a.155.155,0,0,0-.1,0c-.426,0-1.548,1.169-3.63,1.842l-.17.054a5.416,5.416,0,0,1-1.548.232,3.823,3.823,0,0,1-1.834-.441,6.834,6.834,0,0,1-1.8-1.8,5.534,5.534,0,0,1-.774-1.339,13.933,13.933,0,0,1-.557-1.587,4.5,4.5,0,0,0-.666-1.494,1.494,1.494,0,0,0-.635-.542,1.215,1.215,0,0,0-.449-.077,1.818,1.818,0,0,0-.511.077,26.8,26.8,0,0,0-3.808,2.1,39.635,39.635,0,0,1-4.907,2.577,10.781,10.781,0,0,1-3.924.774c-.341.046-.666.062-.96.077a6.284,6.284,0,0,0-2.422.58,12.793,12.793,0,0,1-1.362.542,8.4,8.4,0,0,1-2.554.511,2.956,2.956,0,0,1-2.5-1.331,4.133,4.133,0,0,1-1.176-2.724,24.572,24.572,0,0,1,.658-5.967c.534-2.662.588-4.28.155-4.868a.774.774,0,0,0-.627-.255,8.512,8.512,0,0,0-3.506,1.47,17.569,17.569,0,0,0-5.534,5.046c-1.37,1.966-2.709,5.58-3.436,6.966-.588,1.13-1.169,1.695-1.757,1.695a.929.929,0,0,1-.426-.1,3.63,3.63,0,0,1-1.625-1.393c-1.076-1.819.426-4.04,0-4.288H70.91c-.317,0-.967.774-1.989,1.857-2.012,2.074-3.4,3.491-5.34,3.87a6.692,6.692,0,0,1-1.161.108,6.006,6.006,0,0,1-3.1-.836A7.561,7.561,0,0,1,56.1,201.7a13.776,13.776,0,0,1-.983-5.116,28.2,28.2,0,0,1,.7-5.147c.418-1.9,1.61-3.932,2.4-6.037s3.1-5.712,5.348-10.835c0,0,3.243-6.037,7.066-14.473.619-1.37,1.935-4.35.882-5.348a1.494,1.494,0,0,0-.967-.341H69.509c-3.87,0-10.061.712-12.136.944-2.283.255-5.936.557-8.188,1.633a10.633,10.633,0,0,0-1.292.565,6.787,6.787,0,0,1-3.1,1.114,3.3,3.3,0,0,1-.666-.07,3.467,3.467,0,0,1-2.732-2.461c-.333-2.275,4.086-4.52,5.193-5.046,3.785-1.8,4.2-1.5,12.987-2.376q11.207-1.1,13.544-1.246t4.946-.271c1.734-.093,4.644-.186,8.792-.263q3.382-.07,5.487-.07" transform="translate(-8.996 -32.819)" fill="#fd0"/>
    <path id="Trazado_46798" data-name="Trazado 46798" d="M157.207,192.842a2.167,2.167,0,0,1,3.042,1.61,2.375,2.375,0,0,1-3.746,2.291,1.888,1.888,0,0,1-.774-1.625,2.763,2.763,0,0,1,1.486-2.275" transform="translate(-35.205 -43.547)" fill="#fd0"/>
    <path id="Trazado_46799" data-name="Trazado 46799" d="M157.34,193.326a1.958,1.958,0,0,0-1.06,1.6,1.1,1.1,0,0,0,.441.937,1.548,1.548,0,0,0,2.492-1.494,1.347,1.347,0,0,0-.774-1.006,1.362,1.362,0,0,0-1.138-.039m.317,4.466a3.227,3.227,0,0,1-1.873-.619,2.693,2.693,0,0,1-1.107-2.322,3.514,3.514,0,0,1,1.881-2.933h0a2.972,2.972,0,0,1,4.195,2.167,3.212,3.212,0,0,1-3.134,3.723" transform="translate(-34.958 -43.318)" fill="#fd0"/>
    <path id="Trazado_46800" data-name="Trazado 46800" d="M56.11,100.684a5.921,5.921,0,0,1-2.035-2.546,2.856,2.856,0,0,1-.317-1.9A3.1,3.1,0,0,1,57.4,93.7a1.548,1.548,0,0,1,.7.317c1.339,1.122.921,3.816,1.122,5.836a9.4,9.4,0,0,0,.271,1.679,6.46,6.46,0,0,0,.217.774c.124.364.3.844.426,1.2.039.116-.07.232-.147.155l-3.87-2.956" transform="translate(-12.144 -21.168)" fill="#fd0"/>
    <path id="Trazado_46801" data-name="Trazado 46801" d="M56.372,91.53h0a4.806,4.806,0,0,0-4.644,3.792,4.156,4.156,0,0,0,.325,2.794l.054.139a7.484,7.484,0,0,0,2.569,3.243l1.927,1.463,1.9,1.455a1.649,1.649,0,0,0,1.06.379,1.71,1.71,0,0,0,1.393-.728,1.765,1.765,0,0,0,.217-1.6l-.062-.163-.364-1.022a5.365,5.365,0,0,1-.155-.58,1.724,1.724,0,0,0-.077-.333,5.474,5.474,0,0,1-.163-1.045v-.139c-.046-.464-.054-.991-.07-1.548,0-1.9-.077-4.056-1.625-5.348a3.042,3.042,0,0,0-1.416-.666,4.7,4.7,0,0,0-.867-.085m0,1.61a2.616,2.616,0,0,1,.557.054,1.5,1.5,0,0,1,.7.317c1.339,1.122.921,3.816,1.13,5.836a8.763,8.763,0,0,0,.263,1.679,6.462,6.462,0,0,0,.217.774c.124.364.3.844.426,1.2a.132.132,0,0,1-.093.178.07.07,0,0,1-.054,0l-3.87-2.956a5.921,5.921,0,0,1-2.035-2.546,2.856,2.856,0,0,1-.333-1.919,3.165,3.165,0,0,1,3.1-2.593" transform="translate(-11.671 -20.69)" fill="#fd0"/>
    <path id="Trazado_46802" data-name="Trazado 46802" d="M103.295,111.222a6.555,6.555,0,0,1,2.608-1.788c1.145-.472,1.827-.534,2.051-.178a1.4,1.4,0,0,1-.488,1.888,12.383,12.383,0,0,1-2.67,1.6c-1.084.5-1.757.557-2.012.147s-.085-.96.511-1.672m12.112,7.159c-.217-.224-1.61.936-5.069,2.987a21.6,21.6,0,0,1-2.128,1.1,13.636,13.636,0,0,1-4.427,1.145,5.085,5.085,0,0,1-2.183-.248,3.1,3.1,0,0,1-1.679-1.726,4.644,4.644,0,0,1-.426-2.84,6.54,6.54,0,0,1,1.238-2.84c.077-.085.139-.108.286,0a2.577,2.577,0,0,0,.635.248,3.87,3.87,0,0,0,1.037.2,9.21,9.21,0,0,0,3.142-.488,10.17,10.17,0,0,0,3.506-2.043,6.672,6.672,0,0,0,1.409-1.687,5.286,5.286,0,0,0,.6-1.687,8.359,8.359,0,0,0-.07-3.653,2.322,2.322,0,0,0-1.9-1.455,6.037,6.037,0,0,0-2.856,0,10.424,10.424,0,0,0-3.367,1.44,18.1,18.1,0,0,0-3.56,2.941,18.576,18.576,0,0,0-2.639,3.924,13.978,13.978,0,0,0-1.548,4.582c-.062.426-.1.82-.124,1.192a1.37,1.37,0,0,1-.666,1.1h0a24.835,24.835,0,0,1-5.108,2.183,17.394,17.394,0,0,1-2.368.48,2.43,2.43,0,0,1-1.9-.255,1.548,1.548,0,0,1-.348-.41q-.542-.975,1.548-8.56a87.728,87.728,0,0,1,6.648-16.33,70.487,70.487,0,0,0,4.442-9.705,1.548,1.548,0,0,0-1.308-1.61c-.867-.24-1.919.395-3.258,2.469a71.086,71.086,0,0,0-3.947,6.919,120.263,120.263,0,0,0-4.961,12.058l-.062.163a1.409,1.409,0,0,1-1.447.913,19.288,19.288,0,0,1-2.825-.426,12.561,12.561,0,0,1-2.794-.975c-.542-.294-.519-1.548.085-3.645s1.084-3.785,1.447-4.969a17.212,17.212,0,0,1,1.114-2.856,3.4,3.4,0,0,0,.193-2.376,6.192,6.192,0,0,0-.844-1.765,2.322,2.322,0,0,0-1.71-.9,1.9,1.9,0,0,0-1.788.519,9.636,9.636,0,0,0-1.06,3.15c-.348,1.463-.611,2.624-.774,3.483s-.65,2.57-1.455,5.147c-.7,2.252-1.378,3.491-2.508,3.87a13.088,13.088,0,0,0-2.051.418c-.464.17-.72.317-1.362.511a5.292,5.292,0,0,1-1.316.294,3.25,3.25,0,0,1-2.515-1.076c-.077-.093-.124-.17-.139-.186-.209-.364-.418-1.169.232-3.46.6-2.128,1.084-3.785,1.447-4.969a18.156,18.156,0,0,1,1.122-2.856,2.7,2.7,0,0,0,.24-2.113,6.021,6.021,0,0,0-.836-1.765,2.322,2.322,0,0,0-1.71-.9,1.873,1.873,0,0,0-1.788.519,7.4,7.4,0,0,0-1.114,2.879c-.356,1.471-.611,2.631-.774,3.483s-.65,2.569-1.463,5.147-1.548,3.568-2.508,3.87a12.987,12.987,0,0,0-3,.774,2.74,2.74,0,0,0-1.8,2.268c-.062.96.255,1.447.944,1.463a14.281,14.281,0,0,0,2.392-.155c.906-.124,1.292.132,1.169.774a34.9,34.9,0,0,1-1.865,4.822c-1.114,2.585-2,4.814-2.67,6.71q-.906,2.554-.333,3.165c-.929.24-1.912.441-2.956.611q-2.833.449-11.9,1.215h0a7.021,7.021,0,0,0,.96-1.161,23.351,23.351,0,0,0,2.268-4.272q1.037-2.469,2.244-6.455a52.323,52.323,0,0,1,2-5.619c.658-1.656.526-2.624-.387-2.926a4.752,4.752,0,0,0-2.446-.232l-.31.062a4.1,4.1,0,0,0-2.438,1.292c-.124.186-.155.3-.348,1.424-.224,1.316-.279,1.989-.379,2.322q-1.076,3.181-2.322,7.484c-.836,2.871-1.385,5-1.664,6.4a6.965,6.965,0,0,0-.186,1.966h0l-4.025.317q-15.115,1.184-15.58.681a1.354,1.354,0,0,1-.17-1.424,39.569,39.569,0,0,1,3.2-5.363q2.9-4.427,6.555-10.309c2.43-3.916,3.429-6.331,4.094-7.252a29.41,29.41,0,0,0,2.616-5.062q1.6-3.684,2.152-5.418t1.362-5.418a11.165,11.165,0,0,0,.418-4.744A3.545,3.545,0,0,0,30.66,82.13a2.84,2.84,0,0,0-3.049.139,15.913,15.913,0,0,0-3.2,3.963c-1.323,2-2.136,3.1-2.98,4.473a7.6,7.6,0,0,0-1.207,3.429,6.965,6.965,0,0,0,.286,2.422c.24.774.774.844,1.656.255.611-.395.96-.062.844.395a24.116,24.116,0,0,1-2.322,4.644c-1.246,2.19-2.825,5.781-5.828,10.758s-5.255,8.366-6.648,10.208c-1.548,2.036-2.717,4.373-4.141,6.517a15.681,15.681,0,0,0-1.44,3.011c-.65,1.765-.58,2.461-.426,2.941a3.529,3.529,0,0,0,1.169,1.61,6.586,6.586,0,0,0,3.158,1.478,16.291,16.291,0,0,0,6.447-.325c2.322-.418,4.644-.642,6.9-1.022,5.015-.82,8.018-1.323,11.981-2.066,2.159-.4,3.645-.7,5.58-1.238s3.545-1.122,4.6-1.5,2.322-.828,3.87-1.5a45.4,45.4,0,0,0,6.555-3.591,6.965,6.965,0,0,0,1.5-1.409c0-.054.07-.108.108-.163l.077-.116a.136.136,0,0,1,.062-.108v-.046l.124-.217h0a11.927,11.927,0,0,0,.519-1.184c1.2-3.1,1.734-4.442,2.763-6.966,1.935-4.791,2.655-5.232,3.1-5.418a5.766,5.766,0,0,1,3.46-.31,10.132,10.132,0,0,0,1.006.3,12.607,12.607,0,0,0,2.91,0c.464,0,.89-.046,1.091.217a.7.7,0,0,1,.077.55,37.148,37.148,0,0,1-1.865,4.829q-1.672,3.87-2.662,6.71c-.666,1.888-.89,3.405-.348,3.7a2.446,2.446,0,0,0,1.842.193,4.032,4.032,0,0,0,1.7-.828,8.289,8.289,0,0,0,1.509-2.732q.666-1.741,2.748-6.966c1.393-3.491,2.322-5.325,2.864-5.48s1.548-.426,3.189-.774c.867-.193,1.989-.348,3.343-.588,1.192-.217,1.323.6,1.084,1.308a67.954,67.954,0,0,0-2.322,8.041,12.371,12.371,0,0,0-.217,5.2A4.589,4.589,0,0,0,81.493,127a3.382,3.382,0,0,0,2.624.774c.565,0,1.13-.054,4-1.316l2.09-.913.836-.379c.859-.41,1.8-.983,3.343-1.788.457-.24.728-.395.991-.271a1.277,1.277,0,0,1,.573.774,6.021,6.021,0,0,0,.6,1.122,9.978,9.978,0,0,0,.991,1.2,5.905,5.905,0,0,0,2.469,1.323,6.873,6.873,0,0,0,3.607.054,10.709,10.709,0,0,0,2.717-.991,14.43,14.43,0,0,0,1.362-.774c.7-.426,1.192-.774,1.85-1.254s1.176-.859,1.749-1.354c.426-.364.774-.72,1.5-1.393.364-.348.573-.542.728-.7,1.006-1.053,2.051-2.469,1.842-2.686" transform="translate(-0.479 -18.479)" fill="#fd0"/>
    <path id="Trazado_46803" data-name="Trazado 46803" d="M28.637,79.68h0a4.241,4.241,0,0,0-2.492.774,16.692,16.692,0,0,0-3.607,4.388c-.573.859-1.029,1.548-1.44,2.128-.573.828-1.06,1.548-1.548,2.392a9.086,9.086,0,0,0-1.44,4.172,8.645,8.645,0,0,0,.348,2.972,2.322,2.322,0,0,0,1.61,1.718c-.371.689-.828,1.486-1.292,2.322s-.952,1.765-1.548,2.887c-1.06,2.074-2.368,4.644-4.3,7.84-2.956,4.9-5.155,8.3-6.524,10.061A39.239,39.239,0,0,0,3.762,125.4c-.526.89-1.022,1.726-1.548,2.539h0a16.787,16.787,0,0,0-1.587,3.374A6.1,6.1,0,0,0,.171,135.3a5.131,5.131,0,0,0,1.664,2.322,8.072,8.072,0,0,0,3.916,1.9,13.372,13.372,0,0,0,2.484.232,22.5,22.5,0,0,0,4.172-.488l.387-.07c1.238-.224,2.531-.4,3.785-.565,1.014-.139,2.059-.279,3.1-.449,5.34-.875,8.188-1.354,12.012-2.074a58.54,58.54,0,0,0,5.719-1.269c2-.565,3.7-1.176,4.706-1.548s2.322-.836,4-1.548a48.666,48.666,0,0,0,6.811-3.73h0a7.98,7.98,0,0,0,1.927-1.811l.139-.2.124-.186.07-.124v-.132l.108-.193,1.981-3.692-.488.178c.6-1.548,1.053-2.662,1.679-4.218l.24-.588c1.471-3.661,2.105-4.411,2.26-4.551a4.644,4.644,0,0,1,1.625-.317,3.312,3.312,0,0,1,.774.093,1.643,1.643,0,0,1,.255.085,4.646,4.646,0,0,0,.859.248,6.7,6.7,0,0,0,1.254.093H66.87c-.255.681-.681,1.718-1.362,3.3-1.122,2.6-2.035,4.891-2.709,6.819-.441,1.246-1.6,4.551.395,5.642a3.823,3.823,0,0,0,1.9.488,4.551,4.551,0,0,0,1.1-.139,5.727,5.727,0,0,0,2.368-1.169,9.481,9.481,0,0,0,1.966-3.382c.449-1.184,1.4-3.591,2.74-6.966a26.886,26.886,0,0,1,2.144-4.644c.449-.124,1.262-.325,2.763-.666.5-.108,1.13-.209,1.85-.333l.379-.062a62.14,62.14,0,0,0-2.082,7.283,14.226,14.226,0,0,0-.186,5.975,6.192,6.192,0,0,0,1.8,2.833,4.713,4.713,0,0,0,3.405,1.192h.387c.875-.039,1.664-.155,4.59-1.447l1.548-.666.565-.248h0c.286-.124.836-.387.867-.4.519-.24,1.053-.534,1.672-.875l1.308-.712a6.732,6.732,0,0,0,.526.89,11.8,11.8,0,0,0,1.153,1.4,7.4,7.4,0,0,0,3.142,1.734,7.623,7.623,0,0,0,2.322.348,9.712,9.712,0,0,0,2.059-.24h.046a12.771,12.771,0,0,0,3.1-1.122c.673-.333,1.2-.65,1.486-.82a22.765,22.765,0,0,0,1.966-1.339,22.446,22.446,0,0,0,1.85-1.424c.457-.395.851-.774,1.548-1.447l.24-.232c.24-.224.395-.379.542-.526,2.322-2.391,2.848-3.87,1.834-4.915a1.664,1.664,0,0,0-1.231-.526c-.681,0-1.153.3-2.539,1.2-.774.511-1.85,1.2-3.274,2.043a17.362,17.362,0,0,1-1.95,1.006,11.694,11.694,0,0,1-3.87,1.014h-.449a3.1,3.1,0,0,1-1.084-.186,1.687,1.687,0,0,1-.774-.906,3.042,3.042,0,0,1-.294-1.85,4.466,4.466,0,0,1,.4-1.254,5.519,5.519,0,0,0,1.06.178h.534a11.454,11.454,0,0,0,3.282-.588,12.05,12.05,0,0,0,4.056-2.368,8.282,8.282,0,0,0,1.734-2.159,6.733,6.733,0,0,0,.774-2.19,9.968,9.968,0,0,0-.1-4.35,3.782,3.782,0,0,0-3.057-2.585,7.539,7.539,0,0,0-1.718-.163,8.236,8.236,0,0,0-1.873.217,12.3,12.3,0,0,0-3.87,1.664,20.006,20.006,0,0,0-3.87,3.2A20.511,20.511,0,0,0,95.1,112.5,15.766,15.766,0,0,0,93.37,117.6c-.054.418-.1.813-.124,1.192a22.94,22.94,0,0,1-4.528,1.935l-.139.046a16.773,16.773,0,0,1-2.121.426,4.021,4.021,0,0,1-.534.046c0-.681.31-2.523,1.633-7.244a86.683,86.683,0,0,1,6.524-16.028,69.709,69.709,0,0,0,4.59-10.108,3.1,3.1,0,0,0-2.453-3.491,2.98,2.98,0,0,0-.774-.108c-1.927,0-3.351,1.857-4.257,3.258a72.268,72.268,0,0,0-4.032,7.066,121.885,121.885,0,0,0-5,12.213h0a18.209,18.209,0,0,1-2.43-.372,17.287,17.287,0,0,1-1.989-.6,10.129,10.129,0,0,1,.41-2c.588-2.113,1.076-3.769,1.432-4.93a17.707,17.707,0,0,1,1.006-2.6,4.961,4.961,0,0,0,.3-3.591,7.94,7.94,0,0,0-1.06-2.213,3.924,3.924,0,0,0-2.817-1.548,4.568,4.568,0,0,0-.642-.046,3.274,3.274,0,0,0-2.624,1.084c-.588.681-.921,1.78-1.409,3.823-.364,1.548-.619,2.686-.774,3.552-.108.542-.441,1.85-1.416,4.976-.534,1.718-1.014,2.647-1.424,2.763a1.719,1.719,0,0,1-.333.054,6.834,6.834,0,0,0-1.8.4l-.534.209a7.606,7.606,0,0,1-.774.271,4.869,4.869,0,0,1-.929.232h0a1.726,1.726,0,0,1-1.184-.441,6.192,6.192,0,0,1,.372-2.221c.588-2.113,1.076-3.769,1.44-4.93a15.7,15.7,0,0,1,1.006-2.593,4.373,4.373,0,0,0,.356-3.336,7.941,7.941,0,0,0-1.06-2.213,3.924,3.924,0,0,0-2.809-1.548,4.867,4.867,0,0,0-.658-.046,3.274,3.274,0,0,0-2.562,1.107,8.413,8.413,0,0,0-1.463,3.56c-.364,1.548-.627,2.678-.774,3.552-.1.542-.433,1.842-1.416,4.969-.774,2.415-1.254,2.717-1.385,2.755s-.433.093-.712.139a9.24,9.24,0,0,0-2.577.774,4.254,4.254,0,0,0-2.709,3.607A3.1,3.1,0,0,0,48.9,111.8a2.461,2.461,0,0,0,1.819.774h.317a9.312,9.312,0,0,0,1.285-.062c-.263.681-.673,1.7-1.339,3.243-1.13,2.6-2.043,4.891-2.717,6.811a10.789,10.789,0,0,0-.619,2.469c-.457.093-.929.178-1.4.255-1.463.232-4.264.534-8.351.9a26.817,26.817,0,0,0,1.37-2.918,69.882,69.882,0,0,0,2.322-6.6c.735-2.415,1.246-3.692,1.834-5.162l.132-.333a4.5,4.5,0,0,0,.248-3.638,2.655,2.655,0,0,0-1.625-1.409,7.19,7.19,0,0,0-2.229-.387,5.122,5.122,0,0,0-1.037.1h0l-.356.077a5.45,5.45,0,0,0-3.39,1.958,4.644,4.644,0,0,0-.6,2.043c-.1.611-.17,1.091-.224,1.447s-.07.526-.093.619c-.728,2.121-1.548,4.644-2.322,7.531s-1.4,5.077-1.687,6.54c-.062.279-.108.542-.139.774l-2.624.209c-6.966.542-11.609.82-13.846.828.333-.619,1.084-1.881,2.771-4.45,1.927-2.941,4.141-6.424,6.571-10.34,1.463-2.322,2.4-4.141,3.1-5.418a17.146,17.146,0,0,1,.952-1.7,30.393,30.393,0,0,0,2.786-5.371C30.9,98.046,31.632,96.219,32.011,95s.836-3.018,1.4-5.518a12.289,12.289,0,0,0,.426-5.418,5.162,5.162,0,0,0-2.9-3.87A5.062,5.062,0,0,0,28.637,79.68Zm74.3,33.017a3.692,3.692,0,0,0,1.424-.418,12.382,12.382,0,0,0,2.67-1.6,1.4,1.4,0,0,0,.488-1.888.588.588,0,0,0-.542-.224,4.327,4.327,0,0,0-1.509.4,6.555,6.555,0,0,0-2.608,1.788q-.89,1.068-.511,1.672a.635.635,0,0,0,.588.271M28.637,81.29a3.452,3.452,0,0,1,1.486.372,3.545,3.545,0,0,1,2.028,2.7,11.153,11.153,0,0,1-.418,4.744q-.813,3.634-1.362,5.418a57.11,57.11,0,0,1-2.152,5.418A29.41,29.41,0,0,1,25.6,105c-.666.921-1.664,3.336-4.094,7.252s-4.644,7.36-6.555,10.309a39.571,39.571,0,0,0-3.173,5.348,1.354,1.354,0,0,0,.17,1.424,3.871,3.871,0,0,0,1.548.147q3.382,0,14.008-.828l4.025-.317h0a6.966,6.966,0,0,1,.2-1.974c.279-1.4.828-3.529,1.664-6.4s1.6-5.363,2.322-7.484c.1-.294.155-.967.379-2.322.193-1.122.224-1.238.348-1.424a4.1,4.1,0,0,1,2.438-1.293l.31-.062a3.663,3.663,0,0,1,.72-.07,5.6,5.6,0,0,1,1.726.3q1.37.457.387,2.926c-.658,1.656-1.2,2.972-2,5.619a68.259,68.259,0,0,1-2.244,6.455,23.35,23.35,0,0,1-2.268,4.272,7.018,7.018,0,0,1-.96,1.161q9.071-.774,11.9-1.215c1.045-.17,2.028-.372,2.956-.611q-.573-.619.333-3.165c.666-1.9,1.548-4.125,2.67-6.71a34.9,34.9,0,0,0,1.865-4.822c.1-.526-.155-.774-.774-.774a2.607,2.607,0,0,0-.4,0,15.528,15.528,0,0,1-2.113.163H50.71c-.689,0-1.006-.5-.944-1.463a2.74,2.74,0,0,1,1.8-2.268,12.987,12.987,0,0,1,3-.774c.983-.263,1.7-1.254,2.508-3.87s1.3-4.3,1.463-5.147.426-2.012.774-3.483a7.4,7.4,0,0,1,1.114-2.879,1.672,1.672,0,0,1,1.347-.549,2.957,2.957,0,0,1,.441,0,2.322,2.322,0,0,1,1.71.9,6.021,6.021,0,0,1,.836,1.765,2.7,2.7,0,0,1-.24,2.113,18.157,18.157,0,0,0-1.06,2.956c-.364,1.184-.851,2.84-1.447,4.969-.65,2.322-.441,3.1-.232,3.46,0,0,.062.093.139.186a3.2,3.2,0,0,0,2.453,1.06h.093a5.292,5.292,0,0,0,1.316-.294c.642-.193.9-.341,1.362-.511a13.091,13.091,0,0,1,2.051-.418c1.13-.341,1.8-1.548,2.5-3.87.774-2.577,1.292-4.3,1.463-5.147s.426-2.02.774-3.483A9.636,9.636,0,0,1,75,91.01a1.71,1.71,0,0,1,1.354-.549,2.854,2.854,0,0,1,.433,0,2.322,2.322,0,0,1,1.71.9,6.192,6.192,0,0,1,.844,1.765,3.4,3.4,0,0,1-.193,2.376,17.212,17.212,0,0,0-1.114,2.856c-.364,1.184-.851,2.84-1.447,4.969s-.627,3.351-.085,3.645a12.56,12.56,0,0,0,2.825.952,19.284,19.284,0,0,0,2.825.426h.124a1.4,1.4,0,0,0,1.323-.921l.062-.163a122.574,122.574,0,0,1,4.922-12.043A72.751,72.751,0,0,1,92.534,88.3c1.161-1.8,2.105-2.515,2.9-2.515a1.363,1.363,0,0,1,.356.046,1.548,1.548,0,0,1,1.308,1.61,70.96,70.96,0,0,1-4.442,9.705,87.728,87.728,0,0,0-6.648,16.33q-2.121,7.577-1.548,8.56a1.548,1.548,0,0,0,.348.41,1.664,1.664,0,0,0,1.084.317,6.112,6.112,0,0,0,.813-.062,17.394,17.394,0,0,0,2.368-.48,24.836,24.836,0,0,0,5.108-2.183h0a1.37,1.37,0,0,0,.666-1.1,8.429,8.429,0,0,1,.124-1.192,13.977,13.977,0,0,1,1.548-4.582,18.575,18.575,0,0,1,2.639-3.924,18.1,18.1,0,0,1,3.56-2.941,10.425,10.425,0,0,1,3.367-1.44,6.649,6.649,0,0,1,1.509-.178,5.619,5.619,0,0,1,1.347.155,2.322,2.322,0,0,1,1.9,1.455,8.359,8.359,0,0,1,.07,3.653,5.286,5.286,0,0,1-.6,1.687,6.671,6.671,0,0,1-1.409,1.687,10.247,10.247,0,0,1-3.506,2.043,9.938,9.938,0,0,1-2.755.5,3.173,3.173,0,0,1-.387,0,3.87,3.87,0,0,1-1.037-.2c-.271-.093-.48-.178-.635-.248a.348.348,0,0,0-.147-.046.186.186,0,0,0-.139.077,6.539,6.539,0,0,0-1.238,2.84,4.644,4.644,0,0,0,.426,2.84,3.1,3.1,0,0,0,1.679,1.726,4.706,4.706,0,0,0,1.618.271h.565a13.638,13.638,0,0,0,4.427-1.145,21.583,21.583,0,0,0,2.128-1.1c3.181-1.888,4.644-3.018,4.992-3.018a.1.1,0,0,1,.077,0c.209.217-.836,1.633-1.842,2.686-.155.163-.364.356-.728.7-.7.673-1.076,1.029-1.5,1.393-.573.5-.991.774-1.749,1.354a17.015,17.015,0,0,1-1.85,1.254,14.436,14.436,0,0,1-1.362.774,10.712,10.712,0,0,1-2.717.991,8.415,8.415,0,0,1-1.788.217,6.191,6.191,0,0,1-1.819-.271,5.9,5.9,0,0,1-2.469-1.323,9.976,9.976,0,0,1-.991-1.2,6.02,6.02,0,0,1-.6-1.122,1.277,1.277,0,0,0-.573-.774.472.472,0,0,0-.193-.046,2.113,2.113,0,0,0-.774.317c-1.548.774-2.484,1.378-3.343,1.788l-.836.379-2.09.913c-2.871,1.262-3.436,1.285-4,1.316h-.325a3.165,3.165,0,0,1-2.322-.774,4.59,4.59,0,0,1-1.362-2.128,12.371,12.371,0,0,1,.217-5.2,67.952,67.952,0,0,1,2.322-8.041c.217-.627.132-1.347-.728-1.347a2.07,2.07,0,0,0-.356.039c-1.354.24-2.477.395-3.343.588-1.61.356-2.67.619-3.189.774s-1.471,1.989-2.864,5.48-2.322,5.828-2.748,6.966a8.288,8.288,0,0,1-1.509,2.794,4.032,4.032,0,0,1-1.7.828,2.961,2.961,0,0,1-.72.093A2.244,2.244,0,0,1,63.991,127c-.542-.294-.317-1.811.348-3.7s1.548-4.133,2.662-6.71a37.148,37.148,0,0,0,1.881-4.806.7.7,0,0,0-.077-.55.828.828,0,0,0-.7-.232h-.395c-.921.054-1.548.07-1.943.07A5.062,5.062,0,0,1,64.8,111a10.126,10.126,0,0,1-1.006-.3,4.645,4.645,0,0,0-1.192-.147,5.99,5.99,0,0,0-2.268.457c-.457.193-1.176.635-3.1,5.418-1.029,2.539-1.548,3.87-2.763,6.966a11.923,11.923,0,0,1-.519,1.184h0l-.124.217v.046a.128.128,0,0,1-.062.108l-.077.116c0,.054-.077.108-.108.163a6.965,6.965,0,0,1-1.5,1.409,45.4,45.4,0,0,1-6.61,3.6c-1.548.673-2.825,1.115-3.87,1.5s-2.686.96-4.6,1.5-3.421.836-5.58,1.238c-3.963.774-6.966,1.246-11.981,2.066-2.322.379-4.644.6-6.9,1.022a23.45,23.45,0,0,1-4.272.534,11.461,11.461,0,0,1-2.175-.209,6.587,6.587,0,0,1-3.2-1.463A3.529,3.529,0,0,1,1.711,134.8c-.155-.48-.224-1.176.426-2.941a15.68,15.68,0,0,1,1.44-3.011c1.424-2.144,2.57-4.481,4.141-6.517q2.121-2.763,6.633-10.232c3-4.976,4.582-8.568,5.828-10.758A24.116,24.116,0,0,0,22.5,96.7c.077-.317-.062-.573-.356-.573a.944.944,0,0,0-.488.178,1.912,1.912,0,0,1-.983.395c-.317,0-.542-.209-.673-.65a6.966,6.966,0,0,1-.286-2.422,7.6,7.6,0,0,1,1.184-3.39c.844-1.385,1.6-2.384,2.98-4.473a15.319,15.319,0,0,1,3.2-3.963,2.678,2.678,0,0,1,1.548-.511" transform="translate(-0.004 -18.011)" fill="#fd0"/>
    <path id="Trazado_46804" data-name="Trazado 46804" d="M134.2,188.962a2.746,2.746,0,0,0-2.322-.364,4.52,4.52,0,0,0-2.717,1.223c-.774.859-.371,1.393-.944,3.661a39.92,39.92,0,0,1-2.4,5.843,15.281,15.281,0,0,1-1.3,2.322,5.844,5.844,0,0,1-1.687,1.687,5.649,5.649,0,0,1-.882.441,3.506,3.506,0,0,1-1.463.341,2.763,2.763,0,0,1-2.616-2.322,3.452,3.452,0,0,1,.356-1.865c.286-.7.573-.929.936-1.857a4.519,4.519,0,0,0,.356-1.13,3.614,3.614,0,0,0-1.865-3.421c-1.022-.511-2.159,0-4.442.774a38.933,38.933,0,0,0-6.029,3.011l-3.622,2.02c-.774.449-1.091.472-.921.062a14.106,14.106,0,0,1,2.322-2.647,25.918,25.918,0,0,1,3.87-3.3,20.26,20.26,0,0,1,3.049-1.788,20.545,20.545,0,0,1,2.446-1.045,1.765,1.765,0,0,1,2.144.735,1.858,1.858,0,0,0,2.322.774c.929-.325,1.246-1.153.952-2.492a6.323,6.323,0,0,0-1.115-2.755,4.032,4.032,0,0,0-1.912-1.122,5.27,5.27,0,0,0-2.322-.077,20.752,20.752,0,0,0-3.978,1.347,27.859,27.859,0,0,0-5.518,3.212,42.211,42.211,0,0,0-5.665,5.193,24.115,24.115,0,0,0-3.545,4.365,5.975,5.975,0,0,0-.6,2.322,5.238,5.238,0,0,0,.163,1.548c.07.209-.062.2-.147.217-1.308.1-2.19-.2-2.631-.906a5.564,5.564,0,0,1-.844-2.453,11.005,11.005,0,0,1,.588-3.87,29.412,29.412,0,0,0,.944-4.86,7.063,7.063,0,0,0-.426-3.816,4.365,4.365,0,0,0-1.006-1.176,3.754,3.754,0,0,0-.72-.433,4.94,4.94,0,0,0-3.483.17,9.133,9.133,0,0,0-2.322,1.122c-.851.534-1.633,1.068-2.322,1.587s-1.424,1.161-2.2,1.834-.542-.348.619-3.049,3.483-7.244,6.966-13.591,6.06-10.472,7.739-12.383,2.1-3.312,1.207-4.288h0a3.313,3.313,0,0,0-5.038.387,14.488,14.488,0,0,0-1.6,2.655q-.882,1.95-5.743,10.9c-3.235,5.959-6.47,12.1-9.225,18.428-.294.666-.565,1.292-.828,1.9a7.05,7.05,0,0,1-2.121,2.593,18.869,18.869,0,0,1-2.531,1.827,16.819,16.819,0,0,1-2.724,1.478c-1.246.519-2.144.774-2.98.248s-1.362-1.71-1.548-3.5.735-4.373,2.066-7.739,3.521-6.966,5.031-10.727,3.746-7.2,5.294-10.247,2.771-5.309,3.715-6.788l2.322-3.645a3.815,3.815,0,0,1,2.809-1.718q1.9-.286,7.19-.5t6.432-.286c.774-.046,1.873-.07,3.3-.054a38.762,38.762,0,0,0,4.59-.271,6.014,6.014,0,0,0,3.769-1.664q1.339-1.378-.418-2.6t-6.625-1.114q-4.876.1-6.826,0t-8.134,0c-4.125.077-7.058.17-8.792.263l-4.946.279Q71.327,148,60.1,149.1c-8.784.875-9.2.58-12.987,2.376-1.107.534-5.526,2.771-5.193,5.046a3.523,3.523,0,0,0,2.732,2.461c1.509.317,2.763-.519,3.769-1.045a10.635,10.635,0,0,1,1.293-.565c2.252-1.076,5.905-1.378,8.188-1.633a113.6,113.6,0,0,1,13.157-.929,1.494,1.494,0,0,1,.967.341c1.053,1-.263,3.978-.882,5.348-3.823,8.436-7.066,14.473-7.066,14.473-2.268,5.116-4.559,8.73-5.348,10.835s-1.981,4.133-2.4,6.037a28.2,28.2,0,0,0-.7,5.147,13.776,13.776,0,0,0,.983,5.116,7.562,7.562,0,0,0,3.227,3.924,6.114,6.114,0,0,0,4.226.735c1.943-.341,3.328-1.765,5.34-3.87,1.114-1.145,1.78-2,2.074-1.834.441.24-1.06,2.461,0,4.28a3.63,3.63,0,0,0,1.625,1.393c.728.341,1.455-.186,2.183-1.594s2.066-5.015,3.436-6.966a17.569,17.569,0,0,1,5.534-5.046q3.483-2.09,4.133-1.215c.433.588.379,2.206-.155,4.868a24.573,24.573,0,0,0-.658,5.967,4.117,4.117,0,0,0,1.176,2.724,3.3,3.3,0,0,0,2.1,1.308,7.151,7.151,0,0,0,2.956-.488,12.8,12.8,0,0,0,1.362-.542,6.284,6.284,0,0,1,2.422-.58,4.673,4.673,0,0,0,.96-.07,10.989,10.989,0,0,0,3.924-.813,39.626,39.626,0,0,0,4.907-2.577,26.316,26.316,0,0,1,3.816-2.1,1.432,1.432,0,0,1,.952,0,1.494,1.494,0,0,1,.635.542,4.5,4.5,0,0,1,.666,1.494,13.933,13.933,0,0,0,.557,1.587,5.535,5.535,0,0,0,.774,1.339,6.718,6.718,0,0,0,1.8,1.8,4.512,4.512,0,0,0,3.374.209l.17-.054c2.268-.774,3.405-2.066,3.73-1.811s-.681,1.548-.116,1.912a2.461,2.461,0,0,0,1.416.2,2.794,2.794,0,0,0,2.322-1.362,24.213,24.213,0,0,0,2.128-3.173,50.74,50.74,0,0,0,2.562-4.9c2.051-4.45,2.159-4.822,2.283-5.511.418-2.229,0-2.763-.2-2.949" transform="translate(-9.476 -33.288)" fill="#1d1d1b"/>
    <path id="Trazado_46805" data-name="Trazado 46805" d="M157.207,192.842a2.167,2.167,0,0,1,3.042,1.61,2.375,2.375,0,0,1-3.746,2.291,1.888,1.888,0,0,1-.774-1.625,2.763,2.763,0,0,1,1.486-2.275" transform="translate(-35.205 -43.547)" fill="#1d1d1b"/>
    <path id="Trazado_46806" data-name="Trazado 46806" d="M56.11,100.684a5.921,5.921,0,0,1-2.035-2.546,2.856,2.856,0,0,1-.317-1.9A3.1,3.1,0,0,1,57.4,93.7a1.548,1.548,0,0,1,.7.317c1.339,1.122.921,3.816,1.122,5.836a9.4,9.4,0,0,0,.271,1.679,6.46,6.46,0,0,0,.217.774c.124.364.3.844.426,1.2.039.116-.07.232-.147.155l-3.87-2.956" transform="translate(-12.144 -21.168)" fill="#1d1d1b"/>
    <path id="Trazado_46807" data-name="Trazado 46807" d="M103.295,111.222a6.555,6.555,0,0,1,2.608-1.788c1.145-.472,1.827-.534,2.051-.178a1.4,1.4,0,0,1-.488,1.888,12.383,12.383,0,0,1-2.67,1.6c-1.084.5-1.757.557-2.012.147s-.085-.96.511-1.672m12.112,7.159c-.217-.224-1.61.936-5.069,2.987a21.6,21.6,0,0,1-2.128,1.1,13.636,13.636,0,0,1-4.427,1.145,5.085,5.085,0,0,1-2.183-.248,3.1,3.1,0,0,1-1.679-1.726,4.644,4.644,0,0,1-.426-2.84,6.54,6.54,0,0,1,1.238-2.84c.077-.085.139-.108.286,0a2.577,2.577,0,0,0,.635.248,3.87,3.87,0,0,0,1.037.2,9.21,9.21,0,0,0,3.142-.488,10.17,10.17,0,0,0,3.506-2.043,6.672,6.672,0,0,0,1.409-1.687,5.286,5.286,0,0,0,.6-1.687,8.359,8.359,0,0,0-.07-3.653,2.322,2.322,0,0,0-1.9-1.455,6.037,6.037,0,0,0-2.856,0,10.424,10.424,0,0,0-3.367,1.44,18.1,18.1,0,0,0-3.56,2.941,18.576,18.576,0,0,0-2.639,3.924,13.978,13.978,0,0,0-1.548,4.582c-.062.426-.1.82-.124,1.192a1.37,1.37,0,0,1-.666,1.1h0a24.835,24.835,0,0,1-5.108,2.183,17.394,17.394,0,0,1-2.368.48,2.43,2.43,0,0,1-1.9-.255,1.548,1.548,0,0,1-.348-.41q-.542-.975,1.548-8.56a87.728,87.728,0,0,1,6.648-16.33,70.487,70.487,0,0,0,4.442-9.705,1.548,1.548,0,0,0-1.308-1.61c-.867-.24-1.919.395-3.258,2.469a71.086,71.086,0,0,0-3.947,6.919,120.263,120.263,0,0,0-4.961,12.058l-.062.163a1.409,1.409,0,0,1-1.447.913,19.288,19.288,0,0,1-2.825-.426,12.561,12.561,0,0,1-2.794-.975c-.542-.294-.519-1.548.085-3.645s1.084-3.785,1.447-4.969a17.212,17.212,0,0,1,1.114-2.856,3.4,3.4,0,0,0,.193-2.376,6.192,6.192,0,0,0-.844-1.765,2.322,2.322,0,0,0-1.71-.9,1.9,1.9,0,0,0-1.788.519,9.636,9.636,0,0,0-1.06,3.15c-.348,1.463-.611,2.624-.774,3.483s-.65,2.57-1.455,5.147c-.7,2.252-1.378,3.491-2.508,3.87a13.088,13.088,0,0,0-2.051.418c-.464.17-.72.317-1.362.511a5.292,5.292,0,0,1-1.316.294,3.25,3.25,0,0,1-2.515-1.076c-.077-.093-.124-.17-.139-.186-.209-.364-.418-1.169.232-3.46.6-2.128,1.084-3.785,1.447-4.969a18.156,18.156,0,0,1,1.122-2.856,2.7,2.7,0,0,0,.24-2.113,6.021,6.021,0,0,0-.836-1.765,2.322,2.322,0,0,0-1.71-.9,1.873,1.873,0,0,0-1.788.519,7.4,7.4,0,0,0-1.114,2.879c-.356,1.471-.611,2.631-.774,3.483s-.65,2.569-1.463,5.147-1.548,3.568-2.508,3.87a12.987,12.987,0,0,0-3,.774,2.74,2.74,0,0,0-1.8,2.268c-.062.96.255,1.447.944,1.463a14.281,14.281,0,0,0,2.392-.155c.906-.124,1.292.132,1.169.774a34.9,34.9,0,0,1-1.865,4.822c-1.114,2.585-2,4.814-2.67,6.71q-.906,2.554-.333,3.165c-.929.24-1.912.441-2.956.611q-2.833.449-11.9,1.215h0a7.021,7.021,0,0,0,.96-1.161,23.351,23.351,0,0,0,2.268-4.272q1.037-2.469,2.244-6.455a52.323,52.323,0,0,1,2-5.619c.658-1.656.526-2.624-.387-2.926a4.752,4.752,0,0,0-2.446-.232l-.31.062a4.1,4.1,0,0,0-2.438,1.292c-.124.186-.155.3-.348,1.424-.224,1.316-.279,1.989-.379,2.322q-1.076,3.181-2.322,7.484c-.836,2.871-1.385,5-1.664,6.4a6.965,6.965,0,0,0-.186,1.966h0l-4.025.317q-15.115,1.184-15.58.681a1.354,1.354,0,0,1-.17-1.424,39.569,39.569,0,0,1,3.2-5.363q2.9-4.427,6.555-10.309c2.43-3.916,3.429-6.331,4.094-7.252a29.41,29.41,0,0,0,2.616-5.062q1.6-3.684,2.152-5.418t1.362-5.418a11.165,11.165,0,0,0,.418-4.744A3.545,3.545,0,0,0,30.66,82.13a2.84,2.84,0,0,0-3.049.139,15.913,15.913,0,0,0-3.2,3.963c-1.323,2-2.136,3.1-2.98,4.473a7.6,7.6,0,0,0-1.207,3.429,6.965,6.965,0,0,0,.286,2.422c.24.774.774.844,1.656.255.611-.395.96-.062.844.395a24.116,24.116,0,0,1-2.322,4.644c-1.246,2.19-2.825,5.781-5.828,10.758s-5.255,8.366-6.648,10.208c-1.548,2.036-2.717,4.373-4.141,6.517a15.681,15.681,0,0,0-1.44,3.011c-.65,1.765-.58,2.461-.426,2.941a3.529,3.529,0,0,0,1.169,1.61,6.586,6.586,0,0,0,3.158,1.478,16.291,16.291,0,0,0,6.447-.325c2.322-.418,4.644-.642,6.9-1.022,5.015-.82,8.018-1.323,11.981-2.066,2.159-.4,3.645-.7,5.58-1.238s3.545-1.122,4.6-1.5,2.322-.828,3.87-1.5a45.4,45.4,0,0,0,6.555-3.591,6.965,6.965,0,0,0,1.5-1.409c0-.054.07-.108.108-.163l.077-.116a.136.136,0,0,1,.062-.108v-.046l.124-.217h0a11.927,11.927,0,0,0,.519-1.184c1.2-3.1,1.734-4.442,2.763-6.966,1.935-4.791,2.655-5.232,3.1-5.418a5.766,5.766,0,0,1,3.46-.31,10.132,10.132,0,0,0,1.006.3,12.607,12.607,0,0,0,2.91,0c.464,0,.89-.046,1.091.217a.7.7,0,0,1,.077.55,37.148,37.148,0,0,1-1.865,4.829q-1.672,3.87-2.662,6.71c-.666,1.888-.89,3.405-.348,3.7a2.446,2.446,0,0,0,1.842.193,4.032,4.032,0,0,0,1.7-.828,8.289,8.289,0,0,0,1.509-2.732q.666-1.741,2.748-6.966c1.393-3.491,2.322-5.325,2.864-5.48s1.548-.426,3.189-.774c.867-.193,1.989-.348,3.343-.588,1.192-.217,1.323.6,1.084,1.308a67.954,67.954,0,0,0-2.322,8.041,12.371,12.371,0,0,0-.217,5.2A4.589,4.589,0,0,0,81.493,127a3.382,3.382,0,0,0,2.624.774c.565,0,1.13-.054,4-1.316l2.09-.913.836-.379c.859-.41,1.8-.983,3.343-1.788.457-.24.728-.395.991-.271a1.277,1.277,0,0,1,.573.774,6.021,6.021,0,0,0,.6,1.122,9.978,9.978,0,0,0,.991,1.2,5.905,5.905,0,0,0,2.469,1.323,6.873,6.873,0,0,0,3.607.054,10.709,10.709,0,0,0,2.717-.991,14.43,14.43,0,0,0,1.362-.774c.7-.426,1.192-.774,1.85-1.254s1.176-.859,1.749-1.354c.426-.364.774-.72,1.5-1.393.364-.348.573-.542.728-.7,1.006-1.053,2.051-2.469,1.842-2.686" transform="translate(-0.479 -18.479)" fill="#1d1d1b"/>
  </g>
</svg>
